<?xml version="1.0" encoding="utf-8"?>
<!-- Generator: Adobe Illustrator 16.0.0, SVG Export Plug-In . SVG Version: 6.00 Build 0)  -->
<!DOCTYPE svg PUBLIC "-//W3C//DTD SVG 1.1//EN" "http://www.w3.org/Graphics/SVG/1.1/DTD/svg11.dtd">
<svg version="1.1" id="Layer_1" xmlns="http://www.w3.org/2000/svg" xmlns:xlink="http://www.w3.org/1999/xlink" x="0px" y="0px"
	 width="465px" height="351.545px" viewBox="0 0 465 351.545" enable-background="new 0 0 465 351.545" xml:space="preserve">
<path fill="#FFFFFF" stroke="#FFFFFF" stroke-miterlimit="10" d="M263.448,223.848c-4.582,0-9.541,1.867-13.947,2.818
	c-0.35,1.076,3.598,6.211,26.959,12.164c21.084,5.643,38.342,24.127,38.342,46.272c0,26.541-24.809,42.164-51.354,42.164
	c-26.5,0-51.334-15.623-51.334-42.164c0-23.127,18.834-42.437,41.209-46.967c0.25-0.033,0.438-0.063,0.615-0.19
	c0.266-0.033-0.92-3.896-3.631-6.97c-2.22-2.383-6.068-4.187-6.183-4.16c-0.201,0.037-0.392,0.193-0.633,0.229
	c-25.068,8.182-44.599,31.09-44.599,58.061c0,33.855,30.746,55.439,64.554,55.439c33.867,0,64.61-21.584,64.61-55.439
	C328.059,251.226,297.315,223.848,263.448,223.848z"/>
<path fill="#FFFFFF" stroke="#FFFFFF" stroke-miterlimit="10" d="M244.901,206.947c-4.182-4.095-6.875-9.824-6.875-16.136
	c0-10.963,8.893-19.856,19.854-19.856c5.025,0,8.861,1.969,12.349,5.061l0.014-15.948c-3.814-1.491-7.971-2.389-12.359-2.389
	c-18.332,0-33.123,14.851-33.123,33.133c0,18.315,20.887,39.746,40.113,44.476c6.148,1.547,5.992-7.17,11.033-10.174
	C259.625,221.406,248.961,210.904,244.901,206.947z"/>
<rect x="260.229" y="15.98" fill="#FFFFFF" stroke="#FFFFFF" stroke-miterlimit="10" width="10" height="154.707"/>
<path fill="#FFFFFF" stroke="#FFFFFF" stroke-miterlimit="10" d="M279.122,18.802c0,1.505-1.258,2.756-2.809,2.756
	c-1.507,0-2.771-1.251-2.771-2.756c0-1.556,1.264-2.821,2.771-2.821C277.866,15.98,279.122,17.246,279.122,18.802z"/>
<path fill="#FFFFFF" stroke="#FFFFFF" stroke-miterlimit="10" d="M256.916,18.802c0,1.505-1.254,2.756-2.819,2.756
	c-1.554,0-2.771-1.251-2.771-2.756c0-1.556,1.219-2.821,2.771-2.821C255.663,15.98,256.916,17.246,256.916,18.802z"/>
<path fill="#FFFFFF" stroke="#FFFFFF" stroke-miterlimit="10" d="M279.122,28.692c0,1.552-1.258,2.817-2.809,2.817
	c-1.507,0-2.771-1.265-2.771-2.817c0-1.505,1.264-2.76,2.771-2.76C277.866,25.933,279.122,27.188,279.122,28.692z"/>
<path fill="#FFFFFF" stroke="#FFFFFF" stroke-miterlimit="10" d="M256.916,28.692c0,1.552-1.254,2.817-2.819,2.817
	c-1.554,0-2.771-1.265-2.771-2.817c0-1.505,1.219-2.76,2.771-2.76C255.663,25.933,256.916,27.188,256.916,28.692z"/>
<path fill="#FFFFFF" stroke="#FFFFFF" stroke-miterlimit="10" d="M279.122,38.657c0,1.542-1.258,2.807-2.809,2.807
	c-1.507,0-2.771-1.265-2.771-2.807c0-1.565,1.264-2.82,2.771-2.82C277.866,35.836,279.122,37.092,279.122,38.657z"/>
<path fill="#FFFFFF" stroke="#FFFFFF" stroke-miterlimit="10" d="M256.916,38.657c0,1.542-1.254,2.807-2.819,2.807
	c-1.554,0-2.771-1.265-2.771-2.807c0-1.565,1.219-2.82,2.771-2.82C255.663,35.836,256.916,37.092,256.916,38.657z"/>
<g>
	<g>
		<path fill="#FFFFFF" stroke="#FFFFFF" stroke-width="10" stroke-miterlimit="10" d="M81.65,102.106
			c1.68,4.108,2.52,8.773,2.52,13.998c0,4.76-0.84,9.379-2.52,13.859c-1.675,4.293-3.957,7.933-6.844,10.918
			c-2.699,3.08-6.144,5.507-10.334,7.279c-3.911,1.771-8.285,2.66-13.128,2.66c-3.258,0-6.33-0.42-9.217-1.26
			c-1.584-0.468-3.049-1.002-4.399-1.61c-1.351-0.605-2.677-1.33-3.98-2.17c-1.303-0.84-2.537-1.75-3.701-2.73
			c-1.164-0.979-2.257-2.122-3.28-3.43c-1.026-1.212-1.934-2.52-2.725-3.92c-0.792-1.399-1.56-2.892-2.304-4.479
			c-0.783-1.585-1.417-3.405-1.907-5.459c-0.49-2.052-0.879-4.151-1.172-6.299c-0.188-0.839-0.304-2.59-0.35-5.25
			c-0.048-2.66-0.118-5.925-0.21-9.799c-0.094-3.872-0.14-8.119-0.14-12.738c0-4.62,0-9.31,0-14.069V40.655h3.359l-0.14,60.333
			c1.396-3.266,3.211-6.159,5.446-8.679s4.703-4.619,7.401-6.299c5.215-3.266,10.987-4.899,17.319-4.899
			c4.934,0,9.357,0.888,13.268,2.66c4.002,1.68,7.447,4.107,10.334,7.28C77.925,94.127,80.158,97.815,81.65,102.106z
			 M78.854,128.424c1.396-3.919,2.095-8.024,2.095-12.319c0-4.291-0.7-8.398-2.095-12.318c-1.398-3.826-3.354-7.231-5.864-10.218
			c-2.515-2.892-5.634-5.272-9.357-7.14c-3.539-1.771-7.636-2.66-12.29-2.66c-4.377,0-8.428,0.84-12.151,2.52
			c-3.724,1.868-6.843,4.199-9.356,6.999c-2.701,2.988-4.796,6.393-6.286,10.219c-1.584,4.014-2.374,8.167-2.374,12.458
			c0,4.293,0.79,8.447,2.374,12.458c1.49,3.827,3.585,7.231,6.286,10.218c2.513,2.8,5.632,5.133,9.356,7
			c3.723,1.679,7.774,2.519,12.151,2.519c4.56,0,8.656-0.84,12.29-2.519c3.723-1.866,6.842-4.2,9.357-7
			C75.501,135.657,77.456,132.251,78.854,128.424z"/>
		<path fill="#FFFFFF" stroke="#FFFFFF" stroke-width="10" stroke-miterlimit="10" d="M101.666,115.266
			c0,2.054,0.162,4.06,0.49,6.02c0.326,1.959,0.771,3.919,1.33,5.879c1.211,3.92,3.031,7.419,5.459,10.499
			c2.332,3.08,5.412,5.599,9.239,7.56c3.919,1.868,8.306,2.799,13.159,2.799c5.319,0,9.891-1.025,13.719-3.08
			c4.105-2.146,7.604-5.131,10.499-8.959l2.239,1.96c-3.268,4.199-7.047,7.418-11.338,9.659c-4.2,2.146-9.239,3.219-15.118,3.219
			c-4.947,0-9.379-0.888-13.299-2.66c-2.054-0.84-3.919-1.865-5.599-3.08c-1.68-1.212-3.268-2.612-4.759-4.199
			c-2.988-3.171-5.239-6.951-6.752-11.338c-1.658-4.479-2.486-9.239-2.486-14.279c0-4.851,0.829-9.424,2.486-13.718
			c1.702-4.199,3.953-7.839,6.752-10.919c2.799-3.079,6.111-5.411,9.939-6.999c3.919-1.68,8.025-2.52,12.318-2.52
			c5.226,0,9.751,0.888,13.579,2.66c3.826,1.868,7,4.248,9.519,7.139c2.426,2.894,4.292,6.253,5.599,10.079
			c1.306,3.92,1.96,7.748,1.96,11.479v2.8L101.666,115.266L101.666,115.266z M157.379,112.466
			c-0.188-4.385-0.934-8.259-2.239-11.619c-1.4-3.545-3.268-6.579-5.6-9.099c-2.333-2.425-5.179-4.385-8.539-5.879
			c-3.359-1.4-7.093-2.1-11.198-2.1c-5.04,0-9.287,1.028-12.738,3.08c-3.548,2.148-6.439,4.668-8.679,7.559
			c-1.12,1.588-2.1,3.15-2.939,4.689c-0.839,1.54-1.494,3.15-1.96,4.83c-0.56,1.588-0.958,3.104-1.189,4.549
			c-0.235,1.448-0.35,2.778-0.35,3.99H157.379L157.379,112.466z"/>
		<path fill="#FFFFFF" stroke="#FFFFFF" stroke-width="10" stroke-miterlimit="10" d="M178.797,129.824
			c-1.588-4.479-2.379-9.145-2.379-13.998c0-4.759,0.792-9.379,2.379-13.858c1.68-4.292,3.965-7.931,6.859-10.919
			c2.892-3.171,6.345-5.599,10.359-7.279c3.919-1.772,8.351-2.66,13.298-2.66c3.08,0,6.11,0.42,9.1,1.26
			c3.08,0.84,5.879,2.1,8.398,3.779c1.307,0.84,2.543,1.75,3.709,2.73s2.264,2.124,3.291,3.43c1.024,1.213,1.959,2.52,2.799,3.919
			c0.84,1.4,1.633,2.894,2.381,4.48c0.65,1.588,1.234,3.407,1.75,5.459c0.512,2.054,0.908,4.153,1.188,6.299
			c0.092,0.84,0.188,2.008,0.28,3.5c0.091,1.494,0.162,3.173,0.209,5.039c0.047,1.868,0.07,3.85,0.07,5.95c0,2.099,0,4.177,0,6.229
			c0,4.853-0.05,10.079-0.14,15.678h-3.36l0.42-17.917c-1.399,3.268-3.22,6.16-5.459,8.68c-2.24,2.52-4.668,4.619-7.279,6.299
			c-5.414,3.266-11.198,4.9-17.356,4.9c-5.041,0-9.521-0.888-13.438-2.66c-4.014-1.68-7.467-4.105-10.358-7.279
			C182.528,137.803,180.289,134.118,178.797,129.824z M181.596,103.507c-1.308,4.108-1.959,8.213-1.959,12.319
			c0,4.108,0.652,8.213,1.959,12.318c1.4,3.919,3.405,7.327,6.02,10.219c1.306,1.588,2.729,2.94,4.27,4.061
			c1.54,1.12,3.242,2.147,5.109,3.08c3.545,1.774,7.65,2.66,12.318,2.66c4.387,0,8.399-0.84,12.039-2.52
			c1.865-0.932,3.59-1.959,5.18-3.08c1.584-1.12,3.029-2.425,4.338-3.92c2.705-2.985,4.805-6.391,6.299-10.219
			c0.746-1.959,1.307-3.989,1.682-6.089c0.371-2.1,0.56-4.221,0.56-6.369c0-2.146-0.188-4.271-0.56-6.37
			c-0.375-2.1-0.936-4.129-1.682-6.089c-1.494-3.826-3.594-7.231-6.299-10.219c-1.309-1.491-2.754-2.799-4.338-3.919
			c-1.59-1.119-3.313-2.146-5.18-3.08c-3.64-1.68-7.652-2.52-12.039-2.52c-4.573,0-8.678,0.84-12.318,2.52
			c-3.827,1.868-6.954,4.2-9.379,6.999C185.001,96.182,182.997,99.586,181.596,103.507z"/>
	</g>
	<g>
		<path fill="#FFFFFF" stroke="#FFFFFF" stroke-width="10" stroke-miterlimit="10" d="M333.364,182.625
			c0.078,1.092,0.153,2.565,0.231,4.434s0.138,3.928,0.179,6.184c0.037,2.258,0.075,4.551,0.114,6.883s0.06,4.49,0.06,6.474
			s0,3.637,0,4.959c0,1.321,0,2.101,0,2.332v0.116h-2.685v-15.397v-12.016c0-4.043-0.545-7.816-1.633-11.313
			c-0.623-1.634-1.322-3.15-2.1-4.552c-0.779-1.399-1.633-2.683-2.566-3.851c-1.867-2.1-4.162-3.887-6.883-5.365
			c-2.645-1.321-5.074-1.904-7.291-1.75c-2.215,0.157-4.686,0.779-7.408,1.867c-1.321,0.545-2.547,1.284-3.674,2.217
			c-1.127,0.933-2.199,1.945-3.207,3.033c-1.945,2.256-3.5,5.056-4.668,8.398c-1.166,3.424-1.75,7.193-1.75,11.314v27.414h-2.566
			v-0.117c0-0.23,0-1.01,0-2.332s0-2.977,0-4.959s0.021-4.143,0.06-6.475c0.039-2.334,0.078-4.625,0.117-6.883
			c0.039-2.255,0.098-4.314,0.176-6.183c0.076-1.867,0.154-3.342,0.231-4.435c0.154-1.709,0.447-3.383,0.875-5.016
			c0.427-1.633,0.912-3.148,1.457-4.549c0.543-1.398,1.107-2.645,1.691-3.732s1.109-1.943,1.576-2.566
			c0.774-1.01,1.592-1.926,2.449-2.742c0.854-0.816,1.75-1.575,2.684-2.275c1.865-1.399,3.924-2.45,6.182-3.149
			c2.179-0.7,4.121-1.05,5.832-1.05s3.576,0.35,5.603,1.05c2.1,0.623,4.158,1.673,6.182,3.149c0.935,0.7,1.826,1.458,2.685,2.275
			c0.854,0.816,1.672,1.732,2.448,2.742c0.468,0.623,0.992,1.479,1.574,2.566c0.584,1.09,1.146,2.332,1.691,3.732
			c0.543,1.398,1.031,2.916,1.459,4.549C332.914,179.242,333.207,180.916,333.364,182.625z"/>
		<path fill="#FFFFFF" stroke="#FFFFFF" stroke-width="10" stroke-miterlimit="10" d="M355.877,138.647
			c-0.777,0-1.438-0.271-1.981-0.817c-0.546-0.7-0.816-1.438-0.816-2.216c0-0.776,0.271-1.517,0.816-2.217
			c0.543-0.542,1.204-0.816,1.981-0.816c0.701,0,1.322,0.274,1.867,0.816c0.543,0.545,0.818,1.284,0.818,2.217
			c0,0.933-0.275,1.673-0.818,2.216C357.122,138.375,356.5,138.647,355.877,138.647z M354.479,214.121v-54.827h2.682v54.827H354.479
			L354.479,214.121z"/>
		<path fill="#FFFFFF" stroke="#FFFFFF" stroke-width="10" stroke-miterlimit="10" d="M402.887,125.35
			c-0.391-0.155-0.799-0.251-1.225-0.292c-0.428-0.039-0.836-0.097-1.225-0.175c-0.392-0.077-0.8-0.117-1.228-0.117
			c-0.426,0-0.836,0-1.225,0c-2.256,0-4.082,0.429-5.482,1.283c-1.397,0.778-2.604,1.907-3.615,3.383
			c-1.012,1.478-1.674,3.033-1.983,4.666c-0.232,0.856-0.392,1.75-0.465,2.683c-0.08,0.934-0.117,1.828-0.117,2.683v19.831h14.932
			v2.216h-14.932v52.61h-2.685v-52.61l-0.116-2.216v-19.714c0-3.188,0.444-5.95,1.342-8.283c0.809-2.176,1.957-3.926,3.44-5.25
			c1.478-1.321,2.992-2.216,4.55-2.683c1.557-0.543,3.227-0.816,5.018-0.816c2.02,0,3.848,0.233,5.48,0.7L402.887,125.35z"/>
		<path fill="#FFFFFF" stroke="#FFFFFF" stroke-width="10" stroke-miterlimit="10" d="M444.534,125.35
			c-0.391-0.155-0.797-0.251-1.226-0.292c-0.43-0.039-0.836-0.097-1.225-0.175c-0.391-0.077-0.799-0.117-1.225-0.117
			c-0.431,0-0.836,0-1.228,0c-2.256,0-4.082,0.429-5.481,1.283c-1.4,0.778-2.605,1.907-3.615,3.383
			c-1.012,1.478-1.672,3.033-1.984,4.666c-0.231,0.856-0.389,1.75-0.467,2.683c-0.078,0.934-0.115,1.828-0.115,2.683v19.831h14.933
			v2.216h-14.933v52.61h-2.684v-52.61l-0.117-2.216v-19.714c0-3.188,0.447-5.95,1.34-8.283c0.812-2.176,1.957-3.926,3.443-5.25
			c1.477-1.321,2.992-2.216,4.549-2.683c1.557-0.543,3.228-0.816,5.019-0.816c2.021,0,3.85,0.233,5.481,0.7L444.534,125.35z"/>
	</g>
</g>
</svg>
