<?xml version="1.0" encoding="utf-8"?>
<!-- Generator: Adobe Illustrator 16.0.0, SVG Export Plug-In . SVG Version: 6.00 Build 0)  -->
<!DOCTYPE svg PUBLIC "-//W3C//DTD SVG 1.1//EN" "http://www.w3.org/Graphics/SVG/1.1/DTD/svg11.dtd">
<svg version="1.1" id="Layer_1" xmlns="http://www.w3.org/2000/svg" xmlns:xlink="http://www.w3.org/1999/xlink" x="0px" y="0px"
	 width="467.667px" height="114.334px" viewBox="0 0 467.667 114.334" enable-background="new 0 0 467.667 114.334"
	 xml:space="preserve">
<g>
	<path fill="#444444" stroke="#444444" stroke-width="2" stroke-miterlimit="10" d="M202.738,60.855
		c0.707,1.73,1.058,3.685,1.058,5.884c0,2.002-0.351,3.941-1.058,5.823c-0.706,1.802-1.661,3.337-2.875,4.589
		c-1.137,1.293-2.584,2.31-4.342,3.062c-1.645,0.743-3.483,1.114-5.52,1.114c-1.366,0-2.66-0.178-3.874-0.533
		c-0.665-0.193-1.277-0.42-1.845-0.668c-0.569-0.26-1.125-0.559-1.673-0.913c-0.548-0.356-1.063-0.735-1.556-1.147
		c-0.488-0.412-0.947-0.896-1.378-1.447c-0.432-0.508-0.812-1.058-1.146-1.638c-0.331-0.591-0.652-1.221-0.968-1.883
		c-0.327-0.671-0.595-1.438-0.801-2.294c-0.206-0.863-0.369-1.744-0.49-2.648c-0.082-0.355-0.13-1.093-0.15-2.207
		c-0.016-1.113-0.048-2.486-0.084-4.121c-0.041-1.627-0.061-3.408-0.061-5.352c0-1.938,0-3.909,0-5.914V35.035h1.415l-0.062,25.346
		c0.583-1.366,1.35-2.582,2.29-3.646c0.94-1.059,1.975-1.938,3.107-2.645c2.193-1.373,4.616-2.054,7.276-2.054
		c2.077,0,3.936,0.371,5.576,1.114c1.68,0.707,3.127,1.725,4.341,3.057C201.173,57.504,202.112,59.051,202.738,60.855z
		 M201.563,71.915c0.583-1.648,0.878-3.379,0.878-5.18c0-1.8-0.295-3.529-0.878-5.176c-0.589-1.605-1.408-3.04-2.462-4.291
		c-1.062-1.215-2.372-2.217-3.936-3.001c-1.488-0.748-3.209-1.119-5.165-1.119c-1.838,0-3.54,0.355-5.103,1.058
		c-1.569,0.789-2.879,1.766-3.936,2.946c-1.133,1.25-2.012,2.686-2.64,4.292c-0.666,1.689-0.995,3.438-0.995,5.236
		c0,1.801,0.329,3.546,0.995,5.234c0.628,1.607,1.508,3.037,2.64,4.287c1.056,1.181,2.366,2.158,3.936,2.951
		c1.563,0.701,3.265,1.057,5.103,1.057c1.919,0,3.641-0.354,5.165-1.057c1.563-0.793,2.874-1.771,3.936-2.951
		C200.157,74.952,200.974,73.524,201.563,71.915z"/>
	<path fill="#444444" stroke="#444444" stroke-width="2" stroke-miterlimit="10" d="M211.15,66.381c0,0.864,0.068,1.714,0.206,2.538
		c0.137,0.824,0.323,1.638,0.557,2.463c0.508,1.648,1.271,3.119,2.294,4.421c0.981,1.292,2.273,2.351,3.881,3.173
		c1.648,0.784,3.49,1.17,5.529,1.17c2.233,0,4.156-0.426,5.764-1.292c1.724-0.905,3.194-2.155,4.41-3.764l0.941,0.823
		c-1.37,1.771-2.962,3.119-4.762,4.064c-1.765,0.896-3.881,1.35-6.354,1.35c-2.08,0-3.942-0.371-5.59-1.115
		c-0.86-0.354-1.644-0.781-2.351-1.303c-0.707-0.506-1.374-1.086-2-1.76c-1.257-1.332-2.201-2.925-2.839-4.766
		c-0.695-1.883-1.042-3.877-1.042-6.003c0-2.034,0.347-3.957,1.042-5.759c0.714-1.766,1.664-3.296,2.839-4.588
		c1.175-1.298,2.568-2.273,4.177-2.94c1.648-0.708,3.373-1.058,5.173-1.058c2.198,0,4.1,0.371,5.708,1.114
		c1.607,0.783,2.94,1.786,3.999,3.001c1.022,1.216,1.807,2.631,2.355,4.231c0.549,1.654,0.824,3.263,0.824,4.828v1.171H211.15
		L211.15,66.381z M234.562,65.21c-0.082-1.842-0.392-3.475-0.941-4.885c-0.59-1.488-1.375-2.767-2.355-3.822
		c-0.982-1.019-2.177-1.842-3.586-2.468c-1.414-0.59-2.981-0.884-4.706-0.884c-2.116,0-3.902,0.433-5.352,1.297
		c-1.491,0.901-2.706,1.959-3.647,3.174c-0.473,0.667-0.885,1.325-1.236,1.971c-0.355,0.646-0.631,1.326-0.824,2.031
		c-0.234,0.664-0.405,1.302-0.501,1.906c-0.097,0.616-0.145,1.172-0.145,1.682L234.562,65.21L234.562,65.21z"/>
	<path fill="#444444" stroke="#444444" stroke-width="2" stroke-miterlimit="10" d="M243.561,72.505
		c-0.667-1.883-1.002-3.846-1.002-5.881c0-2.004,0.335-3.942,1.002-5.83c0.707-1.801,1.668-3.331,2.884-4.588
		c1.21-1.332,2.665-2.35,4.35-3.057c1.647-0.743,3.51-1.119,5.59-1.119c1.293,0,2.568,0.178,3.82,0.534
		c1.297,0.351,2.473,0.879,3.53,1.586c0.55,0.351,1.07,0.735,1.56,1.147c0.488,0.412,0.949,0.894,1.381,1.437
		c0.433,0.513,0.824,1.063,1.181,1.648c0.353,0.59,0.683,1.216,0.998,1.883c0.272,0.667,0.521,1.432,0.733,2.293
		c0.213,0.866,0.386,1.746,0.502,2.65c0.039,0.346,0.076,0.841,0.117,1.471c0.039,0.621,0.067,1.331,0.088,2.114
		c0.021,0.784,0.027,1.616,0.027,2.495c0,0.891,0,1.764,0,2.617c0,2.047-0.02,4.244-0.055,6.594h-1.414l0.178-7.528
		c-0.59,1.373-1.354,2.582-2.294,3.642c-0.94,1.061-1.964,1.948-3.058,2.65c-2.278,1.374-4.711,2.059-7.295,2.059
		c-2.12,0-4.002-0.371-5.646-1.113c-1.688-0.713-3.14-1.729-4.354-3.063C245.126,75.858,244.186,74.307,243.561,72.505z
		 M244.736,61.446c-0.55,1.722-0.824,3.449-0.824,5.178c0,1.723,0.274,3.449,0.824,5.171c0.59,1.647,1.434,3.077,2.528,4.297
		c0.549,0.663,1.147,1.237,1.798,1.704c0.646,0.469,1.359,0.906,2.145,1.294c1.49,0.752,3.215,1.123,5.178,1.123
		c1.842,0,3.525-0.354,5.058-1.058c0.783-0.396,1.511-0.826,2.177-1.303c0.666-0.47,1.271-1.018,1.821-1.648
		c1.14-1.25,2.021-2.68,2.649-4.287c0.311-0.825,0.55-1.682,0.703-2.563c0.158-0.879,0.238-1.769,0.238-2.673
		c0-0.905-0.082-1.793-0.238-2.675c-0.153-0.889-0.393-1.735-0.703-2.561c-0.631-1.608-1.51-3.043-2.649-4.292
		c-0.55-0.63-1.155-1.18-1.821-1.648c-0.666-0.473-1.395-0.9-2.177-1.297c-1.53-0.703-3.216-1.058-5.058-1.058
		c-1.922,0-3.646,0.355-5.178,1.058c-1.608,0.789-2.92,1.766-3.942,2.946C246.169,58.364,245.326,59.798,244.736,61.446z"/>
	<path fill="#444444" stroke="#444444" stroke-width="2" stroke-miterlimit="10" d="M287.38,80.97
		c-0.662,0.122-1.293,0.18-1.883,0.18c-2.192,0-3.725-0.606-4.588-1.826c-0.938-1.211-1.41-2.736-1.41-4.59l-0.061-30.054h1.354
		v8.118h8.125v1.119h-8.125v20.817c0,1.922,0.453,3.281,1.354,4.063c0.94,0.823,2.156,1.235,3.651,1.235
		c1.131,0,2.173-0.179,3.119-0.533l0.168,1.002c-0.234,0.121-0.491,0.211-0.791,0.267C288.003,80.825,287.695,80.897,287.38,80.97z"
		/>
	<path fill="#444444" stroke="#444444" stroke-width="2" stroke-miterlimit="10" d="M315.612,73.206
		c0,1.252-0.233,2.377-0.702,3.354c-0.507,0.986-1.18,1.827-2.002,2.529c-0.857,0.671-1.802,1.181-2.82,1.535
		c-1.141,0.346-2.319,0.523-3.529,0.523c-1.02,0-1.987-0.09-2.906-0.267c-0.934-0.169-1.793-0.476-2.619-0.914
		c-1.729-0.782-3.102-1.912-4.119-3.408l1.059-0.758c1.994,2.817,4.902,4.231,8.708,4.231c0.429,0,0.874-0.031,1.315-0.088
		c0.453-0.058,0.896-0.172,1.325-0.324c0.946-0.314,1.771-0.742,2.474-1.293c0.742-0.549,1.357-1.234,1.826-2.06
		c0.428-0.944,0.646-1.922,0.646-2.94c0-1.26-0.302-2.293-0.88-3.117c-0.51-0.742-1.236-1.373-2.184-1.883
		c-0.427-0.275-0.879-0.502-1.349-0.68c-0.468-0.18-0.985-0.338-1.536-0.501c-0.541-0.153-1.066-0.297-1.549-0.446
		c-0.494-0.137-0.979-0.256-1.447-0.379c-0.509-0.151-1.001-0.295-1.471-0.435c-0.467-0.138-0.921-0.308-1.348-0.502
		c-0.945-0.354-1.715-0.783-2.295-1.304c-0.629-0.549-1.164-1.226-1.592-2.051c-0.396-0.862-0.591-1.865-0.591-3.004
		c0-1.216,0.261-2.254,0.769-3.114c0.43-0.825,1.06-1.552,1.884-2.177c0.428-0.315,0.864-0.577,1.292-0.796
		c0.438-0.213,0.921-0.399,1.471-0.558c0.943-0.274,1.964-0.411,3.063-0.411c3.845,0,6.681,1.332,8.531,3.999l-1.181,0.646
		c-0.978-1.215-2.021-2.096-3.119-2.646c-1.18-0.59-2.584-0.879-4.233-0.879c-0.67,0-1.453,0.097-2.358,0.29
		c-0.937,0.239-1.72,0.57-2.351,1.002c-0.744,0.508-1.31,1.119-1.705,1.821c-0.467,0.789-0.701,1.709-0.701,2.767
		c0,1.257,0.191,2.212,0.591,2.884c0.347,0.702,0.878,1.293,1.58,1.762c0.315,0.193,0.68,0.396,1.093,0.59
		c0.411,0.193,0.873,0.371,1.381,0.533c0.936,0.307,1.993,0.605,3.174,0.881c0.551,0.111,1.084,0.25,1.592,0.41
		c0.509,0.153,1.018,0.332,1.527,0.524c1.016,0.397,1.922,0.865,2.705,1.414c0.742,0.55,1.373,1.252,1.883,2.114
		C315.378,70.993,315.612,72.028,315.612,73.206z"/>
	<path fill="#444444" stroke="#444444" stroke-width="2" stroke-miterlimit="10" d="M346.796,64.62
		c0.029,0.551,0.072,1.293,0.111,2.238c0.039,0.936,0.073,1.979,0.088,3.118c0.017,1.132,0.041,2.293,0.059,3.466
		c0.025,1.18,0.031,2.271,0.031,3.264c0,1.002,0,1.832,0,2.505c0,0.661,0,1.059,0,1.17v0.065h-1.358v-7.763v-6.06
		c0-2.043-0.274-3.941-0.813-5.707c-0.316-0.824-0.67-1.592-1.06-2.295c-0.396-0.707-0.823-1.354-1.301-1.942
		c-0.937-1.059-2.093-1.958-3.466-2.706c-1.332-0.666-2.561-0.961-3.674-0.879c-1.125,0.076-2.371,0.392-3.742,0.94
		c-0.662,0.274-1.284,0.646-1.85,1.114c-0.574,0.473-1.107,0.982-1.617,1.531c-0.985,1.14-1.769,2.549-2.358,4.237
		c-0.591,1.727-0.88,3.623-0.88,5.707v13.822h-1.293V80.39c0-0.121,0-0.518,0-1.18c0-0.674,0-1.504,0-2.506
		c0-0.992,0.009-2.082,0.033-3.264c0.015-1.171,0.029-2.334,0.056-3.466c0.017-1.139,0.049-2.181,0.09-3.118
		c0.04-0.945,0.071-1.688,0.112-2.238c0.08-0.862,0.226-1.703,0.443-2.527c0.221-0.825,0.461-1.587,0.735-2.295
		c0.272-0.706,0.56-1.331,0.847-1.883c0.301-0.548,0.567-0.981,0.803-1.296c0.387-0.508,0.797-0.969,1.234-1.381
		c0.428-0.412,0.881-0.791,1.35-1.147c0.944-0.707,1.979-1.236,3.119-1.587c1.098-0.35,2.074-0.527,2.94-0.527
		c0.862,0,1.808,0.178,2.827,0.527c1.058,0.316,2.091,0.845,3.117,1.587c0.47,0.356,0.92,0.735,1.35,1.147
		c0.438,0.412,0.848,0.874,1.236,1.381c0.234,0.315,0.502,0.748,0.791,1.296c0.3,0.552,0.58,1.177,0.855,1.883
		c0.274,0.708,0.518,1.47,0.735,2.295C346.568,62.915,346.714,63.757,346.796,64.62z"/>
	<path fill="#444444" stroke="#444444" stroke-width="2" stroke-miterlimit="10" d="M358.145,42.447
		c-0.397,0-0.728-0.137-1.002-0.412c-0.274-0.356-0.412-0.727-0.412-1.119c0-0.391,0.138-0.763,0.412-1.119
		c0.274-0.274,0.604-0.412,1.002-0.412c0.354,0,0.661,0.137,0.937,0.412c0.274,0.275,0.412,0.651,0.412,1.119
		c0,0.473-0.138,0.845-0.412,1.119C358.774,42.31,358.46,42.447,358.145,42.447z M357.441,80.502V52.854h1.35v27.647H357.441z"/>
	<path fill="#444444" stroke="#444444" stroke-width="2" stroke-miterlimit="10" d="M381.843,35.742
		c-0.191-0.081-0.393-0.129-0.61-0.15c-0.219-0.02-0.42-0.048-0.624-0.089c-0.191-0.035-0.395-0.056-0.611-0.056
		c-0.218,0-0.42,0-0.613,0c-1.141,0-2.059,0.214-2.771,0.646c-0.701,0.392-1.308,0.962-1.816,1.704
		c-0.508,0.748-0.85,1.532-1.002,2.356c-0.121,0.433-0.192,0.88-0.232,1.353c-0.041,0.468-0.064,0.921-0.064,1.353v9.997h7.537
		v1.119h-7.537v26.529h-1.351V53.973l-0.058-1.119v-9.94c0-1.607,0.227-2.996,0.67-4.176c0.408-1.099,0.992-1.979,1.736-2.646
		c0.743-0.666,1.512-1.119,2.295-1.353c0.781-0.274,1.631-0.412,2.528-0.412c1.017,0,1.947,0.117,2.771,0.351L381.843,35.742z"/>
	<path fill="#444444" stroke="#444444" stroke-width="2" stroke-miterlimit="10" d="M402.848,35.742
		c-0.193-0.081-0.404-0.129-0.622-0.15c-0.209-0.02-0.421-0.048-0.613-0.089c-0.195-0.035-0.404-0.056-0.613-0.056
		c-0.22,0-0.43,0-0.623,0c-1.14,0-2.061,0.214-2.762,0.646c-0.713,0.392-1.316,0.962-1.826,1.704
		c-0.51,0.748-0.84,1.532-1.002,2.356c-0.113,0.433-0.192,0.88-0.233,1.353c-0.041,0.468-0.058,0.921-0.058,1.353v9.997h7.529v1.119
		h-7.529v26.529h-1.358V53.973l-0.056-1.119v-9.94c0-1.607,0.227-2.996,0.678-4.176c0.408-1.099,0.982-1.979,1.738-2.646
		c0.742-0.666,1.51-1.119,2.293-1.353c0.783-0.274,1.623-0.412,2.529-0.412c1.018,0,1.938,0.117,2.762,0.351L402.848,35.742z"/>
</g>
<path fill="#444444" stroke="#444444" stroke-width="0.4" stroke-miterlimit="10" d="M119.251,76.817
	c-3.822,6.229-10.063,10.131-17.426,10.131c-7.328,0-13.766-3.93-17.6-10.131H119.251z"/>
<path fill="#444444" stroke="#444444" stroke-width="0.4" stroke-miterlimit="10" d="M102.135,56.497
	c-0.413,0.001-0.824,0.013-1.242,0.013c-19.704,0-34.728-5.625-34.728-2.344c0,7.363-3.017,18.93,16.682,19.502
	c8.935,0.249,13.188-5.698,15.171-12.263c0.3-0.979,2.206-1.447,4.083-1.371c0.019-0.064,0.055-0.129,0.073-0.193
	C102.082,59.243,102.082,57.009,102.135,56.497z"/>
<path fill="#444444" stroke="#444444" stroke-width="0.4" stroke-miterlimit="10" d="M138.415,37.757
	c0,1.857,2.663,19.342-1.905,18.733c-9.732-1.292-31.55-23.257-36.146-21.455c-2.623,1.03,4.58,8.426,17.593,17.404
	c-19.079-5.847-30.771-19.22-31.722-19.177c-1.557,0.074,4.959,9.117,18.21,18.91c-23.042-4.492-26.973-12.341-33.2-14.554
	c-1.171-0.415,4.4,7.545,3.343,7.073c-6.75-3.06-9.797-2.247-9.797-6.933c0-9.32,16.771-7.344,37.105-7.344
	C122.222,30.413,138.415,28.437,138.415,37.757z"/>
<path fill="#444444" stroke="#444444" stroke-width="0.4" stroke-miterlimit="10" d="M101.549,56.497
	c0.413,0.001,0.822,0.013,1.241,0.013c19.705,0,34.725-5.625,34.725-2.344c0,7.363,3.021,18.93-16.681,19.502
	c-8.929,0.249-13.184-5.698-15.169-12.263c-0.298-0.979-2.204-1.447-4.071-1.371c-0.028-0.064-0.055-0.129-0.081-0.193
	C101.602,59.243,101.602,57.009,101.549,56.497z"/>
<path fill="#444444" stroke="#444444" stroke-width="0.4" stroke-miterlimit="10" d="M49.362,65.276h10.629V46.654
	c0-3.213-0.461-5.828-3.395-5.828l0,0c-2.931,0-7.234-1.179-7.234,5.828V65.276z"/>
<path fill="#444444" stroke="#444444" stroke-width="0.4" stroke-miterlimit="10" d="M143.734,65.282h10.628V46.673
	c-0.122-7.18-4.195-5.834-7.127-5.834l0,0c-2.935,0-3.501,2.613-3.501,5.834V65.282z"/>
<path fill="#444444" stroke="#444444" stroke-width="0.4" stroke-miterlimit="10" d="M143.656,65.282h4.289l-0.029-29.277
	c0-7.265-5.359-13.155-11.977-13.155H67.544c-6.627,0-11.988,5.89-11.988,13.155l-0.05,29.309h4.485l0.055-26.23
	c0-6.492,4.858-11.742,10.849-11.742h61.915c5.986,0,10.846,5.25,10.846,11.742V65.282z"/>
<path fill="#444444" stroke="#444444" stroke-width="0.4" stroke-miterlimit="10" d="M130.101,29.321H73.602
	c-5.474,0-9.896,4.862-9.896,10.861v40.293c0,5.983,4.422,10.861,9.896,10.861h56.499c5.462,0,9.903-4.878,9.903-10.861V40.182
	C140.003,34.183,135.562,29.321,130.101,29.321z M136.05,78.391c0,5.369-3.979,9.743-8.873,9.743H76.524
	c-4.902,0-8.868-4.374-8.868-9.743V42.275c0-5.383,3.966-9.744,8.868-9.744h50.653c4.894,0,8.873,4.361,8.873,9.744V78.391z"/>
<path fill="#444444" stroke="#444444" stroke-width="0.4" stroke-miterlimit="10" d="M456.333,15.334c0,0.552-0.447,1-1,1H8
	c-0.552,0-1-0.448-1-1V12c0-0.552,0.448-1,1-1h447.333c0.553,0,1,0.448,1,1V15.334z"/>
<path fill="#444444" stroke="#444444" stroke-width="0.4" stroke-miterlimit="10" d="M456.333,105.334c0,0.552-0.447,1-1,1H8
	c-0.552,0-1-0.448-1-1v-3.333c0-0.553,0.448-1,1-1h447.333c0.553,0,1,0.447,1,1V105.334z"/>
</svg>
