<?xml version="1.0" encoding="utf-8"?>
<!-- Generator: Adobe Illustrator 16.0.0, SVG Export Plug-In . SVG Version: 6.00 Build 0)  -->
<!DOCTYPE svg PUBLIC "-//W3C//DTD SVG 1.1//EN" "http://www.w3.org/Graphics/SVG/1.1/DTD/svg11.dtd">
<svg version="1.1" id="Layer_1" xmlns="http://www.w3.org/2000/svg" xmlns:xlink="http://www.w3.org/1999/xlink" x="0px" y="0px"
	 width="465px" height="351.545px" viewBox="30.488 12.545 465 351.545" enable-background="new 30.488 12.545 465 351.545"
	 xml:space="preserve">
<path fill="#444444" stroke="#444444" stroke-miterlimit="10" d="M298.617,236.372c-4.582,0-9.541,1.867-13.947,2.819
	c-0.349,1.075,3.598,6.21,26.959,12.164c21.084,5.642,38.342,24.126,38.342,46.272c0,26.541-24.809,42.164-51.354,42.164
	c-26.5,0-51.334-15.623-51.334-42.164c0-23.127,18.834-42.436,41.209-46.967c0.25-0.033,0.438-0.063,0.616-0.19
	c0.265-0.033-0.921-3.896-3.631-6.97c-2.22-2.383-6.069-4.187-6.183-4.16c-0.201,0.037-0.392,0.193-0.633,0.229
	c-25.068,8.182-44.598,31.09-44.598,58.061c0,33.856,30.746,55.44,64.553,55.44c33.867,0,64.611-21.584,64.611-55.44
	C363.228,263.75,332.484,236.372,298.617,236.372z"/>
<path fill="#444444" stroke="#444444" stroke-miterlimit="10" d="M280.071,219.472c-4.182-4.095-6.876-9.825-6.876-16.136
	c0-10.963,8.893-19.856,19.855-19.856c5.025,0,8.861,1.968,12.348,5.06l0.014-15.948c-3.814-1.491-7.97-2.389-12.36-2.389
	c-18.332,0-33.122,14.85-33.122,33.133c0,18.316,20.887,39.746,40.113,44.475c6.148,1.547,5.992-7.17,11.033-10.173
	C294.794,233.93,284.13,223.428,280.071,219.472z"/>
<rect x="295.399" y="28.505" fill="#444444" stroke="#444444" stroke-miterlimit="10" width="9.999" height="154.707"/>
<path fill="#444444" stroke="#444444" stroke-miterlimit="10" d="M314.291,31.326c0,1.505-1.258,2.756-2.809,2.756
	c-1.506,0-2.77-1.251-2.77-2.756c0-1.556,1.264-2.821,2.77-2.821C313.035,28.505,314.291,29.77,314.291,31.326z"/>
<path fill="#444444" stroke="#444444" stroke-miterlimit="10" d="M292.085,31.326c0,1.505-1.254,2.756-2.819,2.756
	c-1.554,0-2.772-1.251-2.772-2.756c0-1.556,1.219-2.821,2.772-2.821C290.832,28.505,292.085,29.77,292.085,31.326z"/>
<path fill="#444444" stroke="#444444" stroke-miterlimit="10" d="M314.291,41.217c0,1.552-1.258,2.817-2.809,2.817
	c-1.506,0-2.77-1.265-2.77-2.817c0-1.505,1.264-2.76,2.77-2.76C313.035,38.457,314.291,39.712,314.291,41.217z"/>
<path fill="#444444" stroke="#444444" stroke-miterlimit="10" d="M292.085,41.217c0,1.552-1.254,2.817-2.819,2.817
	c-1.554,0-2.772-1.265-2.772-2.817c0-1.505,1.219-2.76,2.772-2.76C290.832,38.457,292.085,39.712,292.085,41.217z"/>
<path fill="#444444" stroke="#444444" stroke-miterlimit="10" d="M314.291,51.181c0,1.542-1.258,2.807-2.809,2.807
	c-1.506,0-2.77-1.265-2.77-2.807c0-1.565,1.264-2.82,2.77-2.82C313.035,48.361,314.291,49.616,314.291,51.181z"/>
<path fill="#444444" stroke="#444444" stroke-miterlimit="10" d="M292.085,51.181c0,1.542-1.254,2.807-2.819,2.807
	c-1.554,0-2.772-1.265-2.772-2.807c0-1.565,1.219-2.82,2.772-2.82C290.832,48.361,292.085,49.616,292.085,51.181z"/>
<g>
	<g>
		<path fill="#444444" stroke="#444444" stroke-width="10" stroke-miterlimit="10" d="M116.819,114.631
			c1.68,4.108,2.52,8.773,2.52,13.998c0,4.76-0.84,9.379-2.52,13.859c-1.675,4.293-3.957,7.933-6.844,10.918
			c-2.699,3.08-6.144,5.507-10.334,7.279c-3.911,1.771-8.285,2.66-13.128,2.66c-3.258,0-6.33-0.42-9.217-1.26
			c-1.584-0.468-3.049-1.002-4.399-1.61c-1.351-0.605-2.677-1.33-3.98-2.17c-1.303-0.84-2.537-1.75-3.701-2.73
			c-1.164-0.979-2.257-2.122-3.28-3.43c-1.026-1.212-1.934-2.52-2.725-3.92c-0.792-1.399-1.56-2.892-2.304-4.479
			c-0.783-1.585-1.417-3.405-1.907-5.459c-0.49-2.052-0.879-4.151-1.172-6.299c-0.188-0.839-0.304-2.59-0.35-5.25
			c-0.048-2.66-0.118-5.925-0.21-9.799c-0.094-3.872-0.14-8.119-0.14-12.738c0-4.62,0-9.31,0-14.069V53.179h3.359l-0.14,60.333
			c1.396-3.266,3.211-6.159,5.446-8.679s4.703-4.619,7.401-6.299c5.215-3.266,10.987-4.899,17.319-4.899
			c4.934,0,9.357,0.888,13.268,2.66c4.002,1.68,7.447,4.107,10.334,7.28C113.094,106.652,115.327,110.34,116.819,114.631z
			 M114.023,140.948c1.396-3.919,2.095-8.024,2.095-12.319c0-4.291-0.7-8.398-2.095-12.318c-1.398-3.826-3.354-7.231-5.864-10.218
			c-2.515-2.892-5.634-5.272-9.357-7.14c-3.539-1.771-7.636-2.66-12.29-2.66c-4.377,0-8.428,0.84-12.151,2.52
			c-3.724,1.868-6.843,4.199-9.356,6.999c-2.701,2.988-4.796,6.393-6.286,10.219c-1.584,4.014-2.374,8.167-2.374,12.458
			c0,4.293,0.79,8.447,2.374,12.458c1.49,3.827,3.585,7.231,6.286,10.218c2.513,2.8,5.632,5.133,9.356,7
			c3.723,1.679,7.774,2.519,12.151,2.519c4.56,0,8.656-0.84,12.29-2.519c3.723-1.866,6.842-4.2,9.357-7
			C110.67,148.181,112.625,144.776,114.023,140.948z"/>
		<path fill="#444444" stroke="#444444" stroke-width="10" stroke-miterlimit="10" d="M136.835,127.79c0,2.054,0.162,4.06,0.49,6.02
			c0.326,1.959,0.771,3.919,1.33,5.879c1.211,3.92,3.031,7.419,5.459,10.499c2.332,3.08,5.412,5.599,9.239,7.56
			c3.919,1.868,8.306,2.799,13.159,2.799c5.319,0,9.891-1.025,13.719-3.08c4.105-2.146,7.604-5.131,10.499-8.959l2.239,1.96
			c-3.268,4.199-7.047,7.418-11.338,9.659c-4.2,2.146-9.239,3.219-15.118,3.219c-4.947,0-9.379-0.888-13.299-2.66
			c-2.054-0.84-3.919-1.865-5.599-3.08c-1.68-1.212-3.268-2.612-4.759-4.199c-2.988-3.171-5.239-6.951-6.752-11.338
			c-1.658-4.479-2.486-9.239-2.486-14.279c0-4.851,0.829-9.424,2.486-13.718c1.702-4.199,3.953-7.839,6.752-10.919
			c2.799-3.079,6.111-5.411,9.939-6.999c3.919-1.68,8.025-2.52,12.318-2.52c5.226,0,9.751,0.888,13.579,2.66
			c3.826,1.868,7,4.248,9.519,7.139c2.426,2.894,4.292,6.253,5.599,10.079c1.306,3.92,1.96,7.748,1.96,11.479v2.8L136.835,127.79
			L136.835,127.79z M192.548,124.99c-0.188-4.385-0.934-8.259-2.239-11.619c-1.4-3.545-3.268-6.579-5.6-9.099
			c-2.333-2.425-5.179-4.385-8.539-5.879c-3.359-1.4-7.093-2.1-11.198-2.1c-5.04,0-9.287,1.028-12.738,3.08
			c-3.548,2.148-6.439,4.668-8.679,7.559c-1.12,1.588-2.1,3.15-2.939,4.689c-0.839,1.54-1.494,3.15-1.96,4.83
			c-0.56,1.588-0.958,3.104-1.189,4.549c-0.235,1.448-0.35,2.778-0.35,3.99H192.548L192.548,124.99z"/>
		<path fill="#444444" stroke="#444444" stroke-width="10" stroke-miterlimit="10" d="M213.966,142.348
			c-1.588-4.479-2.379-9.145-2.379-13.998c0-4.759,0.792-9.379,2.379-13.858c1.68-4.292,3.965-7.931,6.859-10.919
			c2.892-3.171,6.345-5.599,10.359-7.279c3.919-1.772,8.351-2.66,13.299-2.66c3.08,0,6.11,0.42,9.099,1.26
			c3.08,0.84,5.879,2.1,8.399,3.779c1.306,0.84,2.542,1.75,3.709,2.73c1.166,0.98,2.263,2.124,3.29,3.43
			c1.025,1.213,1.96,2.52,2.799,3.919c0.84,1.4,1.633,2.894,2.381,4.48c0.651,1.588,1.234,3.407,1.75,5.459
			c0.512,2.054,0.909,4.153,1.188,6.299c0.092,0.84,0.187,2.008,0.28,3.5c0.091,1.494,0.162,3.173,0.209,5.039
			c0.047,1.868,0.07,3.85,0.07,5.95c0,2.099,0,4.177,0,6.229c0,4.853-0.049,10.079-0.14,15.678h-3.36l0.42-17.917
			c-1.399,3.268-3.219,6.16-5.459,8.68s-4.668,4.619-7.279,6.299c-5.414,3.266-11.198,4.9-17.357,4.9
			c-5.04,0-9.52-0.888-13.438-2.66c-4.014-1.68-7.467-4.105-10.358-7.279C217.697,150.327,215.458,146.642,213.966,142.348z
			 M216.765,116.031c-1.308,4.108-1.959,8.213-1.959,12.319c0,4.108,0.652,8.213,1.959,12.318c1.4,3.919,3.405,7.327,6.02,10.219
			c1.306,1.588,2.729,2.94,4.27,4.061c1.54,1.12,3.242,2.147,5.109,3.08c3.545,1.774,7.651,2.66,12.319,2.66
			c4.386,0,8.399-0.84,12.038-2.52c1.866-0.932,3.591-1.959,5.18-3.08c1.584-1.12,3.03-2.425,4.338-3.92
			c2.705-2.985,4.805-6.391,6.299-10.219c0.746-1.959,1.307-3.989,1.681-6.089c0.372-2.1,0.56-4.221,0.56-6.369
			c0-2.146-0.188-4.271-0.56-6.37c-0.374-2.1-0.935-4.129-1.681-6.089c-1.494-3.826-3.594-7.231-6.299-10.219
			c-1.308-1.491-2.754-2.799-4.338-3.919c-1.589-1.119-3.313-2.146-5.18-3.08c-3.639-1.68-7.652-2.52-12.038-2.52
			c-4.574,0-8.679,0.84-12.319,2.52c-3.827,1.868-6.954,4.2-9.379,6.999C220.17,108.706,218.166,112.111,216.765,116.031z"/>
	</g>
	<g>
		<path fill="#444444" stroke="#444444" stroke-width="10" stroke-miterlimit="10" d="M368.533,195.15
			c0.078,1.091,0.154,2.565,0.232,4.433s0.137,3.928,0.178,6.184c0.037,2.257,0.076,4.55,0.115,6.882
			c0.039,2.333,0.059,4.491,0.059,6.474c0,1.983,0,3.637,0,4.959s0,2.101,0,2.332v0.116h-2.684v-15.397v-12.016
			c0-4.043-0.545-7.816-1.633-11.314c-0.623-1.633-1.322-3.15-2.1-4.551c-0.779-1.399-1.633-2.683-2.566-3.85
			c-1.867-2.1-4.162-3.888-6.883-5.366c-2.645-1.321-5.074-1.904-7.291-1.75c-2.215,0.157-4.686,0.779-7.408,1.867
			c-1.322,0.545-2.547,1.284-3.674,2.217c-1.127,0.933-2.199,1.945-3.207,3.033c-1.945,2.256-3.5,5.056-4.668,8.399
			c-1.166,3.423-1.75,7.193-1.75,11.314v27.414h-2.566v-0.117c0-0.231,0-1.009,0-2.332c0-1.322,0-2.976,0-4.959
			c0-1.982,0.02-4.142,0.059-6.475s0.078-4.625,0.117-6.882c0.039-2.255,0.098-4.315,0.176-6.183
			c0.076-1.867,0.154-3.342,0.232-4.434c0.154-1.709,0.447-3.383,0.875-5.016c0.426-1.633,0.912-3.149,1.457-4.549
			c0.543-1.399,1.107-2.644,1.691-3.733c0.584-1.088,1.109-1.943,1.576-2.566c0.775-1.01,1.592-1.925,2.449-2.742
			c0.854-0.816,1.75-1.575,2.684-2.275c1.865-1.399,3.924-2.45,6.182-3.149c2.178-0.7,4.121-1.05,5.832-1.05s3.576,0.35,5.602,1.05
			c2.1,0.623,4.158,1.673,6.182,3.149c0.934,0.7,1.826,1.458,2.684,2.275c0.855,0.816,1.672,1.732,2.449,2.742
			c0.467,0.623,0.992,1.478,1.574,2.566c0.584,1.09,1.146,2.333,1.691,3.733c0.543,1.399,1.031,2.916,1.459,4.549
			C368.083,191.767,368.376,193.44,368.533,195.15z"/>
		<path fill="#444444" stroke="#444444" stroke-width="10" stroke-miterlimit="10" d="M391.046,151.172
			c-0.777,0-1.438-0.271-1.982-0.817c-0.545-0.7-0.816-1.438-0.816-2.216c0-0.776,0.271-1.517,0.816-2.217
			c0.543-0.542,1.205-0.816,1.982-0.816c0.701,0,1.322,0.274,1.867,0.816c0.543,0.545,0.818,1.284,0.818,2.217
			s-0.275,1.673-0.818,2.216C392.291,150.9,391.669,151.172,391.046,151.172z M389.648,226.646v-54.827h2.682v54.827H389.648
			L389.648,226.646z"/>
		<path fill="#444444" stroke="#444444" stroke-width="10" stroke-miterlimit="10" d="M438.056,137.874
			c-0.391-0.155-0.799-0.251-1.225-0.292c-0.428-0.039-0.836-0.097-1.225-0.175c-0.391-0.077-0.799-0.117-1.227-0.117
			c-0.426,0-0.836,0-1.225,0c-2.256,0-4.082,0.429-5.482,1.283c-1.398,0.778-2.605,1.907-3.615,3.383
			c-1.012,1.478-1.674,3.033-1.984,4.666c-0.232,0.856-0.391,1.75-0.465,2.683c-0.08,0.934-0.117,1.828-0.117,2.683v19.831h14.932
			v2.216h-14.932v52.61h-2.684v-52.61l-0.117-2.216v-19.714c0-3.188,0.445-5.95,1.342-8.283c0.809-2.176,1.957-3.926,3.441-5.25
			c1.477-1.321,2.992-2.216,4.549-2.683c1.557-0.543,3.227-0.816,5.018-0.816c2.02,0,3.848,0.233,5.48,0.7L438.056,137.874z"/>
		<path fill="#444444" stroke="#444444" stroke-width="10" stroke-miterlimit="10" d="M479.703,137.874
			c-0.391-0.155-0.797-0.251-1.225-0.292c-0.43-0.039-0.836-0.097-1.225-0.175c-0.391-0.077-0.799-0.117-1.225-0.117
			c-0.43,0-0.836,0-1.227,0c-2.256,0-4.082,0.429-5.482,1.283c-1.4,0.778-2.605,1.907-3.615,3.383
			c-1.012,1.478-1.672,3.033-1.984,4.666c-0.232,0.856-0.389,1.75-0.467,2.683c-0.078,0.934-0.115,1.828-0.115,2.683v19.831h14.932
			v2.216h-14.932v52.61h-2.684v-52.61l-0.117-2.216v-19.714c0-3.188,0.447-5.95,1.34-8.283c0.811-2.176,1.957-3.926,3.443-5.25
			c1.477-1.321,2.992-2.216,4.549-2.683c1.557-0.543,3.227-0.816,5.018-0.816c2.021,0,3.85,0.233,5.482,0.7L479.703,137.874z"/>
	</g>
</g>
</svg>
