<?xml version="1.0" encoding="utf-8"?>
<!-- Generator: Adobe Illustrator 16.0.0, SVG Export Plug-In . SVG Version: 6.00 Build 0)  -->
<!DOCTYPE svg PUBLIC "-//W3C//DTD SVG 1.1//EN" "http://www.w3.org/Graphics/SVG/1.1/DTD/svg11.dtd">
<svg version="1.1" id="Layer_1" xmlns="http://www.w3.org/2000/svg" xmlns:xlink="http://www.w3.org/1999/xlink" x="0px" y="0px"
	 width="467.667px" height="114.334px" viewBox="-178.5 -39.5 467.667 114.334"
	 enable-background="new -178.5 -39.5 467.667 114.334" xml:space="preserve">
<path fill="#888888" d="M284.5,58.628c0,6.045-4.066,10.931-9.085,10.931H-159.75c-5.016,0-9.083-4.886-9.083-10.931v-82.205
	c0-6.032,4.066-10.923,9.083-10.923h435.166c5.019,0,9.085,4.891,9.085,10.923V58.628z"/>
<g>
	<path fill="#FFFFFF" stroke="#FFFFFF" stroke-width="2" stroke-miterlimit="10" d="M26.738,21.219
		c0.707,1.73,1.058,3.684,1.058,5.883c0,2.002-0.351,3.942-1.058,5.824c-0.706,1.801-1.661,3.336-2.875,4.588
		c-1.137,1.293-2.584,2.31-4.342,3.062c-1.645,0.744-3.483,1.115-5.52,1.115c-1.366,0-2.66-0.179-3.874-0.534
		c-0.665-0.193-1.277-0.419-1.845-0.668c-0.569-0.26-1.125-0.559-1.673-0.913c-0.548-0.356-1.063-0.735-1.556-1.147
		c-0.488-0.412-0.947-0.897-1.378-1.447c-0.432-0.508-0.812-1.058-1.146-1.638c-0.331-0.591-0.652-1.221-0.968-1.883
		c-0.327-0.671-0.595-1.438-0.801-2.294c-0.206-0.864-0.369-1.744-0.49-2.649c-0.082-0.355-0.13-1.092-0.15-2.206
		c-0.016-1.114-0.048-2.487-0.084-4.121c-0.041-1.627-0.061-3.409-0.061-5.352c0-1.938,0-3.909,0-5.914V-4.602H1.39L1.328,20.744
		c0.583-1.366,1.35-2.582,2.29-3.646c0.94-1.059,1.975-1.938,3.107-2.645c2.193-1.373,4.616-2.054,7.276-2.054
		c2.077,0,3.936,0.371,5.576,1.114c1.68,0.707,3.127,1.725,4.341,3.057C25.173,17.867,26.112,19.414,26.738,21.219z M25.563,32.278
		c0.583-1.648,0.878-3.379,0.878-5.179s-0.295-3.53-0.878-5.176c-0.589-1.605-1.408-3.04-2.462-4.291
		c-1.062-1.215-2.372-2.217-3.936-3.001c-1.488-0.748-3.209-1.119-5.165-1.119c-1.838,0-3.54,0.355-5.103,1.058
		c-1.569,0.789-2.879,1.766-3.936,2.946c-1.133,1.251-2.012,2.686-2.64,4.292c-0.666,1.689-0.995,3.437-0.995,5.236
		c0,1.801,0.329,3.546,0.995,5.234c0.628,1.608,1.508,3.037,2.64,4.288c1.056,1.18,2.366,2.157,3.936,2.951
		c1.563,0.701,3.265,1.056,5.103,1.056c1.919,0,3.641-0.354,5.165-1.056c1.563-0.794,2.874-1.771,3.936-2.951
		C24.157,35.315,24.974,33.887,25.563,32.278z"/>
	<path fill="#FFFFFF" stroke="#FFFFFF" stroke-width="2" stroke-miterlimit="10" d="M35.15,26.744c0,0.865,0.068,1.714,0.206,2.538
		c0.137,0.824,0.323,1.638,0.557,2.463c0.508,1.648,1.271,3.119,2.294,4.421c0.981,1.292,2.273,2.35,3.881,3.173
		c1.648,0.784,3.49,1.17,5.529,1.17c2.233,0,4.156-0.426,5.764-1.292c1.724-0.905,3.194-2.156,4.41-3.764l0.941,0.824
		c-1.37,1.771-2.962,3.118-4.762,4.064c-1.765,0.896-3.881,1.349-6.354,1.349c-2.08,0-3.942-0.371-5.59-1.115
		c-0.86-0.354-1.644-0.781-2.351-1.302c-0.707-0.507-1.374-1.087-2-1.76c-1.257-1.332-2.201-2.925-2.839-4.766
		c-0.695-1.883-1.042-3.877-1.042-6.003c0-2.034,0.347-3.957,1.042-5.759c0.714-1.765,1.664-3.296,2.839-4.588
		c1.175-1.298,2.568-2.273,4.177-2.94c1.648-0.708,3.373-1.058,5.173-1.058c2.198,0,4.1,0.371,5.708,1.114
		c1.607,0.783,2.94,1.786,3.999,3.001c1.022,1.216,1.806,2.631,2.355,4.231c0.549,1.654,0.824,3.263,0.824,4.828v1.171L35.15,26.744
		L35.15,26.744z M58.562,25.573c-0.082-1.841-0.392-3.474-0.941-4.884c-0.59-1.489-1.375-2.767-2.355-3.823
		c-0.982-1.019-2.177-1.842-3.586-2.468c-1.414-0.59-2.981-0.884-4.706-0.884c-2.116,0-3.902,0.433-5.352,1.297
		c-1.491,0.901-2.706,1.959-3.647,3.174c-0.473,0.666-0.885,1.325-1.236,1.971c-0.355,0.647-0.631,1.326-0.824,2.031
		c-0.234,0.664-0.405,1.302-0.501,1.906c-0.097,0.617-0.145,1.173-0.145,1.682L58.562,25.573L58.562,25.573z"/>
	<path fill="#FFFFFF" stroke="#FFFFFF" stroke-width="2" stroke-miterlimit="10" d="M67.561,32.868
		c-0.667-1.882-1.002-3.845-1.002-5.881c0-2.004,0.335-3.942,1.002-5.83c0.707-1.801,1.668-3.331,2.884-4.588
		c1.21-1.332,2.665-2.35,4.349-3.057c1.648-0.743,3.51-1.119,5.591-1.119c1.292,0,2.568,0.178,3.82,0.534
		c1.297,0.351,2.472,0.879,3.53,1.586c0.549,0.351,1.07,0.735,1.56,1.147c0.488,0.412,0.948,0.894,1.381,1.437
		c0.432,0.513,0.824,1.063,1.18,1.648c0.352,0.59,0.682,1.216,0.998,1.883c0.273,0.667,0.521,1.431,0.734,2.293
		c0.213,0.866,0.385,1.746,0.502,2.65c0.039,0.346,0.076,0.841,0.116,1.471c0.04,0.621,0.068,1.331,0.089,2.114
		c0.02,0.785,0.027,1.617,0.027,2.496c0,0.89,0,1.763,0,2.617c0,2.047-0.02,4.243-0.055,6.593h-1.414l0.178-7.528
		c-0.59,1.373-1.354,2.582-2.294,3.642c-0.941,1.06-1.964,1.948-3.058,2.65c-2.278,1.374-4.71,2.059-7.294,2.059
		c-2.121,0-4.003-0.371-5.646-1.113c-1.689-0.713-3.14-1.729-4.354-3.063C69.127,36.221,68.186,34.67,67.561,32.868z M68.736,21.81
		c-0.55,1.721-0.824,3.449-0.824,5.178c0,1.722,0.274,3.449,0.824,5.17c0.59,1.648,1.434,3.078,2.528,4.297
		c0.549,0.663,1.147,1.237,1.798,1.704c0.646,0.469,1.36,0.907,2.145,1.294c1.49,0.752,3.214,1.123,5.178,1.123
		c1.841,0,3.525-0.355,5.057-1.057c0.783-0.397,1.51-0.826,2.177-1.303c0.666-0.47,1.271-1.018,1.821-1.649
		c1.139-1.25,2.02-2.68,2.65-4.287c0.31-0.825,0.549-1.682,0.702-2.562c0.158-0.879,0.239-1.769,0.239-2.673
		c0-0.905-0.082-1.793-0.239-2.675c-0.153-0.889-0.392-1.735-0.702-2.561c-0.631-1.608-1.511-3.042-2.65-4.292
		c-0.55-0.63-1.155-1.18-1.821-1.648c-0.667-0.473-1.395-0.9-2.177-1.297c-1.531-0.703-3.216-1.058-5.057-1.058
		c-1.923,0-3.647,0.355-5.178,1.058c-1.609,0.789-2.921,1.766-3.943,2.946C70.17,18.727,69.325,20.161,68.736,21.81z"/>
	<path fill="#FFFFFF" stroke="#FFFFFF" stroke-width="2" stroke-miterlimit="10" d="M111.38,41.333
		c-0.661,0.122-1.292,0.179-1.882,0.179c-2.193,0-3.725-0.606-4.589-1.826c-0.937-1.211-1.409-2.736-1.409-4.589l-0.061-30.054
		h1.354v8.118h8.124v1.119h-8.124v20.816c0,1.923,0.452,3.282,1.354,4.064c0.941,0.823,2.156,1.235,3.652,1.235
		c1.13,0,2.172-0.178,3.118-0.533l0.169,1.002c-0.235,0.122-0.492,0.211-0.792,0.267C112.003,41.188,111.695,41.261,111.38,41.333z"
		/>
	<path fill="#FFFFFF" stroke="#FFFFFF" stroke-width="2" stroke-miterlimit="10" d="M139.612,33.57c0,1.252-0.233,2.376-0.702,3.353
		c-0.507,0.986-1.18,1.827-2.003,2.529c-0.856,0.671-1.801,1.181-2.819,1.535c-1.141,0.346-2.32,0.524-3.53,0.524
		c-1.019,0-1.987-0.09-2.906-0.267c-0.933-0.169-1.793-0.476-2.619-0.914c-1.729-0.782-3.102-1.912-4.12-3.408l1.059-0.758
		c1.994,2.818,4.903,4.231,8.708,4.231c0.429,0,0.874-0.031,1.315-0.088c0.454-0.057,0.897-0.171,1.326-0.324
		c0.946-0.314,1.771-0.742,2.474-1.292c0.742-0.549,1.357-1.235,1.825-2.06c0.428-0.945,0.646-1.922,0.646-2.94
		c0-1.26-0.301-2.294-0.88-3.118c-0.509-0.742-1.236-1.373-2.183-1.883c-0.427-0.275-0.879-0.502-1.349-0.679
		c-0.468-0.18-0.986-0.338-1.536-0.501c-0.541-0.153-1.066-0.297-1.549-0.446c-0.494-0.137-0.979-0.257-1.447-0.379
		c-0.509-0.152-1.001-0.296-1.471-0.435c-0.467-0.138-0.921-0.308-1.348-0.502c-0.945-0.355-1.714-0.783-2.294-1.303
		c-0.63-0.549-1.164-1.226-1.593-2.051c-0.396-0.863-0.59-1.865-0.59-3.005c0-1.215,0.26-2.253,0.769-3.113
		c0.429-0.825,1.059-1.552,1.883-2.177c0.428-0.315,0.864-0.577,1.292-0.796c0.438-0.213,0.921-0.399,1.471-0.558
		c0.944-0.274,1.964-0.411,3.062-0.411c3.845,0,6.681,1.332,8.532,3.999l-1.181,0.646c-0.978-1.215-2.02-2.096-3.119-2.646
		c-1.18-0.59-2.584-0.879-4.233-0.879c-0.671,0-1.454,0.097-2.359,0.29c-0.937,0.239-1.72,0.57-2.351,1.002
		c-0.743,0.508-1.309,1.119-1.704,1.821c-0.468,0.789-0.702,1.709-0.702,2.767c0,1.257,0.192,2.212,0.591,2.884
		c0.346,0.702,0.878,1.293,1.58,1.761c0.316,0.194,0.68,0.396,1.093,0.591c0.411,0.193,0.873,0.371,1.381,0.533
		c0.935,0.306,1.993,0.605,3.173,0.881c0.551,0.111,1.084,0.249,1.593,0.41c0.508,0.153,1.017,0.332,1.526,0.524
		c1.017,0.398,1.922,0.865,2.706,1.414c0.742,0.55,1.373,1.252,1.882,2.115C139.379,31.357,139.612,32.391,139.612,33.57z"/>
	<path fill="#FFFFFF" stroke="#FFFFFF" stroke-width="2" stroke-miterlimit="10" d="M170.796,24.983
		c0.029,0.551,0.072,1.293,0.112,2.238c0.039,0.936,0.073,1.979,0.088,3.119c0.016,1.131,0.041,2.293,0.058,3.465
		c0.025,1.181,0.032,2.271,0.032,3.264c0,1.002,0,1.833,0,2.505c0,0.662,0,1.059,0,1.17v0.066h-1.359v-7.763v-6.059
		c0-2.044-0.275-3.942-0.814-5.708c-0.316-0.824-0.67-1.591-1.059-2.294c-0.396-0.708-0.823-1.354-1.301-1.943
		c-0.936-1.059-2.093-1.958-3.465-2.706c-1.333-0.666-2.561-0.961-3.675-0.879c-1.124,0.076-2.37,0.392-3.742,0.94
		c-0.662,0.274-1.284,0.646-1.849,1.114c-0.575,0.473-1.107,0.982-1.617,1.531c-0.986,1.14-1.769,2.549-2.359,4.237
		c-0.59,1.727-0.879,3.623-0.879,5.708v13.822h-1.293v-0.057c0-0.121,0-0.517,0-1.18c0-0.673,0-1.503,0-2.505
		c0-0.993,0.008-2.083,0.032-3.265c0.015-1.17,0.03-2.333,0.056-3.465c0.017-1.139,0.049-2.181,0.09-3.118
		c0.04-0.946,0.071-1.688,0.112-2.238c0.081-0.863,0.226-1.704,0.444-2.528c0.22-0.825,0.46-1.587,0.735-2.295
		c0.273-0.706,0.559-1.331,0.847-1.882c0.301-0.549,0.567-0.982,0.802-1.297c0.387-0.508,0.798-0.969,1.235-1.381
		c0.427-0.412,0.881-0.791,1.35-1.147c0.944-0.707,1.979-1.236,3.118-1.587c1.098-0.35,2.075-0.527,2.941-0.527
		c0.863,0,1.808,0.178,2.827,0.527c1.058,0.316,2.091,0.845,3.118,1.587c0.469,0.356,0.92,0.735,1.349,1.147
		c0.438,0.412,0.848,0.874,1.236,1.381c0.234,0.315,0.502,0.748,0.791,1.297c0.3,0.551,0.581,1.176,0.856,1.882
		c0.274,0.708,0.517,1.47,0.735,2.295C170.568,23.279,170.714,24.12,170.796,24.983z"/>
	<path fill="#FFFFFF" stroke="#FFFFFF" stroke-width="2" stroke-miterlimit="10" d="M182.145,2.81c-0.397,0-0.728-0.137-1.002-0.412
		c-0.274-0.356-0.412-0.727-0.412-1.119c0-0.391,0.138-0.763,0.412-1.119c0.274-0.274,0.605-0.412,1.002-0.412
		c0.355,0,0.661,0.137,0.936,0.412c0.275,0.275,0.412,0.651,0.412,1.119c0,0.473-0.137,0.845-0.412,1.119
		C182.774,2.673,182.46,2.81,182.145,2.81z M181.441,40.865V13.218h1.349v27.647H181.441z"/>
	<path fill="#FFFFFF" stroke="#FFFFFF" stroke-width="2" stroke-miterlimit="10" d="M205.844-3.895
		c-0.192-0.081-0.394-0.129-0.611-0.15c-0.219-0.02-0.42-0.048-0.624-0.089c-0.192-0.035-0.395-0.056-0.612-0.056s-0.419,0-0.612,0
		c-1.141,0-2.06,0.214-2.772,0.646c-0.702,0.392-1.308,0.962-1.816,1.704c-0.508,0.748-0.85,1.532-1.002,2.356
		c-0.122,0.433-0.193,0.88-0.233,1.353c-0.041,0.468-0.065,0.921-0.065,1.353v9.997h7.537v1.119h-7.537v26.529h-1.35V14.336
		l-0.057-1.119v-9.94c0-1.607,0.226-2.996,0.669-4.176c0.409-1.099,0.992-1.979,1.736-2.646c0.744-0.666,1.512-1.119,2.295-1.353
		c0.782-0.274,1.632-0.412,2.529-0.412c1.017,0,1.947,0.117,2.771,0.351L205.844-3.895z"/>
	<path fill="#FFFFFF" stroke="#FFFFFF" stroke-width="2" stroke-miterlimit="10" d="M226.848-3.895
		c-0.193-0.081-0.404-0.129-0.622-0.15c-0.209-0.02-0.421-0.048-0.613-0.089C225.418-4.169,225.208-4.19,225-4.19
		c-0.22,0-0.43,0-0.623,0c-1.14,0-2.061,0.214-2.762,0.646c-0.713,0.392-1.317,0.962-1.827,1.704
		c-0.509,0.748-0.84,1.532-1.002,2.356c-0.112,0.433-0.192,0.88-0.233,1.353c-0.041,0.468-0.057,0.921-0.057,1.353v9.997h7.529
		v1.119h-7.529v26.529h-1.359V14.336l-0.056-1.119v-9.94c0-1.607,0.227-2.996,0.679-4.176c0.408-1.099,0.981-1.979,1.737-2.646
		c0.742-0.666,1.511-1.119,2.293-1.353c0.783-0.274,1.623-0.412,2.53-0.412c1.017,0,1.938,0.117,2.762,0.351L226.848-3.895z"/>
</g>
<path fill="#FFFFFF" d="M-56.749,37.18c-3.822,6.229-10.063,10.131-17.426,10.131c-7.328,0-13.766-3.929-17.6-10.131H-56.749z"/>
<path fill="#FFFFFF" d="M-73.865,16.86c-0.413,0.001-0.824,0.013-1.242,0.013c-19.704,0-34.728-5.625-34.728-2.344
	c0,7.362-3.017,18.93,16.682,19.502c8.935,0.249,13.188-5.698,15.171-12.262c0.3-0.98,2.206-1.447,4.083-1.371
	c0.019-0.065,0.055-0.129,0.073-0.194C-73.918,19.607-73.918,17.372-73.865,16.86z"/>
<path fill="#FFFFFF" d="M-37.585-1.88c0,1.857,2.663,19.342-1.905,18.733c-9.732-1.292-31.55-23.257-36.146-21.455
	c-2.623,1.03,4.58,8.426,17.593,17.404C-77.122,6.955-88.814-6.418-89.765-6.375c-1.557,0.074,4.959,9.117,18.21,18.91
	c-23.042-4.492-26.973-12.341-33.2-14.554c-1.171-0.415,4.4,7.545,3.343,7.073c-6.75-3.06-9.797-2.247-9.797-6.933
	c0-9.32,16.771-7.344,37.105-7.344C-53.778-9.224-37.585-11.2-37.585-1.88z"/>
<path fill="#FFFFFF" d="M-74.451,16.86c0.413,0.001,0.822,0.013,1.241,0.013c19.705,0,34.725-5.625,34.725-2.344
	c0,7.362,3.021,18.93-16.681,19.502c-8.929,0.249-13.184-5.698-15.169-12.262c-0.298-0.98-2.204-1.447-4.071-1.371
	c-0.028-0.065-0.055-0.129-0.081-0.194C-74.398,19.607-74.398,17.372-74.451,16.86z"/>
<path fill="#FFFFFF" d="M-126.638,25.64h10.629V7.017c0-3.213-0.461-5.828-3.395-5.828l0,0c-2.931,0-7.234-1.179-7.234,5.828V25.64z
	"/>
<path fill="#FFFFFF" d="M-32.266,25.646h10.628V7.036c-0.122-7.18-4.195-5.834-7.127-5.834l0,0c-2.935,0-3.501,2.613-3.501,5.834
	V25.646z"/>
<path fill="#FFFFFF" d="M-32.344,25.646h4.289l-0.029-29.278c0-7.265-5.359-13.155-11.977-13.155h-68.395
	c-6.627,0-11.988,5.89-11.988,13.155l-0.05,29.309h4.485l0.055-26.23c0-6.492,4.858-11.742,10.849-11.742h61.915
	c5.986,0,10.846,5.25,10.846,11.742V25.646z"/>
<path fill="#FFFFFF" d="M-45.899-10.316h-56.499c-5.474,0-9.896,4.862-9.896,10.861v40.293c0,5.983,4.422,10.861,9.896,10.861
	h56.499c5.462,0,9.903-4.878,9.903-10.861V0.545C-35.997-5.454-40.438-10.316-45.899-10.316z M-39.95,38.754
	c0,5.369-3.979,9.743-8.873,9.743h-50.653c-4.902,0-8.868-4.374-8.868-9.743V2.638c0-5.383,3.966-9.744,8.868-9.744h50.653
	c4.894,0,8.873,4.361,8.873,9.744V38.754z"/>
</svg>
