<?xml version="1.0" encoding="utf-8"?>
<!-- Generator: Adobe Illustrator 16.0.0, SVG Export Plug-In . SVG Version: 6.00 Build 0)  -->
<!DOCTYPE svg PUBLIC "-//W3C//DTD SVG 1.1//EN" "http://www.w3.org/Graphics/SVG/1.1/DTD/svg11.dtd">
<svg version="1.1" id="Layer_1" xmlns="http://www.w3.org/2000/svg" xmlns:xlink="http://www.w3.org/1999/xlink" x="0px" y="0px"
	 width="100px" height="100px" viewBox="0 0 100 100" enable-background="new 0 0 100 100" xml:space="preserve">
<g>
	<g>
		<g>
			<path fill="#454545" d="M49.733,43.583c-0.763,0-1.587,0.317-2.322,0.471c-0.058,0.18,0.599,1.026,4.484,2.025
				c3.517,0.936,6.372,4.008,6.372,7.694c0,4.405-4.123,7.003-8.534,7.003c-4.4,0-8.531-2.598-8.531-7.003
				c0-3.85,3.129-7.065,6.852-7.814c0.044,0,0.071-0.007,0.101-0.028c0.043-0.01-0.149-0.65-0.601-1.157
				c-0.369-0.397-1.017-0.698-1.028-0.693c-0.031,0.006-0.067,0.033-0.105,0.038c-4.171,1.351-7.418,5.165-7.418,9.655
				c0,5.624,5.112,9.213,10.732,9.213c5.635,0,10.739-3.589,10.739-9.213C60.473,48.136,55.368,43.583,49.733,43.583z"/>
		</g>
		<g>
			<path fill="#454545" d="M49.733,63.072c-2.849,0-5.52-0.895-7.521-2.516c-2.126-1.713-3.294-4.126-3.294-6.783
				c0-4.293,3.072-8.304,7.471-9.736c0.026-0.005,0.036-0.01,0.052-0.015c0.022-0.012,0.043-0.017,0.063-0.026
				c0.012,0,0.012,0,0.012,0c0.074,0,0.724,0.328,1.095,0.72c0.417,0.463,0.669,1.114,0.628,1.235L48.217,46l-0.026,0.005
				c-0.045,0.021-0.088,0.031-0.131,0.036c-3.855,0.785-6.778,4.104-6.778,7.732c0,4.492,4.359,6.925,8.452,6.925
				c4.097,0,8.465-2.433,8.465-6.925c0-3.437-2.657-6.636-6.312-7.615c-3.719-0.946-4.391-1.728-4.518-1.947
				c-0.042-0.072-0.042-0.131-0.03-0.18l0.015-0.048l0.044-0.01c0.229-0.048,0.445-0.105,0.684-0.168
				c0.548-0.149,1.111-0.297,1.652-0.297c2.75,0,5.494,1.084,7.541,2.993c2.119,1.972,3.287,4.553,3.287,7.271
				c0,2.657-1.168,5.07-3.287,6.783C55.271,62.178,52.58,63.072,49.733,63.072z M46.525,44.171c-0.01,0-0.01,0-0.01,0.004
				c-0.021,0.005-0.052,0.02-0.086,0.026c-4.319,1.407-7.348,5.345-7.348,9.571c0,5.932,5.494,9.131,10.653,9.131
				c5.166,0,10.653-3.199,10.653-9.131c0-2.677-1.135-5.215-3.221-7.149c-2.021-1.872-4.728-2.957-7.433-2.957
				c-0.52,0-1.074,0.154-1.609,0.297c-0.211,0.053-0.417,0.111-0.613,0.154c0.084,0.226,0.969,0.998,4.417,1.876
				c3.721,0.999,6.428,4.267,6.428,7.778c0,2.102-0.914,3.911-2.646,5.22c-1.592,1.207-3.711,1.865-5.977,1.865
				c-2.268,0-4.377-0.658-5.974-1.865c-1.73-1.309-2.641-3.125-2.641-5.22c0-3.708,2.971-7.097,6.913-7.896
				c0.022,0,0.028-0.005,0.037-0.005c-0.028-0.159-0.221-0.641-0.586-1.042C47.169,44.472,46.631,44.217,46.525,44.171z"/>
		</g>
	</g>
	<g>
		<g>
			<path fill="#454545" d="M46.652,40.776c-0.7-0.687-1.145-1.639-1.145-2.682c0-1.824,1.478-3.308,3.301-3.308
				c0.841,0,1.477,0.333,2.057,0.846v-2.654c-0.633-0.249-1.327-0.396-2.057-0.396c-3.04,0-5.509,2.462-5.509,5.512
				c0,3.043,3.467,6.611,6.674,7.393c1.024,0.259,0.998-1.189,1.84-1.687C49.1,43.183,47.327,41.438,46.652,40.776z"/>
		</g>
		<g>
			<path fill="#454545" d="M50.199,45.604L50.199,45.604c-0.072,0-0.164-0.017-0.247-0.038c-3.058-0.747-6.732-4.247-6.732-7.472
				c0-3.092,2.513-5.602,5.589-5.602c0.704,0,1.402,0.144,2.089,0.408l0.052,0.021v2.896l-0.142-0.122
				c-0.636-0.566-1.27-0.826-2-0.826c-1.769,0-3.211,1.444-3.211,3.224c0,0.964,0.399,1.926,1.117,2.628l0.012,0.011
				c0.671,0.653,2.438,2.375,5.104,2.983l0.193,0.048l-0.172,0.105c-0.326,0.189-0.521,0.54-0.695,0.883
				C50.914,45.191,50.691,45.604,50.199,45.604z M48.809,32.664c-2.984,0-5.425,2.434-5.425,5.43c0,2.875,3.278,6.495,6.611,7.309
				c0.072,0.021,0.142,0.026,0.204,0.026c0.394,0,0.588-0.354,0.804-0.756c0.154-0.29,0.339-0.614,0.608-0.84
				c-2.612-0.646-4.344-2.337-5.002-2.978l-0.01-0.02c-0.746-0.731-1.173-1.729-1.173-2.741c0-1.872,1.515-3.387,3.383-3.387
				c0.725,0,1.349,0.233,1.968,0.746l0.01-2.417C50.137,32.787,49.47,32.664,48.809,32.664z"/>
		</g>
	</g>
	<g>
		<g>
			<rect x="49.201" y="9.017" fill="#454545" width="1.665" height="25.726"/>
		</g>
		<g>
			<path fill="#454545" d="M50.95,34.829h-1.829V8.932h1.829V34.829z M49.285,34.665h1.493V9.1h-1.493V34.665z"/>
		</g>
	</g>
	<g>
		<g>
			<path fill="#454545" d="M52.342,9.482c0,0.253-0.201,0.459-0.472,0.459c-0.241,0-0.452-0.206-0.452-0.459
				c0-0.254,0.211-0.465,0.452-0.465C52.141,9.017,52.342,9.228,52.342,9.482z"/>
		</g>
		<g>
			<path fill="#454545" d="M51.87,10.026c-0.284,0-0.539-0.249-0.539-0.544c0-0.301,0.238-0.55,0.539-0.55
				c0.313,0,0.559,0.25,0.559,0.55C52.429,9.783,52.184,10.026,51.87,10.026z M51.87,9.1c-0.202,0-0.37,0.176-0.37,0.382
				c0,0.207,0.168,0.381,0.37,0.381c0.211,0,0.384-0.17,0.384-0.381C52.254,9.276,52.081,9.1,51.87,9.1z"/>
		</g>
	</g>
	<g>
		<g>
			<path fill="#454545" d="M48.651,9.482c0,0.253-0.211,0.459-0.469,0.459c-0.264,0-0.458-0.206-0.458-0.459
				c0-0.254,0.199-0.465,0.458-0.465C48.44,9.017,48.651,9.228,48.651,9.482z"/>
		</g>
		<g>
			<path fill="#454545" d="M48.182,10.026c-0.298,0-0.544-0.243-0.544-0.544c0-0.301,0.246-0.55,0.544-0.55
				c0.307,0,0.548,0.25,0.548,0.55C48.73,9.783,48.489,10.026,48.182,10.026z M48.182,9.1c-0.213,0-0.378,0.165-0.378,0.382
				c0,0.211,0.173,0.381,0.378,0.381c0.215,0,0.384-0.17,0.384-0.381C48.566,9.276,48.397,9.1,48.182,9.1z"/>
		</g>
	</g>
	<g>
		<g>
			<path fill="#454545" d="M52.342,11.13c0,0.257-0.201,0.472-0.472,0.472c-0.241,0-0.452-0.215-0.452-0.472
				c0-0.248,0.211-0.458,0.452-0.458C52.141,10.672,52.342,10.882,52.342,11.13z"/>
		</g>
		<g>
			<path fill="#454545" d="M51.87,11.68c-0.301,0-0.539-0.248-0.539-0.549c0-0.295,0.255-0.543,0.539-0.543
				c0.313,0,0.559,0.244,0.559,0.543C52.429,11.432,52.184,11.68,51.87,11.68z M51.87,10.756c-0.202,0-0.37,0.175-0.37,0.374
				c0,0.213,0.168,0.386,0.37,0.386c0.211,0,0.384-0.173,0.384-0.386C52.254,10.926,52.081,10.756,51.87,10.756z"/>
		</g>
	</g>
	<g>
		<g>
			<path fill="#454545" d="M48.651,11.13c0,0.257-0.211,0.472-0.469,0.472c-0.264,0-0.458-0.215-0.458-0.472
				c0-0.248,0.199-0.458,0.458-0.458C48.44,10.672,48.651,10.882,48.651,11.13z"/>
		</g>
		<g>
			<path fill="#454545" d="M48.182,11.68c-0.298,0-0.544-0.248-0.544-0.549c0-0.299,0.246-0.543,0.544-0.543
				c0.307,0,0.548,0.244,0.548,0.543C48.73,11.432,48.489,11.68,48.182,11.68z M48.182,10.756c-0.205,0-0.378,0.169-0.378,0.374
				c0,0.218,0.165,0.386,0.378,0.386c0.215,0,0.384-0.173,0.384-0.386C48.566,10.926,48.397,10.756,48.182,10.756z"/>
		</g>
	</g>
	<g>
		<g>
			<path fill="#454545" d="M52.342,12.786c0,0.26-0.201,0.466-0.472,0.466c-0.241,0-0.452-0.206-0.452-0.466
				c0-0.258,0.211-0.466,0.452-0.466C52.141,12.32,52.342,12.528,52.342,12.786z"/>
		</g>
		<g>
			<path fill="#454545" d="M51.87,13.336c-0.301,0-0.539-0.248-0.539-0.55c0-0.307,0.238-0.549,0.539-0.549
				c0.313,0,0.559,0.243,0.559,0.549C52.429,13.088,52.184,13.336,51.87,13.336z M51.87,12.4c-0.202,0-0.37,0.176-0.37,0.386
				c0,0.207,0.168,0.386,0.37,0.386c0.211,0,0.384-0.174,0.384-0.386C52.254,12.576,52.081,12.4,51.87,12.4z"/>
		</g>
	</g>
	<g>
		<g>
			<path fill="#454545" d="M48.651,12.786c0,0.26-0.211,0.466-0.469,0.466c-0.264,0-0.458-0.206-0.458-0.466
				c0-0.258,0.199-0.466,0.458-0.466C48.44,12.32,48.651,12.528,48.651,12.786z"/>
		</g>
		<g>
			<path fill="#454545" d="M48.182,13.336c-0.298,0-0.544-0.248-0.544-0.55c0-0.307,0.237-0.549,0.544-0.549
				s0.548,0.243,0.548,0.549C48.73,13.088,48.489,13.336,48.182,13.336z M48.182,12.4c-0.213,0-0.378,0.17-0.378,0.386
				c0,0.212,0.173,0.386,0.378,0.386c0.215,0,0.384-0.174,0.384-0.386C48.566,12.576,48.397,12.4,48.182,12.4z"/>
		</g>
	</g>
	<g>
		<g>
			<g>
				<g>
					<path fill="#454545" d="M19.503,23.34c0.281,0.682,0.421,1.457,0.421,2.325c0,0.788-0.141,1.56-0.421,2.305
						c-0.275,0.714-0.655,1.322-1.136,1.814c-0.451,0.513-1.019,0.919-1.717,1.216c-0.651,0.291-1.379,0.439-2.184,0.439
						c-0.548,0-1.051-0.069-1.534-0.213c-0.262-0.077-0.505-0.163-0.732-0.264c-0.221-0.101-0.441-0.216-0.661-0.36
						c-0.215-0.142-0.421-0.291-0.61-0.454c-0.202-0.166-0.378-0.355-0.552-0.571c-0.167-0.202-0.318-0.418-0.453-0.655
						c-0.127-0.228-0.256-0.476-0.383-0.741c-0.128-0.27-0.236-0.565-0.313-0.908c-0.086-0.338-0.149-0.688-0.2-1.048
						C9,26.089,8.977,25.794,8.97,25.354c-0.006-0.438-0.02-0.988-0.035-1.633c-0.015-0.639-0.02-1.349-0.02-2.12
						c0-0.768,0-1.545,0-2.338v-6.142h0.563l-0.03,10.035c0.236-0.545,0.533-1.026,0.909-1.444c0.369-0.423,0.782-0.773,1.231-1.052
						c0.869-0.54,1.828-0.815,2.878-0.815c0.822,0,1.555,0.153,2.206,0.446c0.661,0.278,1.24,0.679,1.715,1.209
						C18.886,22.013,19.255,22.625,19.503,23.34z M19.042,27.716c0.227-0.655,0.35-1.336,0.35-2.05c0-0.708-0.123-1.391-0.35-2.046
						c-0.237-0.639-0.564-1.206-0.976-1.702c-0.419-0.477-0.94-0.877-1.56-1.185c-0.587-0.295-1.27-0.442-2.041-0.442
						c-0.732,0-1.403,0.142-2.022,0.416c-0.62,0.312-1.142,0.698-1.554,1.168c-0.445,0.492-0.795,1.063-1.043,1.697
						c-0.264,0.667-0.399,1.354-0.399,2.073c0,0.713,0.135,1.402,0.399,2.071c0.248,0.636,0.598,1.202,1.043,1.699
						c0.412,0.46,0.934,0.85,1.554,1.166c0.62,0.276,1.29,0.415,2.022,0.415c0.755,0,1.441-0.139,2.041-0.415
						c0.619-0.316,1.141-0.706,1.56-1.166C18.478,28.917,18.805,28.356,19.042,27.716z"/>
				</g>
				<g>
					<path fill="#454545" d="M14.466,32.275c-0.619,0-1.216-0.086-1.77-0.244c-0.298-0.089-0.581-0.202-0.839-0.312
						c-0.256-0.115-0.518-0.259-0.769-0.422c-0.249-0.153-0.48-0.329-0.703-0.514c-0.226-0.194-0.446-0.422-0.652-0.677
						c-0.201-0.242-0.378-0.501-0.533-0.771c-0.138-0.249-0.28-0.519-0.408-0.794c-0.158-0.317-0.285-0.676-0.377-1.078
						c-0.085-0.354-0.156-0.724-0.207-1.094c-0.028-0.148-0.058-0.396-0.072-1c-0.007-0.444-0.017-0.982-0.034-1.627
						c-0.015-0.641-0.021-1.359-0.021-2.141v-9.316h2.228L10.284,20.6c0.274-0.243,0.564-0.459,0.861-0.646
						c0.997-0.622,2.114-0.94,3.321-0.94c0.927,0,1.785,0.174,2.541,0.513c0.763,0.322,1.438,0.792,1.994,1.401
						c0.567,0.593,0.995,1.307,1.285,2.115c0.312,0.772,0.47,1.655,0.47,2.623c0,0.889-0.158,1.766-0.47,2.595
						c-0.316,0.821-0.76,1.519-1.307,2.095c-0.528,0.585-1.195,1.063-2,1.407C16.225,32.095,15.38,32.275,14.466,32.275z
						 M12.804,29.825c0.505,0.228,1.06,0.346,1.662,0.346c0.628,0,1.192-0.118,1.68-0.346c0.513-0.252,0.947-0.581,1.287-0.961
						c0.357-0.412,0.628-0.899,0.828-1.433c0.196-0.556,0.297-1.147,0.297-1.766c0-0.607-0.101-1.207-0.297-1.771
						c-0.2-0.534-0.476-1.02-0.835-1.444c-0.332-0.38-0.775-0.719-1.29-0.978c-0.464-0.232-1.035-0.354-1.669-0.354
						c-0.602,0-1.156,0.117-1.662,0.343c-0.519,0.262-0.954,0.589-1.296,0.967c-0.383,0.424-0.682,0.905-0.888,1.445
						c-0.227,0.571-0.339,1.164-0.339,1.771c0,0.603,0.112,1.2,0.331,1.766c0.215,0.538,0.513,1.032,0.889,1.448
						C11.851,29.24,12.285,29.562,12.804,29.825z"/>
				</g>
			</g>
			<g>
				<g>
					<path fill="#454545" d="M22.834,25.522c0,0.343,0.026,0.676,0.083,1.004c0.048,0.329,0.127,0.656,0.224,0.984
						c0.194,0.644,0.501,1.226,0.899,1.74c0.391,0.512,0.902,0.93,1.536,1.258c0.657,0.312,1.386,0.466,2.189,0.466
						c0.89,0,1.646-0.175,2.285-0.514c0.683-0.355,1.265-0.856,1.74-1.485l0.382,0.328c-0.55,0.691-1.174,1.227-1.889,1.601
						c-0.703,0.36-1.534,0.535-2.517,0.535c-0.824,0-1.554-0.148-2.209-0.439c-0.342-0.143-0.649-0.311-0.931-0.513
						c-0.28-0.207-0.543-0.439-0.793-0.704c-0.497-0.528-0.866-1.152-1.119-1.882c-0.281-0.741-0.413-1.539-0.413-2.38
						c0-0.804,0.132-1.565,0.413-2.278c0.286-0.698,0.661-1.306,1.119-1.814c0.465-0.513,1.022-0.905,1.65-1.161
						c0.656-0.286,1.337-0.425,2.052-0.425c0.872,0,1.617,0.153,2.256,0.446c0.635,0.31,1.168,0.701,1.586,1.188
						c0.404,0.482,0.715,1.036,0.926,1.677c0.222,0.648,0.327,1.289,0.327,1.907v0.459H22.834L22.834,25.522z M32.097,25.063
						c-0.026-0.734-0.153-1.374-0.371-1.936c-0.231-0.591-0.544-1.095-0.931-1.512c-0.39-0.401-0.861-0.729-1.422-0.977
						c-0.559-0.233-1.178-0.348-1.859-0.348c-0.843,0-1.543,0.173-2.122,0.512c-0.591,0.352-1.068,0.777-1.442,1.257
						c-0.186,0.259-0.349,0.518-0.487,0.778c-0.142,0.255-0.248,0.523-0.321,0.804c-0.096,0.264-0.164,0.519-0.202,0.763
						c-0.042,0.235-0.058,0.458-0.058,0.659H32.097L32.097,25.063z"/>
				</g>
				<g>
					<path fill="#454545" d="M27.766,32.275c-0.93,0-1.781-0.174-2.537-0.513c-0.396-0.164-0.761-0.365-1.089-0.602
						c-0.316-0.229-0.624-0.503-0.909-0.805c-0.576-0.609-1.008-1.339-1.301-2.174c-0.307-0.829-0.463-1.729-0.463-2.659
						c0-0.903,0.156-1.771,0.471-2.573c0.327-0.805,0.756-1.499,1.278-2.079c0.55-0.602,1.206-1.063,1.958-1.375
						c0.739-0.317,1.542-0.481,2.363-0.481c0.987,0,1.86,0.174,2.606,0.519l0.015,0.004c0.736,0.36,1.36,0.83,1.853,1.391
						c0.475,0.571,0.84,1.227,1.087,1.956c0.249,0.742,0.369,1.472,0.369,2.179v1.294h-9.738c0,0.011,0.008,0.022,0.008,0.033
						c0.051,0.285,0.114,0.586,0.199,0.876c0.17,0.545,0.429,1.046,0.762,1.47c0.322,0.423,0.739,0.761,1.254,1.025
						c0.533,0.255,1.14,0.376,1.816,0.376c0.742,0,1.38-0.134,1.893-0.413c0.583-0.307,1.068-0.714,1.471-1.257l0.544-0.71
						l1.633,1.428l-0.485,0.624c-0.608,0.787-1.332,1.401-2.152,1.829C29.844,32.057,28.877,32.275,27.766,32.275z M23.823,24.228
						h7.348c-0.053-0.292-0.125-0.556-0.216-0.798c-0.194-0.487-0.456-0.905-0.773-1.248c-0.294-0.312-0.686-0.577-1.136-0.782
						c-0.455-0.186-0.966-0.281-1.532-0.281c-0.682,0-1.253,0.137-1.693,0.398c-0.486,0.295-0.893,0.644-1.207,1.035
						c-0.163,0.233-0.304,0.461-0.422,0.684c-0.11,0.199-0.196,0.411-0.259,0.628l-0.014,0.053
						C23.887,24.022,23.849,24.132,23.823,24.228z"/>
				</g>
			</g>
			<g>
				<g>
					<path fill="#454545" d="M35.661,27.948c-0.266-0.744-0.398-1.521-0.398-2.33c0-0.792,0.132-1.56,0.398-2.299
						c0.279-0.719,0.655-1.322,1.135-1.819c0.487-0.53,1.054-0.931,1.725-1.209c0.656-0.293,1.396-0.446,2.211-0.446
						c0.511,0,1.021,0.075,1.517,0.211c0.511,0.139,0.972,0.35,1.39,0.629c0.223,0.14,0.428,0.292,0.619,0.45
						c0.196,0.164,0.381,0.362,0.549,0.577c0.172,0.201,0.329,0.418,0.47,0.649c0.135,0.234,0.271,0.481,0.4,0.747
						c0.105,0.264,0.198,0.564,0.282,0.905c0.086,0.349,0.152,0.697,0.197,1.05c0.014,0.143,0.036,0.332,0.052,0.582
						c0.01,0.247,0.026,0.528,0.031,0.84c0.01,0.307,0.01,0.64,0.01,0.989c0,0.35,0,0.688,0,1.032c0,0.809-0.01,1.675-0.02,2.612
						h-0.561l0.07-2.982c-0.231,0.538-0.533,1.025-0.902,1.443c-0.376,0.417-0.786,0.766-1.218,1.046
						c-0.904,0.545-1.862,0.816-2.886,0.816c-0.84,0-1.577-0.148-2.232-0.439c-0.671-0.286-1.248-0.684-1.725-1.216
						C36.279,29.271,35.908,28.658,35.661,27.948z M36.124,23.571c-0.216,0.683-0.326,1.366-0.326,2.047
						c0,0.687,0.11,1.368,0.326,2.051c0.235,0.65,0.568,1.221,1,1.697c0.216,0.269,0.454,0.487,0.713,0.671
						c0.254,0.195,0.54,0.365,0.847,0.514C39.271,30.853,39.958,31,40.732,31c0.735,0,1.399-0.143,2.008-0.419
						c0.3-0.156,0.598-0.326,0.854-0.511c0.266-0.19,0.509-0.408,0.72-0.655c0.457-0.498,0.808-1.059,1.055-1.699
						c0.122-0.327,0.214-0.665,0.277-1.008c0.065-0.351,0.092-0.708,0.092-1.063s-0.027-0.708-0.092-1.056
						c-0.063-0.35-0.155-0.694-0.277-1.017c-0.247-0.634-0.598-1.205-1.055-1.697c-0.211-0.248-0.454-0.47-0.72-0.65
						c-0.257-0.189-0.554-0.36-0.854-0.512c-0.609-0.28-1.273-0.422-2.008-0.422c-0.764,0-1.445,0.142-2.047,0.422
						c-0.636,0.306-1.152,0.692-1.56,1.162C36.692,22.35,36.359,22.917,36.124,23.571z"/>
				</g>
				<g>
					<path fill="#454545" d="M40.732,32.275c-0.948,0-1.81-0.174-2.566-0.513c-0.772-0.329-1.438-0.799-1.994-1.407
						c-0.576-0.593-1.015-1.313-1.299-2.137c-0.292-0.825-0.446-1.697-0.446-2.601c0-0.883,0.154-1.749,0.451-2.581l0.01-0.025
						c0.312-0.81,0.751-1.507,1.306-2.084c0.554-0.609,1.231-1.079,1.999-1.401c0.756-0.338,1.608-0.513,2.54-0.513
						c0.592,0,1.173,0.079,1.744,0.244c0.586,0.158,1.136,0.406,1.628,0.734c0.233,0.155,0.471,0.327,0.698,0.514
						c0.226,0.195,0.454,0.422,0.65,0.677c0.199,0.233,0.373,0.486,0.528,0.75c0.166,0.254,0.302,0.53,0.439,0.821l0.021,0.036
						c0.116,0.303,0.233,0.646,0.327,1.022c0.086,0.375,0.161,0.76,0.219,1.147v0.01c0.013,0.163,0.026,0.369,0.045,0.624
						c0.021,0.269,0.03,0.559,0.038,0.871c0.014,0.312,0.014,0.655,0.014,1.01v1.032c0,0.787-0.014,1.644-0.03,2.623l-0.013,0.819
						h-2.217l0.028-1.21c-0.25,0.222-0.515,0.413-0.785,0.591l-0.021,0.006C43.021,31.963,41.905,32.275,40.732,32.275z
						 M36.914,27.399c0.189,0.544,0.475,1.02,0.83,1.413l0.021,0.026c0.174,0.205,0.366,0.392,0.565,0.534
						c0.211,0.158,0.46,0.306,0.725,0.439c0.477,0.238,1.036,0.36,1.677,0.36c0.607,0,1.152-0.118,1.644-0.346
						c0.269-0.13,0.519-0.273,0.739-0.437c0.211-0.154,0.401-0.322,0.576-0.524c0.391-0.422,0.686-0.916,0.905-1.449
						c0.097-0.271,0.185-0.56,0.232-0.861c0.058-0.296,0.08-0.603,0.08-0.91c0-0.307-0.021-0.614-0.08-0.914
						c-0.048-0.298-0.135-0.588-0.241-0.861c-0.21-0.536-0.505-1.016-0.884-1.44c-0.187-0.205-0.376-0.378-0.588-0.533
						c-0.221-0.153-0.476-0.307-0.739-0.439c-0.492-0.222-1.037-0.334-1.644-0.334c-0.631,0-1.201,0.112-1.692,0.338
						c-0.526,0.262-0.958,0.576-1.287,0.952l-0.01,0.015c-0.355,0.393-0.641,0.869-0.83,1.413c-0.185,0.586-0.286,1.189-0.286,1.777
						C36.628,26.21,36.729,26.813,36.914,27.399z"/>
				</g>
			</g>
		</g>
		<g>
			<g>
				<g>
					<path fill="#454545" d="M61.354,36.727c0.018,0.185,0.034,0.425,0.044,0.739c0.016,0.312,0.033,0.653,0.033,1.037
						c0.01,0.37,0.01,0.751,0.025,1.139c0,0.385,0,0.747,0,1.08c0,0.324,0,0.603,0,0.823c0,0.22,0,0.347,0,0.383v0.021h-0.438
						v-2.563v-2c0-0.668-0.099-1.3-0.273-1.876c-0.112-0.28-0.229-0.528-0.357-0.76c-0.126-0.233-0.267-0.444-0.422-0.641
						c-0.316-0.348-0.688-0.651-1.143-0.888c-0.439-0.224-0.848-0.321-1.222-0.291c-0.354,0.021-0.766,0.126-1.222,0.307
						c-0.224,0.092-0.426,0.211-0.61,0.364c-0.185,0.16-0.369,0.327-0.541,0.508c-0.311,0.374-0.575,0.84-0.773,1.401
						c-0.194,0.567-0.293,1.195-0.293,1.876v4.563h-0.43v-0.021c0-0.036,0-0.163,0-0.383c0-0.221,0-0.499,0-0.823
						c0-0.333,0.017-0.695,0.017-1.08c0.017-0.388,0.017-0.769,0.017-1.139c0.01-0.384,0.026-0.725,0.029-1.037
						c0.015-0.314,0.024-0.555,0.036-0.739c0.031-0.286,0.076-0.562,0.146-0.835c0.069-0.271,0.158-0.521,0.24-0.751
						c0.104-0.238,0.185-0.444,0.288-0.624c0.095-0.18,0.177-0.324,0.271-0.429c0.124-0.164,0.25-0.322,0.396-0.455
						c0.142-0.136,0.293-0.258,0.451-0.381c0.305-0.23,0.657-0.401,1.027-0.518c0.353-0.12,0.683-0.174,0.967-0.174
						c0.28,0,0.597,0.054,0.938,0.174c0.343,0.1,0.679,0.28,1.022,0.518c0.155,0.123,0.298,0.245,0.439,0.381
						c0.146,0.133,0.287,0.292,0.412,0.455c0.076,0.105,0.175,0.249,0.261,0.429c0.099,0.18,0.194,0.385,0.284,0.624
						c0.087,0.226,0.168,0.48,0.237,0.751C61.289,36.166,61.342,36.446,61.354,36.727z"/>
				</g>
				<g>
					<path fill="#454545" d="M62.294,42.779h-2.119v-5.393c0-0.575-0.071-1.116-0.228-1.607c-0.081-0.226-0.185-0.435-0.283-0.624
						c-0.099-0.185-0.212-0.358-0.344-0.506c-0.228-0.271-0.525-0.498-0.877-0.699c-0.302-0.142-0.556-0.21-0.773-0.196
						c-0.28,0.021-0.607,0.108-0.977,0.254c-0.142,0.06-0.271,0.14-0.403,0.232c-0.152,0.134-0.298,0.269-0.438,0.424
						c-0.241,0.291-0.452,0.665-0.61,1.114c-0.155,0.477-0.242,1.019-0.242,1.607v5.393h-2.093v-2.058c0-0.338,0-0.702,0.017-1.093
						l0.017-1.142c0-0.388,0.01-0.736,0.026-1.059c0.017-0.302,0.026-0.559,0.044-0.757c0.025-0.343,0.082-0.668,0.167-0.986
						c0.072-0.301,0.176-0.587,0.267-0.851c0.104-0.264,0.22-0.497,0.331-0.713c0.116-0.218,0.229-0.387,0.326-0.53
						c0.159-0.206,0.332-0.391,0.499-0.554c0.162-0.158,0.344-0.307,0.529-0.443c0.385-0.292,0.809-0.512,1.276-0.651
						c0.439-0.144,0.842-0.218,1.212-0.218c0.369,0,0.766,0.074,1.195,0.218c0.422,0.132,0.852,0.344,1.248,0.645
						c0.185,0.137,0.369,0.286,0.544,0.449c0.169,0.164,0.324,0.348,0.482,0.544c0.115,0.154,0.228,0.323,0.344,0.541
						c0.112,0.216,0.21,0.449,0.323,0.713c0.099,0.264,0.185,0.55,0.273,0.851c0.07,0.317,0.125,0.643,0.169,0.969v0.017
						c0.017,0.183,0.023,0.426,0.026,0.757c0.017,0.322,0.032,0.671,0.042,1.054l0.018,1.147c0,0.392,0.012,0.755,0.012,1.093
						V42.779z"/>
				</g>
			</g>
			<g>
				<g>
					<path fill="#454545" d="M65.111,29.415c-0.146,0-0.237-0.043-0.341-0.138c-0.086-0.112-0.124-0.239-0.124-0.366
						c0-0.132,0.038-0.253,0.124-0.37c0.104-0.088,0.194-0.137,0.341-0.137c0.116,0,0.215,0.048,0.301,0.137
						c0.099,0.091,0.142,0.212,0.142,0.37c0,0.155-0.043,0.275-0.142,0.366C65.309,29.372,65.21,29.415,65.111,29.415z
						 M64.874,41.971v-9.12h0.452v9.12H64.874L64.874,41.971z"/>
				</g>
				<g>
					<path fill="#454545" d="M66.15,42.801h-2.103V32.016h2.103V42.801z M65.111,30.245c-0.356,0-0.684-0.127-0.928-0.381
						l-0.07-0.075c-0.196-0.259-0.31-0.564-0.31-0.878c0-0.317,0.113-0.618,0.31-0.882l0.07-0.076
						c0.261-0.247,0.571-0.379,0.928-0.379c0.326,0,0.637,0.132,0.897,0.379c0.169,0.176,0.369,0.478,0.369,0.958
						c0,0.478-0.2,0.784-0.369,0.958l-0.043,0.038C65.64,30.192,65.326,30.245,65.111,30.245z M64.9,29.181
						c0.098,0.063,0.284,0.075,0.408-0.011l-0.168-0.168L64.9,29.181z M64.831,28.69c-0.094,0.089-0.104,0.189-0.104,0.221
						c0,0.033,0.01,0.132,0.104,0.217c0.01,0.015,0.026,0.032,0.053,0.042l0.214-0.211L64.831,28.69z M65.15,28.98l0.176,0.185
						c0.014-0.005,0.025-0.021,0.043-0.037l-0.179-0.169L65.15,28.98z M65.253,28.911l0.185,0.138c0-0.011,0.029-0.064,0.029-0.138
						c0-0.073-0.029-0.132-0.029-0.142L65.253,28.911z M64.884,28.647c-0.01,0-0.01,0.006-0.01,0.006l0.237,0.284l0.029-0.026
						L64.884,28.647z M64.9,28.637l0.294,0.227l0.175-0.169c-0.073-0.068-0.175-0.111-0.258-0.111
						C65.016,28.583,64.939,28.611,64.9,28.637z"/>
				</g>
			</g>
			<g>
				<g>
					<path fill="#454545" d="M72.919,27.205c-0.056-0.021-0.126-0.043-0.195-0.054c-0.076-0.006-0.146-0.011-0.201-0.026
						c-0.072-0.011-0.142-0.016-0.212-0.016c-0.071,0-0.142,0-0.201,0c-0.386,0-0.685,0.075-0.912,0.211
						c-0.24,0.132-0.442,0.317-0.593,0.567c-0.181,0.243-0.288,0.501-0.348,0.772c-0.021,0.143-0.057,0.296-0.064,0.45
						c-0.018,0.148-0.018,0.302-0.018,0.444v3.299h2.473v0.371h-2.473v8.75H69.72v-8.75l-0.018-0.371v-3.277
						c0-0.535,0.077-0.99,0.22-1.38c0.142-0.365,0.317-0.65,0.579-0.874c0.245-0.216,0.499-0.364,0.754-0.443
						c0.257-0.095,0.545-0.137,0.838-0.137c0.331,0,0.641,0.036,0.912,0.117L72.919,27.205z"/>
				</g>
				<g>
					<path fill="#454545" d="M71,42.801h-2.106v-9.559l-0.025-0.392v-3.277c0-0.636,0.096-1.195,0.28-1.682
						c0.175-0.476,0.446-0.883,0.799-1.193c0.326-0.292,0.679-0.499,1.053-0.609c0.344-0.123,0.714-0.18,1.093-0.18
						c0.403,0,0.782,0.048,1.14,0.148l0.756,0.217l-0.473,2.066l-0.88-0.353c-0.097-0.017-0.199-0.034-0.282-0.043
						c-0.016,0-0.033-0.01-0.043-0.01h-0.201c-0.211,0-0.386,0.037-0.484,0.096l-0.027,0.02c-0.112,0.064-0.229,0.165-0.314,0.307
						c-0.113,0.149-0.168,0.297-0.202,0.456l-0.008,0.063c-0.035,0.101-0.046,0.197-0.061,0.295C71,29.304,71,29.429,71,29.552
						v2.464h2.489v2.036H71V42.801z"/>
				</g>
			</g>
			<g>
				<g>
					<path fill="#454545" d="M79.844,27.205c-0.063-0.021-0.125-0.043-0.194-0.054c-0.075-0.006-0.142-0.011-0.218-0.026
						c-0.053-0.011-0.125-0.016-0.194-0.016c-0.072,0-0.142,0-0.202,0c-0.386,0-0.679,0.075-0.906,0.211
						c-0.245,0.132-0.447,0.317-0.614,0.567c-0.151,0.243-0.271,0.501-0.327,0.772c-0.034,0.143-0.057,0.296-0.069,0.45
						c-0.018,0.148-0.033,0.302-0.033,0.444v3.299h2.489v0.371h-2.489v8.75h-0.439v-8.75l-0.013-0.371v-3.277
						c0-0.535,0.073-0.99,0.215-1.38c0.141-0.365,0.33-0.65,0.58-0.874c0.244-0.216,0.499-0.364,0.756-0.443
						c0.255-0.095,0.529-0.137,0.826-0.137c0.34,0,0.64,0.036,0.921,0.117L79.844,27.205z"/>
				</g>
				<g>
					<path fill="#454545" d="M77.927,42.801h-2.103v-9.559l-0.029-0.392v-3.277c0-0.636,0.095-1.195,0.279-1.676
						c0.175-0.482,0.445-0.89,0.799-1.2c0.328-0.292,0.685-0.499,1.054-0.609c0.344-0.123,0.713-0.18,1.083-0.18
						c0.412,0,0.791,0.048,1.156,0.148l0.741,0.217l-0.465,2.066l-0.891-0.353c-0.087-0.017-0.19-0.034-0.271-0.043
						c-0.017,0-0.033-0.01-0.043-0.01h-0.202c-0.282,0-0.428,0.063-0.482,0.096l-0.029,0.02c-0.112,0.064-0.228,0.165-0.309,0.307
						c-0.12,0.149-0.173,0.297-0.205,0.46l-0.011,0.058c-0.029,0.101-0.042,0.197-0.06,0.295c-0.013,0.134-0.013,0.259-0.013,0.382
						v2.464H80.4v2.036h-2.474V42.801z"/>
				</g>
			</g>
		</g>
	</g>
</g>
<g>
	<path fill="#454545" d="M71.284,64.138c-0.439,0-0.837-0.092-1.197-0.281c-0.361-0.185-0.642-0.432-0.836-0.74h-0.05v0.827h-1.072
		v-8.727h1.122v2.757l-0.05,0.828h0.05c0.194-0.308,0.475-0.555,0.836-0.741c0.36-0.189,0.758-0.281,1.197-0.281
		c0.789,0,1.456,0.309,2.001,0.925c0.559,0.625,0.838,1.379,0.838,2.252c0,0.888-0.279,1.64-0.838,2.257
		C72.74,63.829,72.073,64.138,71.284,64.138z M71.101,63.116c0.536,0,0.99-0.203,1.354-0.608c0.367-0.401,0.551-0.914,0.551-1.552
		c0-0.625-0.184-1.138-0.551-1.542c-0.363-0.41-0.817-0.612-1.354-0.612c-0.54,0-0.997,0.202-1.364,0.612
		c-0.358,0.404-0.535,0.917-0.535,1.542c0,0.638,0.177,1.157,0.535,1.562C70.104,62.915,70.561,63.116,71.101,63.116z"/>
	<path fill="#454545" d="M80.239,57.974l-3.737,8.604h-1.159l1.389-3.012l-2.462-5.592h1.221l1.777,4.29h0.021l1.734-4.29H80.239z"
		/>
</g>
<g>
	<path fill="#454545" d="M12.459,88.201c-0.165,0.28-0.371,0.543-0.618,0.789c-0.762,0.764-1.681,1.143-2.754,1.143
		c-1.076,0-1.994-0.379-2.755-1.143c-0.761-0.763-1.142-1.679-1.142-2.757c0-1.074,0.381-1.99,1.142-2.753
		c0.762-0.764,1.68-1.143,2.755-1.143c1.074,0,1.992,0.379,2.754,1.143c0.761,0.763,1.143,1.679,1.143,2.753v3.798h-0.525V88.201z
		 M9.087,89.581c0.923,0,1.713-0.325,2.369-0.978c0.651-0.657,0.979-1.442,0.979-2.37c0-0.924-0.328-1.709-0.979-2.367
		C10.8,83.215,10.01,82.89,9.087,82.89c-0.924,0-1.713,0.325-2.369,0.977c-0.651,0.658-0.979,1.443-0.979,2.367
		c0,0.928,0.328,1.713,0.979,2.37C7.374,89.256,8.163,89.581,9.087,89.581z"/>
	<path fill="#454545" d="M17.832,83.024h-2.58v7.02h-0.556v-7.02h-2.568V82.47h5.704V83.024z"/>
	<path fill="#454545" d="M25.33,86.178c-0.015,1.071-0.359,1.986-1.032,2.742c-0.673,0.758-1.481,1.138-2.426,1.138
		c-0.949,0-1.759-0.381-2.432-1.143c-0.672-0.758-1.015-1.673-1.026-2.747v-3.714h0.534v3.714c0.01,0.907,0.3,1.682,0.868,2.325
		c0.571,0.64,1.256,0.963,2.057,0.963c0.8,0,1.484-0.317,2.052-0.958c0.567-0.64,0.857-1.413,0.871-2.32v-3.724h0.535V86.178z"/>
	<path fill="#454545" d="M25.91,86.336c0.013-1.071,0.358-1.986,1.031-2.742c0.672-0.762,1.482-1.14,2.427-1.14
		c0.946,0,1.758,0.383,2.431,1.142c0.674,0.757,1.017,1.677,1.027,2.75v3.712h-0.536v-3.712c-0.01-0.907-0.299-1.686-0.866-2.328
		c-0.571-0.641-1.256-0.96-2.057-0.96c-0.8,0-1.484,0.318-2.052,0.958c-0.567,0.636-0.857,1.409-0.872,2.32v3.722H25.91V86.336z"/>
	<path fill="#454545" d="M39.515,83.242v6.802h-0.997v-6.802h-2.166v-0.95h5.327v0.95H39.515z"/>
	<path fill="#454545" d="M44.063,90.214c-0.781,0-1.423-0.266-1.928-0.801c-0.505-0.533-0.757-1.206-0.757-2.023
		c0-0.809,0.243-1.482,0.735-2.02c0.491-0.537,1.12-0.808,1.884-0.808c0.787,0,1.414,0.254,1.879,0.764
		c0.464,0.51,0.697,1.222,0.697,2.137l-0.01,0.111h-4.169c0.014,0.52,0.188,0.94,0.519,1.257c0.333,0.317,0.729,0.476,1.191,0.476
		c0.636,0,1.133-0.317,1.494-0.954l0.888,0.435c-0.238,0.448-0.567,0.796-0.99,1.049C45.075,90.089,44.596,90.214,44.063,90.214z
		 M42.47,86.75h3.043c-0.029-0.368-0.179-0.675-0.448-0.914c-0.272-0.239-0.635-0.362-1.089-0.362c-0.375,0-0.699,0.115-0.97,0.345
		C42.736,86.049,42.557,86.362,42.47,86.75z"/>
	<path fill="#454545" d="M48.48,82.292v7.752h-0.997v-7.752H48.48z"/>
	<path fill="#454545" d="M52.02,90.214c-0.777,0-1.421-0.266-1.926-0.801c-0.505-0.533-0.757-1.206-0.757-2.023
		c0-0.809,0.244-1.482,0.735-2.02c0.491-0.537,1.12-0.808,1.884-0.808c0.789,0,1.414,0.254,1.879,0.764
		c0.467,0.51,0.697,1.222,0.697,2.137l-0.01,0.111h-4.169c0.016,0.52,0.188,0.94,0.521,1.257c0.331,0.317,0.729,0.476,1.189,0.476
		c0.638,0,1.133-0.317,1.494-0.954l0.888,0.435c-0.238,0.448-0.565,0.796-0.988,1.049C53.035,90.089,52.555,90.214,52.02,90.214z
		 M50.43,86.75h3.044c-0.032-0.368-0.182-0.675-0.453-0.914c-0.268-0.239-0.634-0.362-1.085-0.362c-0.377,0-0.7,0.115-0.97,0.345
		C50.695,86.049,50.515,86.362,50.43,86.75z"/>
	<path fill="#454545" d="M57.913,90.044h-0.998l-2.14-5.308h1.081l1.558,4.114h0.024l1.577-4.114h1.062L57.913,90.044z"/>
	<path fill="#454545" d="M62.949,90.214c-0.782,0-1.423-0.266-1.931-0.801c-0.503-0.533-0.758-1.206-0.758-2.023
		c0-0.809,0.246-1.482,0.738-2.02c0.486-0.537,1.117-0.808,1.883-0.808c0.788,0,1.413,0.254,1.879,0.764
		c0.467,0.51,0.696,1.222,0.696,2.137l-0.01,0.111H61.28c0.012,0.52,0.186,0.94,0.519,1.257c0.333,0.317,0.729,0.476,1.189,0.476
		c0.639,0,1.134-0.317,1.493-0.954l0.889,0.435c-0.237,0.448-0.565,0.796-0.988,1.049C63.96,90.089,63.479,90.214,62.949,90.214z
		 M61.354,86.75h3.041c-0.027-0.368-0.177-0.675-0.448-0.914c-0.268-0.239-0.633-0.362-1.085-0.362c-0.376,0-0.7,0.115-0.972,0.345
		C61.622,86.049,61.44,86.362,61.354,86.75z"/>
	<path fill="#454545" d="M66.37,84.736h0.95v0.737h0.044c0.15-0.262,0.386-0.479,0.7-0.649c0.312-0.175,0.637-0.262,0.979-0.262
		c0.649,0,1.15,0.185,1.501,0.555c0.351,0.375,0.526,0.903,0.526,1.59v3.337h-1V86.77c-0.019-0.864-0.457-1.296-1.309-1.296
		c-0.396,0-0.729,0.159-0.995,0.479c-0.271,0.323-0.402,0.708-0.402,1.156v2.936H66.37V84.736z"/>
	<path fill="#454545" d="M74.068,90.128c-0.438,0-0.797-0.134-1.079-0.398c-0.284-0.27-0.433-0.642-0.439-1.116v-2.97h-0.932v-0.907
		h0.932v-1.625h0.995v1.625h1.301v0.907h-1.301v2.645c0,0.352,0.07,0.596,0.207,0.721c0.139,0.124,0.291,0.188,0.467,0.188
		c0.078,0,0.156-0.009,0.234-0.026c0.073-0.018,0.144-0.04,0.211-0.07l0.312,0.888C74.718,90.081,74.412,90.128,74.068,90.128z"/>
	<path fill="#454545" d="M80.457,90.044h-0.956v-0.737h-0.043c-0.15,0.257-0.381,0.475-0.697,0.65
		c-0.314,0.171-0.641,0.257-0.979,0.257c-0.65,0-1.147-0.186-1.499-0.556c-0.351-0.374-0.526-0.903-0.526-1.587v-3.335h0.995v3.271
		c0.024,0.864,0.462,1.3,1.312,1.3c0.399,0,0.728-0.163,0.997-0.483c0.266-0.321,0.398-0.704,0.398-1.152v-2.935h0.999V90.044z"/>
	<path fill="#454545" d="M82.664,90.044H81.67v-5.308h0.95v0.864h0.044c0.099-0.281,0.309-0.52,0.623-0.721
		c0.313-0.195,0.624-0.294,0.925-0.294c0.289,0,0.534,0.044,0.736,0.127l-0.305,0.965c-0.118-0.051-0.316-0.077-0.582-0.077
		c-0.377,0-0.704,0.154-0.982,0.456c-0.275,0.306-0.415,0.658-0.415,1.062V90.044z"/>
	<path fill="#454545" d="M87.657,90.214c-0.782,0-1.423-0.266-1.927-0.801c-0.507-0.533-0.762-1.206-0.762-2.023
		c0-0.809,0.246-1.482,0.738-2.02c0.49-0.537,1.121-0.808,1.887-0.808c0.784,0,1.409,0.254,1.875,0.764
		c0.471,0.51,0.7,1.222,0.7,2.137l-0.013,0.111h-4.168c0.016,0.52,0.189,0.94,0.519,1.257c0.333,0.317,0.729,0.476,1.193,0.476
		c0.635,0,1.134-0.317,1.493-0.954l0.889,0.435c-0.237,0.448-0.569,0.796-0.992,1.049C88.668,90.089,88.191,90.214,87.657,90.214z
		 M86.065,86.75h3.041c-0.027-0.368-0.177-0.675-0.448-0.914s-0.633-0.362-1.089-0.362c-0.372,0-0.696,0.115-0.968,0.345
		C86.33,86.049,86.152,86.362,86.065,86.75z"/>
	<path fill="#454545" d="M95.189,88.569c0,0.464-0.201,0.853-0.605,1.17c-0.404,0.316-0.914,0.475-1.527,0.475
		c-0.531,0-1.004-0.139-1.406-0.415c-0.404-0.279-0.691-0.646-0.865-1.099l0.888-0.379c0.131,0.317,0.317,0.563,0.57,0.741
		c0.247,0.176,0.52,0.264,0.813,0.264c0.32,0,0.586-0.068,0.797-0.204c0.212-0.139,0.322-0.3,0.322-0.488
		c0-0.339-0.262-0.589-0.78-0.749l-0.912-0.227c-1.031-0.259-1.548-0.758-1.548-1.49c0-0.483,0.199-0.875,0.59-1.166
		c0.395-0.292,0.898-0.439,1.512-0.439c0.471,0,0.894,0.112,1.272,0.335c0.379,0.226,0.643,0.525,0.798,0.901l-0.891,0.369
		c-0.101-0.227-0.267-0.401-0.494-0.526c-0.227-0.129-0.478-0.191-0.76-0.191c-0.262,0-0.492,0.067-0.7,0.193
		c-0.208,0.131-0.309,0.29-0.309,0.48c0,0.301,0.283,0.52,0.854,0.646l0.805,0.208C94.668,87.235,95.189,87.77,95.189,88.569z"/>
</g>
</svg>
