<?xml version="1.0" encoding="utf-8"?>
<!-- Generator: Adobe Illustrator 16.0.0, SVG Export Plug-In . SVG Version: 6.00 Build 0)  -->
<!DOCTYPE svg PUBLIC "-//W3C//DTD SVG 1.1//EN" "http://www.w3.org/Graphics/SVG/1.1/DTD/svg11.dtd">
<svg version="1.1" id="Capa_1" xmlns="http://www.w3.org/2000/svg" xmlns:xlink="http://www.w3.org/1999/xlink" x="0px" y="0px"
	 width="510px" height="510px" viewBox="0 0 510 510" enable-background="new 0 0 510 510" xml:space="preserve">
<rect x="60.5" y="93.5" fill="#FFFFFF" width="417" height="328"/>
<path fill="#D34836" d="M459,0H51C22.95,0,0,22.95,0,51v408c0,28.05,22.95,51,51,51h408c28.05,0,51-22.95,51-51V51
	C510,22.95,487.05,0,459,0z M270.873,326.49c-19.446,20.611-45.016,30.917-76.707,30.917c-30.333,0-55.999-10.5-76.999-31.5
	c-21-20.999-31.5-46.857-31.5-77.582c0-30.72,10.5-56.582,31.5-77.582s46.666-31.5,76.999-31.5c15.358,0,29.845,2.725,43.458,8.167
	c13.608,5.446,24.792,13.125,33.541,23.041l-19.249,19.25c-6.417-7.775-14.729-13.854-24.937-18.229s-21.146-6.563-32.812-6.563
	c-22.75,0-41.999,7.875-57.749,23.625c-15.558,15.946-23.333,35.875-23.333,59.791s7.775,43.85,23.333,59.791
	c15.75,15.75,35,23.624,57.749,23.624c20.804,0,38.107-5.834,51.916-17.499c13.804-11.667,21.774-27.708,23.917-48.125h-75.832
	v-25.083h101.206c0.972,5.446,1.459,10.696,1.459,15.75C296.831,285.95,288.177,309.188,270.873,326.49z M452.577,284.783h-52.791
	v52.791H377.62v-52.791h-52.791v-22.167h52.791v-52.79h22.166v52.79h52.791V284.783L452.577,284.783z"/>
</svg>
