<?xml version="1.0" encoding="utf-8"?>
<!-- Generator: Adobe Illustrator 16.0.0, SVG Export Plug-In . SVG Version: 6.00 Build 0)  -->
<!DOCTYPE svg PUBLIC "-//W3C//DTD SVG 1.1//EN" "http://www.w3.org/Graphics/SVG/1.1/DTD/svg11.dtd">
<svg version="1.1" id="Layer_1" xmlns="http://www.w3.org/2000/svg" xmlns:xlink="http://www.w3.org/1999/xlink" x="0px" y="0px"
	 width="172.5px" height="125.667px" viewBox="0 0 172.5 125.667" enable-background="new 0 0 172.5 125.667" xml:space="preserve">
<polygon fill="#EEEEEE" points="39.5,98.166 7.667,98.166 31.5,28.667 51.405,58.667 46.834,64.5 33.167,45.833 17.334,91.166 
	39.5,91.166 "/>
<polygon fill="#EEEEEE" points="68.5,98.166 101.07,98.167 77.237,28.666 36,91.333 39.5,98.166 75.5,45 91.402,91.167 73,91.167 
	61.5,74 57.333,81 "/>
<g>
	<polygon fill="#FFFFFF" points="111.777,98.025 102.291,98.167 134.329,29.6 143.9,29.6 	"/>
	<polygon fill="#FFFFFF" points="147.473,98.023 106.833,98.117 110.225,89.515 146.398,89.396 	"/>
	<g>
		<path fill="#FFFFFF" d="M147.473,59.468c-2.185,0-9.957,0-9.957,0l-3.57,8.032H146.4c6.047,0,10.947,4.902,10.947,10.949
			c0,6.043-4.9,10.947-10.947,10.947v0.084h-14.938c3.459,5.152,9.339,8.543,16.011,8.543c10.646,0,19.277-8.631,19.277-19.277
			C166.749,68.099,158.118,59.468,147.473,59.468z"/>
	</g>
	<g>
		<path fill="#FFFFFF" d="M149.557,31.907l-3.803,8.242c3.23,1.656,5.446,5.013,5.446,8.894c0,5.521-4.476,9.996-9.995,9.996v0.073
			h-3.553c0,0,7.773,8.653,9.707,7.995c7.518-2.561,12.924-9.681,12.924-18.064C160.283,41.504,155.9,35.007,149.557,31.907z"/>
	</g>
</g>
</svg>
