<?xml version="1.0" encoding="utf-8"?>
<!-- Generator: Adobe Illustrator 16.0.0, SVG Export Plug-In . SVG Version: 6.00 Build 0)  -->
<!DOCTYPE svg PUBLIC "-//W3C//DTD SVG 1.1//EN" "http://www.w3.org/Graphics/SVG/1.1/DTD/svg11.dtd">
<svg version="1.1" id="Layer_1" xmlns="http://www.w3.org/2000/svg" xmlns:xlink="http://www.w3.org/1999/xlink" x="0px" y="0px"
	 width="100px" height="100px" viewBox="0 0 100 100" enable-background="new 0 0 100 100" xml:space="preserve">
<g>
	<g>
		<path fill="#E7ECEC" d="M28.145,14.06c0-0.972,0.292-1.874,0.784-2.634l-14.321,3.838c-2.597,0.695-4.136,3.363-3.441,5.957
			L28.04,84.188c0.015,0.061,0.105,0.046,0.105-0.017V14.06z"/>
	</g>
</g>
<g>
	<g>
		<path fill="#E7ECEC" d="M73.86,12.631c0-0.971-0.93-1.872-1.423-2.633l14.957,3.836c2.594,0.696,4.135,3.363,3.439,5.96
			L73.962,82.758c-0.014,0.062-0.102,0.047-0.102-0.014V12.631z"/>
	</g>
</g>
<g>
	<path fill="#434B60" d="M68.992,91.429H33.008c-2.687,0-4.863-2.18-4.863-4.867V13.435c0-2.688,2.176-4.865,4.863-4.865h35.984
		c2.69,0,4.868,2.177,4.868,4.865v73.127C73.86,89.249,71.683,91.429,68.992,91.429z"/>
</g>
<g>
	<rect x="28.145" y="14.283" fill="#A9D26B" width="45.715" height="68.514"/>
</g>
<g>
	<path fill="#262B36" d="M51.002,84.916c2.367,0,4.287-0.2,4.287,2.167s-1.92,2.084-4.287,2.084s-4.287,0.283-4.287-2.084
		S48.635,84.916,51.002,84.916z"/>
</g>
<g>
	<path fill="#262B36" d="M50.146,12.607h-5.031c-0.695,0-1.258-0.562-1.258-1.256c0-0.697,0.563-1.258,1.258-1.258h5.031
		c0.695,0,1.259,0.562,1.259,1.258C51.405,12.046,50.841,12.607,50.146,12.607z"/>
</g>
<g>
	<path fill="#262B36" d="M56.144,12.378h-1.141c-0.635,0-1.142-0.509-1.142-1.141c0-0.634,0.507-1.145,1.142-1.145h1.141
		c0.636,0,1.145,0.51,1.145,1.145C57.288,11.869,56.779,12.378,56.144,12.378z"/>
</g>
<g>
	<g>
		<rect x="28.145" y="14.283" fill="#EF4438" width="7.967" height="68.514"/>
	</g>
	<g>
		<rect x="36.112" y="14.283" fill="#F9EB39" width="7.966" height="68.514"/>
	</g>
	<g>
		<rect x="44.078" y="14.283" fill="#4690CD" width="7.967" height="68.514"/>
	</g>
	<g>
		<rect x="51.593" y="14.282" fill="#E81E65" width="7.965" height="68.515"/>
	</g>
	<g>
		<rect x="59.558" y="14.282" fill="#11988A" width="7.969" height="68.515"/>
	</g>
	<g>
		<rect x="65.893" y="14.282" fill="#617F8C" width="7.968" height="68.515"/>
	</g>
</g>
<g>
	<rect x="28.145" y="14.074" fill="#454545" width="45.715" height="2.717"/>
</g>
<g>
	<rect x="28.145" y="80.331" fill="#454545" width="45.715" height="2.718"/>
</g>
<g>
	<rect x="72.438" y="14.282" fill="#454545" width="1.423" height="68.515"/>
</g>
<g>
	<rect x="28.145" y="14.283" fill="#454545" width="1.421" height="68.514"/>
</g>
<g>
	<path fill="#FFFFFF" d="M54.636,46.952c-0.386,0-0.807,0.159-1.182,0.239c-0.029,0.09,0.306,0.527,2.286,1.03
		c1.786,0.479,3.247,2.045,3.247,3.92c0,2.25-2.102,3.571-4.352,3.571c-2.245,0-4.348-1.321-4.348-3.571
		c0-1.958,1.595-3.594,3.492-3.979c0.021-0.003,0.035-0.005,0.052-0.016c0.022-0.004-0.079-0.331-0.31-0.591
		c-0.187-0.202-0.512-0.354-0.521-0.354c-0.018,0.004-0.036,0.018-0.055,0.022c-2.125,0.692-3.778,2.633-3.778,4.917
		c0,2.868,2.605,4.7,5.467,4.7c2.87,0,5.477-1.832,5.477-4.7C60.112,49.271,57.506,46.952,54.636,46.952z"/>
</g>
<g>
	<path fill="#FFFFFF" d="M53.064,45.52c-0.353-0.347-0.582-0.833-0.582-1.367c0-0.929,0.755-1.682,1.683-1.682
		c0.428,0,0.751,0.166,1.046,0.429l0.002-1.351c-0.322-0.128-0.676-0.203-1.048-0.203c-1.553,0-2.805,1.259-2.805,2.807
		c0,1.553,1.768,3.369,3.397,3.769c0.521,0.131,0.509-0.607,0.934-0.861C54.312,46.746,53.41,45.855,53.064,45.52z"/>
</g>
<g>
	<rect x="54.363" y="29.34" fill="#FFFFFF" width="0.848" height="13.109"/>
</g>
<g>
	<path fill="#FFFFFF" d="M55.965,29.579c0,0.127-0.107,0.233-0.237,0.233c-0.127,0-0.233-0.106-0.233-0.233
		c0-0.131,0.106-0.239,0.233-0.239C55.858,29.34,55.965,29.447,55.965,29.579z"/>
</g>
<g>
	<path fill="#FFFFFF" d="M54.082,29.579c0,0.127-0.104,0.233-0.238,0.233c-0.13,0-0.235-0.106-0.235-0.233
		c0-0.131,0.105-0.239,0.235-0.239C53.978,29.34,54.082,29.447,54.082,29.579z"/>
</g>
<g>
	<path fill="#FFFFFF" d="M55.965,30.417c0,0.131-0.107,0.239-0.237,0.239c-0.127,0-0.233-0.108-0.233-0.239
		c0-0.129,0.106-0.234,0.233-0.234C55.858,30.183,55.965,30.289,55.965,30.417z"/>
</g>
<g>
	<path fill="#FFFFFF" d="M54.082,30.417c0,0.131-0.104,0.239-0.238,0.239c-0.13,0-0.235-0.108-0.235-0.239
		c0-0.129,0.105-0.234,0.235-0.234C53.978,30.183,54.082,30.289,54.082,30.417z"/>
</g>
<g>
	<path fill="#FFFFFF" d="M55.965,31.261c0,0.131-0.107,0.238-0.237,0.238c-0.127,0-0.233-0.106-0.233-0.238
		c0-0.132,0.106-0.238,0.233-0.238C55.858,31.022,55.965,31.129,55.965,31.261z"/>
</g>
<g>
	<path fill="#FFFFFF" d="M54.082,31.261c0,0.131-0.104,0.238-0.238,0.238c-0.13,0-0.235-0.106-0.235-0.238
		c0-0.132,0.105-0.238,0.235-0.238C53.978,31.022,54.082,31.129,54.082,31.261z"/>
</g>
<g>
	<g>
		<g>
			<path fill="#FFFFFF" d="M39.234,36.638c0.142,0.348,0.213,0.743,0.213,1.185c0,0.404-0.071,0.795-0.213,1.175
				c-0.143,0.364-0.336,0.673-0.581,0.925c-0.228,0.262-0.521,0.467-0.875,0.618c-0.332,0.149-0.702,0.226-1.112,0.226
				c-0.275,0-0.537-0.037-0.781-0.107c-0.134-0.04-0.258-0.086-0.372-0.137c-0.114-0.051-0.226-0.113-0.337-0.182
				c-0.111-0.072-0.215-0.15-0.313-0.232c-0.1-0.083-0.191-0.181-0.278-0.292c-0.087-0.102-0.165-0.212-0.23-0.331
				c-0.067-0.119-0.133-0.247-0.194-0.38c-0.068-0.135-0.121-0.288-0.164-0.463c-0.042-0.173-0.074-0.352-0.1-0.533
				c-0.015-0.071-0.025-0.219-0.029-0.445c-0.003-0.226-0.009-0.502-0.018-0.83c-0.007-0.33-0.012-0.689-0.012-1.081
				c0-0.391,0-0.788,0-1.19V31.43h0.284l-0.011,5.112c0.119-0.277,0.27-0.522,0.461-0.734c0.189-0.215,0.399-0.392,0.627-0.535
				c0.442-0.276,0.931-0.416,1.467-0.416c0.419,0,0.793,0.075,1.125,0.226c0.338,0.143,0.631,0.349,0.875,0.618
				C38.918,35.961,39.106,36.273,39.234,36.638z M38.997,38.867c0.119-0.332,0.176-0.679,0.176-1.044
				c0-0.363-0.058-0.711-0.176-1.042c-0.117-0.325-0.285-0.613-0.497-0.867c-0.214-0.245-0.477-0.446-0.793-0.604
				c-0.3-0.15-0.646-0.225-1.041-0.225c-0.372,0-0.714,0.072-1.03,0.214c-0.314,0.159-0.578,0.355-0.792,0.593
				c-0.229,0.252-0.406,0.542-0.531,0.866c-0.135,0.34-0.202,0.692-0.202,1.055c0,0.363,0.067,0.716,0.202,1.055
				c0.125,0.325,0.302,0.614,0.531,0.866c0.215,0.237,0.478,0.434,0.792,0.593c0.316,0.142,0.659,0.215,1.03,0.215
				c0.388,0,0.734-0.073,1.041-0.215c0.316-0.159,0.58-0.355,0.793-0.593C38.712,39.48,38.88,39.191,38.997,38.867z"/>
			<path fill="#FFFFFF" d="M36.666,41.066c-0.298,0-0.589-0.04-0.864-0.119c-0.15-0.045-0.287-0.096-0.412-0.152
				c-0.126-0.057-0.25-0.124-0.373-0.201c-0.126-0.083-0.241-0.168-0.348-0.258c-0.11-0.092-0.216-0.202-0.32-0.336
				c-0.092-0.106-0.182-0.235-0.257-0.37c-0.07-0.123-0.14-0.259-0.205-0.4c-0.072-0.144-0.133-0.316-0.182-0.518
				c-0.044-0.183-0.078-0.371-0.105-0.561c-0.014-0.06-0.027-0.227-0.032-0.481c-0.003-0.227-0.009-0.501-0.018-0.828
				c-0.007-0.333-0.012-0.694-0.012-1.088V31.13h0.885l-0.01,4.406c0.188-0.201,0.399-0.375,0.627-0.518
				c0.874-0.545,2.035-0.59,2.875-0.208c0.373,0.157,0.702,0.391,0.973,0.689c0.273,0.279,0.487,0.632,0.63,1.039
				c0.15,0.369,0.229,0.806,0.229,1.284c0,0.437-0.078,0.867-0.231,1.28c-0.159,0.405-0.376,0.75-0.646,1.029
				c-0.244,0.281-0.575,0.516-0.974,0.685C37.53,40.981,37.114,41.066,36.666,41.066z M36.666,35.383
				c-0.33,0-0.626,0.062-0.907,0.188c-0.272,0.138-0.503,0.311-0.693,0.521c-0.203,0.223-0.362,0.483-0.474,0.773
				c-0.121,0.304-0.182,0.622-0.182,0.947c0,0.325,0.061,0.643,0.181,0.944c0.113,0.292,0.272,0.553,0.475,0.775
				c0.191,0.211,0.422,0.384,0.706,0.526c0.548,0.246,1.283,0.24,1.81-0.004c0.276-0.139,0.506-0.311,0.697-0.521
				c0.185-0.221,0.334-0.481,0.438-0.768c0.106-0.298,0.159-0.606,0.159-0.942c0-0.331-0.054-0.647-0.159-0.941
				c-0.102-0.283-0.252-0.544-0.445-0.776c-0.186-0.212-0.416-0.387-0.697-0.528C37.312,35.447,37.016,35.383,36.666,35.383z"/>
		</g>
		<g>
			<path fill="#FFFFFF" d="M40.93,37.752c0,0.175,0.013,0.344,0.041,0.509c0.029,0.167,0.066,0.333,0.113,0.499
				c0.103,0.333,0.257,0.628,0.463,0.89c0.197,0.262,0.459,0.475,0.783,0.641c0.332,0.157,0.703,0.236,1.116,0.236
				c0.45,0,0.837-0.086,1.161-0.26c0.348-0.182,0.646-0.435,0.891-0.76l0.19,0.167c-0.278,0.356-0.598,0.628-0.962,0.818
				c-0.356,0.182-0.783,0.274-1.28,0.274c-0.419,0-0.795-0.075-1.127-0.226c-0.174-0.072-0.332-0.159-0.474-0.263
				c-0.143-0.103-0.277-0.221-0.404-0.355c-0.252-0.269-0.443-0.588-0.571-0.961c-0.141-0.378-0.211-0.782-0.211-1.208
				c0-0.411,0.07-0.799,0.211-1.162c0.143-0.356,0.334-0.664,0.571-0.926c0.238-0.261,0.519-0.458,0.843-0.592
				c0.331-0.143,0.679-0.215,1.043-0.215c0.443,0,0.826,0.075,1.15,0.226c0.324,0.158,0.592,0.36,0.807,0.604
				c0.206,0.247,0.364,0.53,0.475,0.854c0.11,0.333,0.166,0.657,0.166,0.973v0.238H40.93L40.93,37.752z M45.649,37.515
				c-0.016-0.371-0.079-0.7-0.19-0.984c-0.118-0.301-0.276-0.557-0.473-0.771c-0.198-0.206-0.439-0.371-0.725-0.498
				c-0.284-0.12-0.6-0.179-0.948-0.179c-0.427,0-0.788,0.087-1.078,0.262c-0.301,0.181-0.547,0.396-0.735,0.64
				c-0.096,0.136-0.179,0.267-0.25,0.397c-0.07,0.132-0.127,0.267-0.166,0.41c-0.046,0.134-0.082,0.262-0.1,0.386
				c-0.021,0.122-0.031,0.235-0.031,0.337H45.649L45.649,37.515z"/>
			<path fill="#FFFFFF" d="M43.445,41.066c-0.46,0-0.881-0.084-1.251-0.252c-0.188-0.078-0.369-0.178-0.528-0.294
				c-0.153-0.11-0.304-0.243-0.445-0.392c-0.282-0.3-0.496-0.66-0.637-1.07c-0.15-0.402-0.228-0.844-0.228-1.306
				c0-0.447,0.078-0.875,0.231-1.271c0.156-0.388,0.367-0.729,0.628-1.019c0.27-0.295,0.589-0.52,0.952-0.668
				c0.797-0.345,1.772-0.293,2.434,0.016c0.362,0.177,0.665,0.404,0.906,0.679c0.234,0.281,0.412,0.6,0.533,0.955
				c0.121,0.364,0.182,0.723,0.182,1.07v0.538h-4.978c0.006,0.054,0.013,0.107,0.021,0.161c0.027,0.155,0.062,0.311,0.106,0.467
				c0.09,0.292,0.225,0.551,0.409,0.784c0.17,0.227,0.399,0.414,0.685,0.561c0.587,0.277,1.464,0.263,1.998-0.022
				c0.311-0.162,0.577-0.389,0.792-0.676l0.195-0.258l0.646,0.568l-0.174,0.223c-0.304,0.39-0.661,0.692-1.06,0.899
				C44.461,40.963,43.985,41.066,43.445,41.066z M41.282,37.215h4.041c-0.028-0.212-0.076-0.404-0.143-0.574
				c-0.104-0.267-0.24-0.488-0.415-0.678c-0.165-0.171-0.377-0.316-0.625-0.426c-0.528-0.224-1.31-0.2-1.75,0.065
				c-0.267,0.161-0.486,0.351-0.653,0.566c-0.082,0.116-0.158,0.237-0.224,0.358c-0.063,0.118-0.109,0.232-0.14,0.345
				C41.328,37.002,41.297,37.111,41.282,37.215z"/>
		</g>
		<g>
			<path fill="#FFFFFF" d="M47.465,38.986c-0.135-0.38-0.202-0.775-0.202-1.186c0-0.404,0.067-0.795,0.202-1.175
				c0.142-0.364,0.336-0.673,0.581-0.924c0.245-0.269,0.538-0.475,0.877-0.618c0.332-0.151,0.709-0.226,1.127-0.226
				c0.26,0,0.517,0.036,0.771,0.107c0.262,0.072,0.499,0.178,0.713,0.32c0.108,0.071,0.216,0.148,0.314,0.231
				c0.097,0.083,0.189,0.181,0.276,0.292c0.089,0.102,0.167,0.212,0.236,0.331c0.072,0.119,0.14,0.246,0.203,0.38
				c0.056,0.134,0.104,0.288,0.148,0.463c0.044,0.174,0.076,0.352,0.102,0.533c0.005,0.071,0.014,0.171,0.024,0.297
				c0.007,0.126,0.014,0.269,0.017,0.427c0.004,0.159,0.007,0.326,0.007,0.505c0,0.177,0,0.353,0,0.526
				c0,0.412-0.005,0.854-0.013,1.329h-0.285l0.036-1.519c-0.118,0.277-0.272,0.523-0.461,0.735
				c-0.192,0.215-0.398,0.392-0.618,0.535c-0.459,0.276-0.95,0.416-1.471,0.416c-0.426,0-0.807-0.075-1.138-0.226
				c-0.34-0.144-0.633-0.348-0.879-0.618C47.782,39.662,47.591,39.35,47.465,38.986z M47.701,36.756
				c-0.109,0.348-0.166,0.696-0.166,1.044c0,0.348,0.056,0.695,0.166,1.042c0.121,0.333,0.291,0.621,0.511,0.867
				c0.11,0.134,0.231,0.249,0.362,0.343c0.13,0.095,0.275,0.182,0.433,0.262c0.301,0.15,0.649,0.226,1.043,0.226
				c0.371,0,0.711-0.072,1.02-0.214c0.157-0.079,0.305-0.166,0.439-0.261c0.133-0.095,0.256-0.206,0.367-0.332
				c0.228-0.252,0.405-0.542,0.532-0.866c0.065-0.166,0.11-0.338,0.146-0.515c0.03-0.178,0.046-0.357,0.046-0.54
				c0-0.182-0.016-0.362-0.046-0.54c-0.035-0.177-0.08-0.35-0.146-0.515c-0.127-0.324-0.305-0.613-0.532-0.866
				c-0.111-0.126-0.234-0.238-0.367-0.333c-0.135-0.094-0.282-0.182-0.439-0.26c-0.309-0.142-0.649-0.214-1.02-0.214
				c-0.387,0-0.735,0.072-1.043,0.214c-0.324,0.159-0.589,0.355-0.795,0.593C47.991,36.136,47.821,36.424,47.701,36.756z"/>
			<path fill="#FFFFFF" d="M50.05,41.066c-0.468,0-0.893-0.084-1.262-0.252c-0.374-0.158-0.705-0.391-0.977-0.69
				c-0.276-0.286-0.49-0.638-0.63-1.04c-0.145-0.408-0.218-0.84-0.218-1.284c0-0.437,0.073-0.866,0.219-1.275
				c0.16-0.41,0.377-0.755,0.649-1.034c0.265-0.292,0.596-0.525,0.976-0.685c0.585-0.266,1.368-0.335,2.095-0.131
				c0.295,0.081,0.557,0.199,0.798,0.359c0.116,0.076,0.233,0.161,0.341,0.251c0.114,0.099,0.221,0.21,0.32,0.337
				c0.091,0.104,0.18,0.229,0.259,0.364c0.075,0.124,0.147,0.26,0.216,0.403c0.066,0.159,0.118,0.327,0.168,0.517
				c0.047,0.186,0.081,0.374,0.107,0.566l0.021,0.25c0.013,0.202,0.02,0.349,0.022,0.51c0.004,0.16,0.007,0.329,0.007,0.511v0.526
				c0,0.414-0.005,0.857-0.013,1.334l-0.005,0.295h-0.888l0.02-0.79c-0.184,0.19-0.381,0.355-0.591,0.492
				C51.17,40.912,50.624,41.066,50.05,41.066z M50.05,35.383c-0.34,0-0.649,0.063-0.918,0.187c-0.286,0.141-0.515,0.311-0.693,0.517
				c-0.197,0.219-0.35,0.477-0.456,0.771c-0.097,0.308-0.148,0.629-0.148,0.942c0,0.312,0.051,0.632,0.152,0.953
				c0.104,0.286,0.252,0.538,0.448,0.757c0.103,0.124,0.206,0.222,0.314,0.3c0.119,0.087,0.25,0.165,0.393,0.237
				c0.499,0.249,1.25,0.263,1.802,0.006c0.135-0.067,0.27-0.147,0.393-0.234c0.113-0.081,0.22-0.177,0.314-0.285
				c0.205-0.227,0.365-0.488,0.479-0.777c0.06-0.15,0.099-0.305,0.131-0.464c0.025-0.153,0.04-0.316,0.04-0.481
				c0-0.165-0.015-0.328-0.042-0.49c-0.03-0.151-0.069-0.306-0.129-0.455c-0.113-0.29-0.273-0.551-0.476-0.775
				c-0.098-0.111-0.204-0.208-0.319-0.29c-0.12-0.083-0.255-0.164-0.398-0.235C50.676,35.446,50.375,35.383,50.05,35.383z"/>
		</g>
	</g>
	<g>
		<g>
			<path fill="#FFFFFF" d="M60.561,43.46c0.008,0.092,0.014,0.216,0.021,0.375c0.006,0.158,0.011,0.333,0.015,0.524
				c0.003,0.19,0.006,0.385,0.007,0.583c0.006,0.198,0.007,0.381,0.007,0.549c0,0.168,0,0.307,0,0.419s0,0.178,0,0.198v0.01h-0.227
				v-1.306v-1.018c0-0.342-0.046-0.662-0.141-0.957c-0.052-0.139-0.11-0.267-0.178-0.386c-0.064-0.118-0.138-0.227-0.216-0.327
				c-0.159-0.177-0.352-0.329-0.583-0.454c-0.226-0.112-0.431-0.161-0.618-0.148c-0.187,0.013-0.397,0.066-0.627,0.157
				c-0.114,0.047-0.216,0.109-0.312,0.189c-0.097,0.079-0.186,0.165-0.273,0.255c-0.164,0.191-0.295,0.429-0.395,0.713
				c-0.098,0.29-0.15,0.609-0.15,0.957v2.324h-0.214v-0.01c0-0.02,0-0.085,0-0.198s0-0.251,0-0.419c0-0.168,0.001-0.351,0.005-0.55
				c0.003-0.197,0.007-0.392,0.009-0.582c0.004-0.191,0.008-0.366,0.014-0.524c0.008-0.159,0.015-0.283,0.021-0.376
				c0.013-0.145,0.039-0.287,0.074-0.424c0.037-0.139,0.077-0.268,0.125-0.385c0.044-0.119,0.093-0.225,0.144-0.316
				c0.048-0.094,0.094-0.167,0.131-0.219c0.067-0.085,0.136-0.163,0.209-0.232c0.072-0.069,0.147-0.133,0.227-0.193
				c0.16-0.118,0.332-0.207,0.525-0.267c0.184-0.059,0.349-0.089,0.494-0.089c0.144,0,0.303,0.03,0.473,0.089
				c0.178,0.053,0.354,0.142,0.524,0.267c0.079,0.06,0.155,0.124,0.228,0.193c0.074,0.07,0.143,0.147,0.207,0.232
				c0.04,0.052,0.084,0.125,0.134,0.219c0.05,0.091,0.096,0.197,0.144,0.316c0.045,0.118,0.088,0.246,0.122,0.385
				C60.523,43.172,60.548,43.315,60.561,43.46z"/>
			<path fill="#FFFFFF" d="M60.61,46.418h-0.526v-2.624c0-0.313-0.043-0.604-0.127-0.865c-0.041-0.111-0.093-0.225-0.152-0.331
				c-0.059-0.106-0.123-0.202-0.191-0.29c-0.127-0.14-0.291-0.267-0.489-0.374c-0.149-0.074-0.292-0.114-0.415-0.114
				c-0.193,0.012-0.374,0.058-0.577,0.138c-0.08,0.033-0.156,0.079-0.229,0.14c-0.091,0.074-0.171,0.152-0.25,0.234
				c-0.126,0.148-0.24,0.355-0.327,0.604c-0.088,0.262-0.134,0.551-0.134,0.858v2.624h-0.813v-0.927c0-0.17,0.001-0.355,0.005-0.556
				l0.009-0.579c0.004-0.196,0.008-0.373,0.014-0.532l0.021-0.384c0.015-0.168,0.044-0.327,0.083-0.479
				c0.042-0.155,0.086-0.295,0.138-0.424c0.047-0.126,0.103-0.246,0.16-0.349c0.051-0.1,0.104-0.185,0.148-0.247
				c0.085-0.109,0.163-0.196,0.246-0.276c0.08-0.077,0.164-0.147,0.252-0.214c0.195-0.144,0.396-0.246,0.619-0.314
				C58.499,41,58.819,41,59.225,41.14c0.199,0.06,0.406,0.165,0.604,0.308c0.093,0.071,0.178,0.142,0.258,0.218
				c0.085,0.08,0.164,0.169,0.239,0.269c0.047,0.061,0.1,0.147,0.159,0.259c0.054,0.098,0.104,0.213,0.157,0.345
				c0.051,0.133,0.098,0.273,0.135,0.425c0.041,0.146,0.068,0.307,0.083,0.47c0.008,0.09,0.014,0.208,0.021,0.358
				c0.008,0.192,0.013,0.369,0.017,0.561l0.007,0.587c0.006,0.194,0.007,0.379,0.007,0.551v0.917L60.61,46.418z"/>
		</g>
		<g>
			<path fill="#FFFFFF" d="M62.469,39.733c-0.066,0-0.122-0.022-0.168-0.069c-0.048-0.059-0.068-0.122-0.068-0.187
				c0-0.065,0.021-0.129,0.068-0.188c0.045-0.045,0.102-0.07,0.168-0.07c0.059,0,0.111,0.024,0.159,0.07
				c0.043,0.046,0.069,0.109,0.069,0.188c0,0.08-0.026,0.141-0.069,0.187C62.573,39.71,62.522,39.733,62.469,39.733z M62.35,46.128
				v-4.646h0.228v4.646H62.35L62.35,46.128z"/>
			<path fill="#FFFFFF" d="M62.877,46.428H62.05v-5.245h0.827V46.428z M62.469,40.033c-0.148,0-0.28-0.055-0.382-0.159
				c-0.107-0.129-0.154-0.259-0.154-0.397s0.047-0.268,0.136-0.377c0.231-0.239,0.549-0.234,0.766-0.028
				c0.111,0.118,0.163,0.253,0.163,0.405c0,0.151-0.052,0.287-0.15,0.392C62.714,39.985,62.595,40.033,62.469,40.033z"/>
		</g>
		<g>
			<path fill="#FFFFFF" d="M66.452,38.606c-0.034-0.013-0.068-0.02-0.104-0.023c-0.036-0.004-0.07-0.009-0.104-0.016
				c-0.031-0.006-0.067-0.009-0.102-0.009c-0.039,0-0.071,0-0.104,0c-0.192,0-0.348,0.036-0.464,0.108
				c-0.119,0.067-0.221,0.162-0.307,0.287s-0.142,0.257-0.169,0.395c-0.021,0.072-0.034,0.148-0.039,0.228
				c-0.008,0.079-0.011,0.154-0.011,0.227v1.68h1.266v0.188h-1.266v4.458H64.82v-4.458l-0.009-0.188v-1.671
				c0-0.27,0.036-0.503,0.112-0.701c0.069-0.186,0.165-0.332,0.293-0.445c0.126-0.112,0.253-0.188,0.385-0.227
				c0.133-0.046,0.272-0.07,0.425-0.07c0.172,0,0.327,0.02,0.464,0.06L66.452,38.606z"/>
			<path fill="#FFFFFF" d="M65.348,46.428h-0.827l-0.009-6.616c0-0.313,0.043-0.578,0.132-0.809c0.087-0.231,0.21-0.417,0.375-0.562
				c0.161-0.143,0.324-0.238,0.498-0.29c0.323-0.113,0.743-0.101,1.057-0.011l0.27,0.078l-0.17,0.79l-0.325-0.121
				c-0.076-0.011-0.118-0.018-0.159-0.025l-0.151-0.004c-0.134,0-0.239,0.022-0.305,0.063c-0.092,0.052-0.159,0.115-0.219,0.202
				c-0.062,0.089-0.103,0.185-0.122,0.284c-0.021,0.078-0.03,0.132-0.033,0.188c-0.008,0.08-0.011,0.146-0.011,0.209v1.38h1.266
				v0.788h-1.266V46.428z"/>
		</g>
		<g>
			<path fill="#FFFFFF" d="M69.979,38.606c-0.031-0.013-0.066-0.02-0.103-0.023c-0.037-0.004-0.07-0.009-0.105-0.016
				c-0.031-0.006-0.067-0.009-0.102-0.009c-0.036,0-0.073,0-0.104,0c-0.191,0-0.348,0.036-0.463,0.108
				c-0.122,0.067-0.222,0.162-0.307,0.287c-0.086,0.125-0.142,0.257-0.169,0.395c-0.021,0.072-0.034,0.148-0.041,0.228
				c-0.006,0.079-0.009,0.154-0.009,0.227v1.68h1.265v0.188h-1.265v4.458h-0.229v-4.458l-0.01-0.188v-1.671
				c0-0.27,0.039-0.503,0.113-0.701c0.07-0.186,0.168-0.332,0.294-0.445c0.125-0.112,0.253-0.188,0.384-0.227
				c0.133-0.046,0.276-0.07,0.427-0.07c0.172,0,0.326,0.02,0.463,0.06L69.979,38.606z"/>
			<path fill="#FFFFFF" d="M68.877,46.428h-0.829l-0.01-6.616c0-0.301,0.044-0.572,0.132-0.807c0.087-0.229,0.213-0.417,0.375-0.563
				c0.158-0.142,0.326-0.24,0.498-0.291c0.319-0.111,0.745-0.102,1.059-0.011l0.271,0.078l-0.176,0.799l-0.33-0.134
				c-0.065-0.008-0.105-0.014-0.148-0.021l-0.152-0.005c-0.169,0-0.258,0.034-0.303,0.063c-0.095,0.052-0.159,0.113-0.219,0.201
				c-0.063,0.09-0.104,0.186-0.123,0.285c-0.021,0.076-0.03,0.13-0.036,0.195c-0.005,0.068-0.008,0.136-0.008,0.202v1.38h1.265
				v0.788h-1.265V46.428z"/>
		</g>
	</g>
</g>
</svg>
