<?xml version="1.0" encoding="utf-8"?>
<!-- Generator: Adobe Illustrator 16.0.0, SVG Export Plug-In . SVG Version: 6.00 Build 0)  -->
<!DOCTYPE svg PUBLIC "-//W3C//DTD SVG 1.1//EN" "http://www.w3.org/Graphics/SVG/1.1/DTD/svg11.dtd">
<svg version="1.1" id="Capa_1" xmlns="http://www.w3.org/2000/svg" xmlns:xlink="http://www.w3.org/1999/xlink" x="0px" y="0px"
	 width="510px" height="510px" viewBox="0 0 510 510" enable-background="new 0 0 510 510" xml:space="preserve">
<path fill="#777777" d="M265.231,86.5c-96.65,0-175,78.347-175,175c0,96.647,78.35,175,175,175c96.648,0,175-78.353,175-175
	C440.231,164.847,361.88,86.5,265.231,86.5z M251.352,152.576h27.76v68.192l-3.018,80.859h-21.726l-3.017-80.859V152.576z
	 M279.863,364.389c-3.922,4.025-8.799,6.035-14.633,6.035c-5.634,0-10.46-2.01-14.484-6.035c-4.024-4.021-6.033-8.85-6.033-14.487
	c0-5.826,2.009-10.707,6.033-14.632c4.024-3.918,8.851-5.883,14.484-5.883c5.834,0,10.711,1.965,14.633,5.883
	c3.925,3.925,5.884,8.806,5.884,14.632C285.747,355.539,283.788,360.368,279.863,364.389z"/>
</svg>
