<?xml version="1.0" encoding="utf-8"?>
<!-- Generator: Adobe Illustrator 16.0.0, SVG Export Plug-In . SVG Version: 6.00 Build 0)  -->
<!DOCTYPE svg PUBLIC "-//W3C//DTD SVG 1.1//EN" "http://www.w3.org/Graphics/SVG/1.1/DTD/svg11.dtd">
<svg version="1.1" id="Layer_1" xmlns="http://www.w3.org/2000/svg" xmlns:xlink="http://www.w3.org/1999/xlink" x="0px" y="0px"
	 width="64px" height="64px" viewBox="0 0 64 64" enable-background="new 0 0 64 64" xml:space="preserve">
<g id="Layer_1_1_">
	<g>
		<circle fill="#777777" cx="32" cy="32" r="32"/>
	</g>
	<g opacity="0.2">
		<g>
			<path fill="#777777" d="M49.982,31.003c-0.094-5.522-4.574-10.442-10.107-10.442c-3.2,0-6.02,1.674-7.875,4.131
				c-1.856-2.457-4.676-4.131-7.875-4.131c-5.533,0-10.012,4.921-10.107,10.442H14c0,0.034,0.007,0.065,0.007,0.099
				c0,0.025-0.007,0.049-0.007,0.076c0,0.155,0.038,0.272,0.045,0.421c0.495,14.071,17.813,19.84,17.813,19.84
				S49.43,45.677,49.95,31.621C49.959,31.464,50,31.34,50,31.178c0-0.027-0.007-0.052-0.007-0.076c0-0.036,0.007-0.065,0.007-0.099
				H49.982z"/>
		</g>
	</g>
	<g>
		<g>
			<path fill="#555555" d="M49.982,29.003c-0.094-5.522-4.574-10.442-10.107-10.442c-3.2,0-6.02,1.674-7.875,4.131
				c-1.856-2.457-4.676-4.131-7.875-4.131c-5.533,0-10.012,4.921-10.107,10.442H14c0,0.034,0.007,0.065,0.007,0.099
				c0,0.025-0.007,0.049-0.007,0.076c0,0.155,0.038,0.272,0.045,0.421c0.495,14.071,17.813,19.84,17.813,19.84
				S49.43,43.677,49.95,29.621C49.959,29.464,50,29.34,50,29.178c0-0.027-0.007-0.052-0.007-0.076c0-0.036,0.007-0.065,0.007-0.099
				H49.982z"/>
		</g>
	</g>
</g>
<g id="Layer_2">
</g>
</svg>
