<?xml version="1.0" encoding="utf-8"?>
<!-- Generator: Adobe Illustrator 16.0.0, SVG Export Plug-In . SVG Version: 6.00 Build 0)  -->
<!DOCTYPE svg PUBLIC "-//W3C//DTD SVG 1.1//EN" "http://www.w3.org/Graphics/SVG/1.1/DTD/svg11.dtd">
<svg version="1.1" id="Layer_1" xmlns="http://www.w3.org/2000/svg" xmlns:xlink="http://www.w3.org/1999/xlink" x="0px" y="0px"
	 width="30px" height="30px" viewBox="0 0 30 30" enable-background="new 0 0 30 30" xml:space="preserve">
<g>
	<circle fill="#2196F3" cx="15" cy="15" r="15"/>
</g>
<g>
	<path fill="#FFFFFF" d="M14.967,6.93c-4.44,0-8.037,3.596-8.037,8.033c0,4.443,3.597,8.037,8.037,8.037
		c4.435,0,8.034-3.594,8.034-8.037C23.001,10.526,19.401,6.93,14.967,6.93z M14.967,22.037c-3.906,0-7.073-3.167-7.073-7.074
		c0-3.902,3.167-7.069,7.073-7.069c3.901,0,7.065,3.167,7.065,7.069C22.032,18.87,18.868,22.037,14.967,22.037z"/>
	<path fill="#FFFFFF" d="M14.967,5c1.216,0,2.208,0.989,2.208,2.211S16.183,9.42,14.967,9.42c-1.224,0-2.211-0.987-2.211-2.209
		S13.743,5,14.967,5z"/>
	<path fill="#FFFFFF" d="M21.751,16.488c1.227,0,2.215,0.992,2.215,2.215c0,1.218-0.988,2.21-2.215,2.21
		c-1.215,0-2.207-0.992-2.207-2.21C19.544,17.48,20.536,16.488,21.751,16.488z"/>
	<path fill="#FFFFFF" d="M8.055,16.488c1.222,0,2.209,0.992,2.209,2.215c0,1.218-0.987,2.21-2.209,2.21s-2.211-0.992-2.211-2.21
		C5.844,17.48,6.833,16.488,8.055,16.488z"/>
</g>
</svg>
