<?xml version="1.0" encoding="utf-8"?>
<!-- Generator: Adobe Illustrator 16.0.0, SVG Export Plug-In . SVG Version: 6.00 Build 0)  -->
<!DOCTYPE svg PUBLIC "-//W3C//DTD SVG 1.1//EN" "http://www.w3.org/Graphics/SVG/1.1/DTD/svg11.dtd">
<svg version="1.1" id="Layer_1" xmlns="http://www.w3.org/2000/svg" xmlns:xlink="http://www.w3.org/1999/xlink" x="0px" y="0px"
	 width="50px" height="20.333px" viewBox="0 0 50 20.333" enable-background="new 0 0 50 20.333" xml:space="preserve">
<g>
	<path fill="#ABABAB" d="M41.059,4.768c-1.096-0.063-2.284-0.132-3.541-0.174c-1.257-0.045-2.583-0.109-3.952-0.14
		c-1.778-0.054-3.192-0.071-4.227-0.09c-1.438-0.02-2.9-0.028-4.363-0.031c-2.924-0.001-5.849,0.036-8.59,0.107
		c-1.37,0.031-2.695,0.086-3.952,0.14c-1.257,0.044-2.444,0.108-3.542,0.175C7.796,4.811,6.791,4.88,5.898,4.948
		C5.008,5.005,4.23,5.076,3.592,5.135c-1.279,0.112-2.01,0.199-2.01,0.199s0.731,0.091,2.01,0.203
		C4.23,5.592,5.008,5.663,5.898,5.725c0.892,0.067,1.897,0.137,2.993,0.192c1.098,0.067,2.284,0.128,3.542,0.175
		c1.257,0.05,2.582,0.104,3.952,0.14c2.741,0.071,5.666,0.108,8.59,0.107c1.463-0.007,2.926-0.012,4.363-0.035
		c1.438-0.019,2.856-0.044,4.227-0.086c1.369-0.029,2.695-0.095,3.952-0.14c1.257-0.041,2.445-0.115,3.541-0.174
		c2.195-0.119,4.021-0.261,5.302-0.371s2.011-0.199,2.011-0.199S47.642,5.25,46.36,5.139S43.254,4.884,41.059,4.768z"/>
	<path fill="#ABABAB" d="M21.094,9.313c-0.601,0.041-1.336,0.184-1.779,0.484c-0.886,0.589-0.5,1.511-0.432,1.629
		c0.068,0.114,0.77,0.837,1.677,0.234c0.446-0.304,0.819-0.875,1.108-1.383c0.292-0.48,0.511-0.926,0.511-0.926
		S21.717,9.292,21.094,9.313z"/>
	<path fill="#ABABAB" d="M23.774,15.45c-0.02,2.445,0.963,2.886,1.098,2.884c0.134-0.003,1.124-0.421,1.144-2.867
		c0.02-2.441-1.074-5.989-1.074-5.989S23.793,13.004,23.774,15.45z"/>
	<path fill="#ABABAB" d="M30.638,9.797c-0.441-0.301-1.179-0.443-1.78-0.484c-0.624-0.021-1.083,0.041-1.083,0.041
		s0.214,0.443,0.509,0.925c0.29,0.507,0.661,1.078,1.108,1.382c0.905,0.603,1.613-0.119,1.679-0.233
		C31.133,11.306,31.523,10.386,30.638,9.797z"/>
</g>
</svg>
