<?xml version="1.0" encoding="utf-8"?>
<!-- Generator: Adobe Illustrator 16.0.0, SVG Export Plug-In . SVG Version: 6.00 Build 0)  -->
<!DOCTYPE svg PUBLIC "-//W3C//DTD SVG 1.1//EN" "http://www.w3.org/Graphics/SVG/1.1/DTD/svg11.dtd">
<svg version="1.1" id="Layer_1" xmlns="http://www.w3.org/2000/svg" xmlns:xlink="http://www.w3.org/1999/xlink" x="0px" y="0px"
	 width="50px" height="17.875px" viewBox="0 0 50 17.875" enable-background="new 0 0 50 17.875" xml:space="preserve">
<path fill="#ABABAB" d="M10.706,15.777c1.054,0.054,2.197,0.109,3.406,0.146c1.208,0.041,2.483,0.095,3.801,0.112
	c1.318,0.026,2.68,0.068,4.064,0.076c1.385,0.009,2.791,0.019,4.197,0.028c1.408-0.01,2.813-0.02,4.197-0.026
	c1.385-0.002,2.746-0.046,4.064-0.073c1.318-0.018,2.594-0.068,3.801-0.11c1.21-0.038,2.353-0.09,3.406-0.147
	c2.109-0.102,3.867-0.224,5.098-0.321c1.231-0.093,1.934-0.166,1.934-0.166s-0.702-0.07-1.934-0.168
	c-1.23-0.096-2.988-0.218-5.098-0.317c-1.054-0.054-2.196-0.11-3.406-0.148c-1.207-0.044-2.482-0.088-3.801-0.113
	c-1.318-0.019-2.68-0.063-4.064-0.07c-0.741-0.008-1.49-0.01-2.237-0.018c1.226-1.249,2.814-3.352,2.814-5.808
	c0-3.898-4.015-6.909-4.185-7.034l-0.583-0.434L25.596,1.62c-0.171,0.125-4.183,3.135-4.183,7.034c0,2.456,1.59,4.559,2.813,5.812
	c-0.753,0.006-1.505,0.014-2.249,0.016c-1.384,0.006-2.746,0.05-4.064,0.076c-1.318,0.018-2.593,0.07-3.801,0.112
	c-1.208,0.037-2.352,0.09-3.406,0.144c-2.108,0.105-3.867,0.224-5.098,0.317c-1.23,0.096-1.934,0.166-1.934,0.166
	s0.704,0.071,1.934,0.166C6.838,15.558,8.598,15.68,10.706,15.777z M26.185,3.685c1.112,1.001,2.798,2.955,2.798,4.968
	c0,1.709-1.162,3.288-2.125,4.304l-0.677-4.304l-0.677,4.304c-0.966-1.016-2.128-2.595-2.128-4.304
	C23.375,6.501,25.218,4.557,26.185,3.685z"/>
<path fill="#ABABAB" d="M19.497,12.281c0.092-0.096,0.542-0.99-0.739-2.277c-1.278-1.287-3.898-2.388-3.898-2.388
	s1.089,2.619,2.369,3.909C18.51,12.815,19.409,12.371,19.497,12.281z"/>
<path fill="#ABABAB" d="M35.117,11.525c1.282-1.29,2.373-3.912,2.373-3.912s-2.619,1.104-3.903,2.391
	c-1.279,1.287-0.835,2.189-0.739,2.277C32.945,12.369,33.842,12.815,35.117,11.525z"/>
</svg>
