<?xml version="1.0" encoding="utf-8"?>
<!-- Generator: Adobe Illustrator 16.0.0, SVG Export Plug-In . SVG Version: 6.00 Build 0)  -->
<!DOCTYPE svg PUBLIC "-//W3C//DTD SVG 1.1//EN" "http://www.w3.org/Graphics/SVG/1.1/DTD/svg11.dtd">
<svg version="1.1" id="Layer_1" xmlns="http://www.w3.org/2000/svg" xmlns:xlink="http://www.w3.org/1999/xlink" x="0px" y="0px"
	 width="200px" height="200px" viewBox="0 0 200 200" enable-background="new 0 0 200 200" xml:space="preserve">
<g>
	<g id="shopping-cart">
		<path fill="#555555" d="M70,148c-7.7,0-14,6.295-14,14s6.3,14,14,14s14-6.295,14-14S77.7,148,70,148z M28,36v14h14l25.2,53.2
			L57.397,120C56.7,122.1,56,124.9,56,127c0,7.705,6.3,14,14,14h84v-14H72.8c-0.697,0-1.402-0.705-1.402-1.4V124.9l6.303-11.901
			h51.8c5.6,0,9.795-2.794,11.9-7L166.6,60.5c1.4-1.397,1.4-2.103,1.4-3.5c0-4.2-2.795-7-7-7H57.397l-6.295-14H28z M140,148
			c-7.705,0-14,6.295-14,14s6.295,14,14,14s14-6.295,14-14S147.705,148,140,148z"/>
	</g>
</g>
</svg>
