<?xml version="1.0" encoding="utf-8"?>
<!-- Generator: Adobe Illustrator 16.0.0, SVG Export Plug-In . SVG Version: 6.00 Build 0)  -->
<!DOCTYPE svg PUBLIC "-//W3C//DTD SVG 1.1//EN" "http://www.w3.org/Graphics/SVG/1.1/DTD/svg11.dtd">
<svg version="1.1" id="Capa_1" xmlns="http://www.w3.org/2000/svg" xmlns:xlink="http://www.w3.org/1999/xlink" x="0px" y="0px"
	 width="507.451px" height="507.45px" viewBox="0 0 507.451 507.45" enable-background="new 0 0 507.451 507.45"
	 xml:space="preserve">
<path fill="#444444" d="M334.359,335.633c-17.48,28.459-45.986,46.309-79.681,46.309c-33.496,0-62.914-17.987-80.444-46.309H334.359
	z"/>
<path fill="#444444" d="M256.123,242.731c-1.914,0.001-3.774,0.05-5.693,0.05c-90.072,0-158.762-25.712-158.762-10.712
	c0,33.675-13.785,86.551,76.263,89.138c40.85,1.163,60.283-26.024,69.352-56.025c1.38-4.494,10.08-6.646,18.661-6.278
	c0.091-0.321,0.274-0.604,0.329-0.89C255.852,255.292,255.852,245.058,256.123,242.731z"/>
<path fill="#444444" d="M421.969,157.047c0,8.503,12.148,88.428-8.717,85.64c-44.484-5.906-144.232-106.313-165.237-98.066
	c-11.998,4.692,20.952,38.511,80.437,79.55c-87.233-26.721-140.692-87.866-145.03-87.658c-7.123,0.331,22.665,41.674,83.251,86.439
	c-105.349-20.532-123.306-56.415-151.781-66.538c-5.346-1.898,20.111,34.498,15.281,32.342
	c-30.847-13.991-44.786-10.267-44.786-31.689c0-42.608,76.663-33.583,169.619-33.583
	C347.914,123.483,421.969,114.457,421.969,157.047z"/>
<path fill="#444444" d="M253.426,242.731c1.902,0.001,3.776,0.05,5.66,0.05c90.091,0,158.76-25.712,158.76-10.712
	c0,33.675,13.825,86.551-76.263,89.138c-40.825,1.163-60.278-26.024-69.331-56.025c-1.36-4.494-10.078-6.646-18.612-6.278
	c-0.138-0.321-0.274-0.604-0.375-0.89C253.686,255.292,253.686,245.058,253.426,242.731z"/>
<path fill="#444444" d="M14.862,282.859h48.585v-85.127c0-14.694-2.109-26.648-15.518-26.648l0,0
	c-13.4,0-33.068-5.391-33.068,26.648V282.859z"/>
<path fill="#444444" d="M446.257,282.901h48.605v-85.077c-0.562-32.833-19.173-26.671-32.578-26.671l0,0
	c-13.41,0-16.027,11.933-16.027,26.671V282.901z"/>
<path fill="#444444" d="M445.924,282.901h19.595l-0.137-133.849c0-33.211-24.476-60.14-54.751-60.14H97.972
	c-30.286,0-54.797,26.928-54.797,60.14l-0.231,133.99h20.504l0.255-119.925c0-29.672,22.2-53.672,49.594-53.672h283.035
	c27.373,0,49.592,24,49.592,53.672V282.901z"/>
<path fill="#444444" d="M383.954,118.491H125.672c-25.03,0-45.235,22.22-45.235,49.643V352.33c0,27.368,20.205,49.672,45.235,49.672
	h258.282c24.982,0,45.28-22.304,45.28-49.672V168.134C429.233,140.711,408.898,118.491,383.954,118.491z M411.144,342.811
	c0,24.559-18.187,44.532-40.55,44.532H139.031c-22.407,0-40.545-19.974-40.545-44.532V177.715c0-24.609,18.138-44.552,40.545-44.552
	h231.563c22.363,0,40.55,19.943,40.55,44.552V342.811z"/>
<circle fill="#EEEEEE" cx="410.451" cy="388.275" r="93"/>
<g>
	<g id="settings_1_">
		<path fill="#444444" d="M459.106,395.239c0-1.992,0.66-3.979,0.66-6.628c0-2.651,0-4.645-0.66-6.64l13.923-11.273
			c1.324-1.32,1.324-2.649,0.664-3.975l-13.267-23.207c-0.66-0.66-1.988-1.33-3.973-0.66l-16.58,6.627
			c-3.313-2.653-7.3-4.646-11.273-6.627l-2.653-17.242c0.66-1.992-1.323-3.319-2.655-3.319h-26.521
			c-1.328,0-3.313,1.327-3.313,2.651l-2.654,17.91c-3.982,1.32-7.299,3.974-11.272,6.627l-15.92-6.627
			c-1.981-0.67-3.313,0-4.636,1.32l-13.265,23.209c-0.663,0.663,0,2.652,1.327,3.984l13.921,10.602c0,1.995-0.661,3.988-0.661,6.64
			c0,2.649,0,4.636,0.661,6.628l-13.921,11.273c-1.327,1.32-1.327,2.653-0.667,3.974l13.267,23.208
			c0.66,0.671,1.992,1.332,3.974,0.671l16.58-6.638c3.313,2.652,7.3,4.646,11.272,6.638l2.654,17.24
			c0,1.322,1.324,2.651,3.313,2.651h26.523c1.333,0,3.32-1.329,3.32-2.651l2.649-17.24c3.983-1.992,7.957-3.985,11.271-6.638
			l16.58,6.638c1.332,0.661,3.314,0,3.982-1.332l13.257-23.207c0.665-1.323,0.665-3.313-0.66-3.975L459.106,395.239z
			 M410.033,411.819c-12.603,0-23.212-10.613-23.212-23.208c0-12.606,10.609-23.213,23.212-23.213
			c12.599,0,23.212,10.606,23.212,23.213C433.245,401.206,422.632,411.819,410.033,411.819z"/>
	</g>
</g>
</svg>
