<?xml version="1.0" encoding="utf-8"?>
<!-- Generator: Adobe Illustrator 16.0.0, SVG Export Plug-In . SVG Version: 6.00 Build 0)  -->
<!DOCTYPE svg PUBLIC "-//W3C//DTD SVG 1.1//EN" "http://www.w3.org/Graphics/SVG/1.1/DTD/svg11.dtd">
<svg version="1.1" id="Layer_1" xmlns="http://www.w3.org/2000/svg" xmlns:xlink="http://www.w3.org/1999/xlink" x="0px" y="0px"
	 width="50px" height="50px" viewBox="0 0 50 50" enable-background="new 0 0 50 50" xml:space="preserve">
<circle fill="#14AA9F" cx="24.356" cy="23.662" r="22"/>
<circle fill="#0D303E" cx="24.356" cy="23.662" r="14.5"/>
<path fill="#174B61" d="M24.919,28.776l1.664,9.215c2.222-0.342,4.276-1.189,6.045-2.42c1.061-0.738,2.019-1.615,2.847-2.604
	c1.626-1.939,2.754-4.313,3.186-6.918l-9.449-1.648C29.211,16.394,16.911,28.776,24.919,28.776z"/>
<path fill="#B4C6CE" d="M27.002,27.599l5.626,7.973c1.061-0.738,2.019-1.615,2.847-2.604l-7.348-6.182
	C28.127,18.779,18.994,27.599,27.002,27.599z"/>
<circle fill="#1A94B0" cx="24.356" cy="23.662" r="5"/>
<circle fill="#0D303E" cx="24.356" cy="23.662" r="1.5"/>
<path fill="#FDFDFE" d="M24.356,19.162c-2.485,0-4.5,2.015-4.5,4.5c0,2.484,2.015,4.499,4.5,4.499s4.5-2.015,4.5-4.499
	C28.856,21.177,26.842,19.162,24.356,19.162z M24.356,27.661c-2.209,0-4-1.791-4-3.999c0-2.209,1.791-4,4-4s4,1.791,4,4
	C28.356,25.871,26.565,27.661,24.356,27.661z"/>
</svg>
