<?xml version="1.0" encoding="utf-8"?>
<!-- Generator: Adobe Illustrator 16.0.0, SVG Export Plug-In . SVG Version: 6.00 Build 0)  -->
<!DOCTYPE svg PUBLIC "-//W3C//DTD SVG 1.1//EN" "http://www.w3.org/Graphics/SVG/1.1/DTD/svg11.dtd">
<svg version="1.1" id="Layer_1" xmlns="http://www.w3.org/2000/svg" xmlns:xlink="http://www.w3.org/1999/xlink" x="0px" y="0px"
	 width="64px" height="64px" viewBox="0 0 64 64" enable-background="new 0 0 64 64" xml:space="preserve">
<path fill="#777777" d="M59.244,10.362c1.166,3.536-1.841,4.595-5.371,5.756c-3.53,1.162-4.367,2.425-5.529-1.111
	c-1.164-3.539,0.766-7.349,4.296-8.512C56.171,5.334,58.082,6.823,59.244,10.362z"/>
<path fill="#555555" d="M48.707,18.396c1.867,0.966-11.369,3.802-16.236,3.76c-4.496-0.037-7.153,0.454-12.311-1.607
	C13.654,17.949,7.112,9.073,8.458,7.912c0.397-0.343,10.393,5.804,21.907,5.429c2.222-0.072,3.724-0.644,6.177-0.749
	c0.633-0.028-1.264-11.001,0.752-10.58C38.429,2.25,43.283,15.587,48.707,18.396z"/>
<path fill="#555555" d="M43.03,28.431c-0.725-0.697-4.396,11.47-5.692,13.478c-1.424,2.206-4.031,2.524-5.609,2.541
	c-1.509,0.017-4.583-0.553-5.943-2.422c-1.625-2.239-4.856-13.884-5.827-12.656c-1.651,2.085,3.626,20.476,4.355,23.248
	c1.177,4.472,1.852,10.519,7.326,10.533c5.295,0.018,6.63-4.863,7.975-11.005C40.391,48.619,45.34,30.659,43.03,28.431z"/>
<circle fill="#555555" cx="31.73" cy="35.022" r="6.592"/>
<path fill="#555555" d="M59.744,27.334c-0.724-0.698-0.236,12.278-1.533,14.287c-1.423,2.206-4.031,2.526-5.608,2.541
	c-1.51,0.017-4.584-0.551-5.943-2.423c-1.625-2.238-4.855-13.882-5.828-12.654c-1.649,2.087,3.627,20.476,4.355,23.247
	c1.179,4.474-0.567,10.806,4.906,10.82c5.296,0.018,9.049-5.15,10.396-11.29C61.262,48.332,62.055,29.56,59.744,27.334z"/>
<path fill="#555555" d="M57.625,34.734c0,3.641-1.383,6.592-5.022,6.592c-3.639,0-6.592-2.951-6.592-6.592
	c0-3.638,2.953-6.591,6.592-6.591C56.242,28.144,57.625,31.097,57.625,34.734z"/>
<path fill="#555555" d="M22.078,28.431c-0.723-0.697-4.396,11.47-5.692,13.478c-1.423,2.206-4.029,2.524-5.607,2.541
	c-1.511,0.017-4.143-0.049-5.503-1.921C3.65,40.289,4.569,26.613,3.598,27.843c-1.65,2.086-1.553,22.063-0.824,24.835
	c1.178,4.474,4.232,10.46,9.706,10.475c5.297,0.018,4.839-4.863,6.185-11.005C19.439,48.619,24.388,30.659,22.078,28.431z"/>
<path fill="#555555" d="M17.371,35.022c0,3.64-2.952,6.592-6.592,6.592c-3.64,0-5.179-2.952-5.179-6.592
	c0-3.641,1.539-6.592,5.179-6.592C14.418,28.431,17.371,31.382,17.371,35.022z"/>
<path fill="#777777" d="M48.707,18.396c1.867,0.966-10.247,4.502-15.113,4.462c-4.495-0.039-8.276-0.25-13.434-2.31
	c-6.506-2.601-14.189-6.803-12.844-7.963c0.398-0.341,11.534,1.129,23.048,0.755c2.22-0.072,3.724-0.644,6.177-0.749
	C37.175,12.563,40.103,2.013,42.162,2C44.08,1.989,43.283,15.587,48.707,18.396z"/>
</svg>
