<?xml version="1.0" encoding="utf-8"?>
<!-- Generator: Adobe Illustrator 16.0.0, SVG Export Plug-In . SVG Version: 6.00 Build 0)  -->
<!DOCTYPE svg PUBLIC "-//W3C//DTD SVG 1.1//EN" "http://www.w3.org/Graphics/SVG/1.1/DTD/svg11.dtd">
<svg version="1.1" id="Layer_1" xmlns="http://www.w3.org/2000/svg" xmlns:xlink="http://www.w3.org/1999/xlink" x="0px" y="0px"
	 width="40px" height="40px" viewBox="0 0 40 40" enable-background="new 0 0 40 40" xml:space="preserve">
<g id="Layer_1_1_">
	<g>
		<g>
			<path fill="none" stroke="#FFFFFF" stroke-width="2" stroke-miterlimit="10" d="M38.384,16.037
				c-0.092-5.484-4.542-10.371-10.036-10.371c-3.18,0-5.979,1.663-7.822,4.103c-1.843-2.44-4.644-4.103-7.82-4.103
				c-5.495,0-9.944,4.887-10.038,10.371H2.648c0,0.033,0.006,0.064,0.006,0.099c0,0.024-0.006,0.049-0.006,0.075
				c0,0.153,0.038,0.271,0.045,0.418c0.492,13.975,17.691,19.705,17.691,19.705s17.45-5.725,17.97-19.683
				c0.008-0.156,0.049-0.279,0.049-0.44c0-0.026-0.008-0.052-0.008-0.075c0-0.036,0.008-0.065,0.008-0.099H38.384z"/>
		</g>
	</g>
</g>
<g id="Layer_2">
</g>
</svg>
