<?xml version="1.0" encoding="utf-8"?>
<!-- Generator: Adobe Illustrator 16.0.0, SVG Export Plug-In . SVG Version: 6.00 Build 0)  -->
<!DOCTYPE svg PUBLIC "-//W3C//DTD SVG 1.1//EN" "http://www.w3.org/Graphics/SVG/1.1/DTD/svg11.dtd">
<svg version="1.1" id="Layer_1" xmlns="http://www.w3.org/2000/svg" xmlns:xlink="http://www.w3.org/1999/xlink" x="0px" y="0px"
	 width="30px" height="30px" viewBox="0 0 30 30" enable-background="new 0 0 30 30" xml:space="preserve">
<path fill="#FFFFFF" d="M24.021,11.67c0-0.837-0.682-1.52-1.515-1.52c-0.84,0-1.522,0.683-1.522,1.52c0,0.26,0.062,0.501,0.18,0.714
	l-2.608,1.366l-2.617-3.423c0.479-0.307,0.796-0.845,0.796-1.454c0-0.958-0.78-1.731-1.734-1.731c-0.958,0-1.73,0.772-1.73,1.731
	c0,0.609,0.316,1.147,0.794,1.454l-2.619,3.423l-2.605-1.366c0.111-0.213,0.176-0.454,0.176-0.714c0-0.837-0.678-1.52-1.518-1.52
	c-0.841,0-1.519,0.683-1.519,1.52c0,0.828,0.661,1.5,1.482,1.518l0.067,0.245l1.724,6.283l0.129,0.469H9.271
	c-0.503,0-0.912,0.405-0.912,0.915v0.249c0,0.503,0.409,0.915,0.912,0.915h11.457c0.503,0,0.915-0.412,0.915-0.915V21.1
	c0-0.51-0.412-0.915-0.915-0.915h-0.109l0.13-0.469l1.722-6.283l0.069-0.245C23.36,13.171,24.021,12.499,24.021,11.67z"/>
<path fill="#EEEEEE" d="M15,22.264h5.727c0.503,0,0.915-0.412,0.915-0.915V21.1c0-0.51-0.412-0.915-0.915-0.915h-0.109l0.13-0.469
	l1.722-6.283l0.069-0.245c0.821-0.017,1.482-0.689,1.482-1.518c0-0.837-0.682-1.52-1.515-1.52c-0.84,0-1.522,0.683-1.522,1.52
	c0,0.26,0.062,0.501,0.18,0.714l-2.608,1.366l-2.617-3.423c0.479-0.307,0.796-0.845,0.796-1.454c0-0.958-0.78-1.731-1.734-1.731
	V22.264z"/>
<g>
	<path fill="#FFFFFF" d="M13.382,28.445c-0.421-0.051-0.719-0.43-0.671-0.85l0,0c0.051-0.423,0.434-0.72,0.855-0.669l0,0
		c0.421,0.044,0.722,0.43,0.671,0.852l0,0c-0.044,0.392-0.379,0.678-0.763,0.678l0,0C13.445,28.456,13.416,28.456,13.382,28.445z
		 M10.22,27.674c-0.396-0.153-0.596-0.598-0.444-0.993l0,0c0.149-0.397,0.593-0.594,0.99-0.439l0,0
		c0.397,0.146,0.596,0.59,0.447,0.985l0,0c-0.117,0.311-0.409,0.497-0.72,0.497l0,0C10.401,27.724,10.31,27.705,10.22,27.674z
		 M7.34,26.164c-0.351-0.248-0.436-0.725-0.197-1.073l0,0c0.24-0.347,0.721-0.432,1.068-0.192l0,0
		c0.348,0.241,0.437,0.718,0.197,1.066l0,0c-0.148,0.214-0.391,0.333-0.632,0.333l0,0C7.623,26.298,7.473,26.253,7.34,26.164z
		 M4.903,24.006L4.903,24.006L4.903,24.006c-0.28-0.316-0.252-0.806,0.065-1.083l0,0c0.316-0.284,0.803-0.256,1.083,0.061l0,0
		c0.284,0.316,0.252,0.806-0.064,1.083l0,0c-0.146,0.132-0.329,0.199-0.508,0.199l0,0C5.267,24.266,5.056,24.174,4.903,24.006z
		 M3.052,21.328c-0.198-0.375-0.053-0.835,0.32-1.035l0,0c0.374-0.195,0.841-0.054,1.04,0.319l0,0
		c0.197,0.382,0.053,0.842-0.324,1.043l0,0C3.976,21.712,3.85,21.74,3.73,21.74l0,0C3.455,21.74,3.189,21.59,3.052,21.328z
		 M1.894,18.288c-0.103-0.414,0.149-0.825,0.561-0.927l0,0c0.414-0.104,0.829,0.144,0.931,0.56l0,0
		c0.103,0.414-0.149,0.832-0.564,0.927l0,0c-0.059,0.019-0.123,0.024-0.184,0.024l0,0C2.293,18.872,1.979,18.637,1.894,18.288z
		 M1.501,15.058c0-0.424,0.343-0.768,0.766-0.768l0,0c0.425,0,0.772,0.344,0.772,0.767l0,0c0.001,0.425-0.343,0.768-0.77,0.773l0,0
		C1.845,15.83,1.501,15.482,1.501,15.058z M2.451,12.759c-0.412-0.102-0.664-0.519-0.565-0.93l0,0
		c0.103-0.412,0.516-0.664,0.93-0.565l0,0c0.412,0.102,0.663,0.52,0.562,0.93l0,0c-0.084,0.349-0.398,0.585-0.743,0.585l0,0
		C2.572,12.779,2.513,12.773,2.451,12.759z M3.36,9.821C2.986,9.624,2.842,9.16,3.039,8.783l0,0C3.237,8.409,3.7,8.265,4.074,8.461
		l0,0c0.377,0.198,0.521,0.661,0.325,1.035l0,0C4.26,9.758,3.993,9.911,3.717,9.911l0,0C3.598,9.911,3.476,9.879,3.36,9.821z
		 M4.953,7.188c-0.317-0.28-0.35-0.766-0.067-1.083l0,0c0.28-0.318,0.766-0.347,1.084-0.067l0,0c0.317,0.28,0.346,0.766,0.066,1.083
		l0,0C5.882,7.294,5.671,7.382,5.459,7.382l0,0C5.28,7.382,5.099,7.318,4.953,7.188z M7.122,5.012
		C6.88,4.666,6.969,4.185,7.316,3.944l0,0c0.351-0.241,0.827-0.156,1.068,0.194l0,0c0.24,0.347,0.156,0.824-0.19,1.069l0,0
		c-0.137,0.091-0.288,0.135-0.44,0.135l0,0C7.511,5.343,7.272,5.23,7.122,5.012z M9.75,3.417c-0.153-0.396,0.045-0.841,0.442-0.991
		l0,0c0.396-0.153,0.841,0.049,0.994,0.445l0,0c0.149,0.396-0.05,0.838-0.446,0.991l0,0c-0.091,0.032-0.183,0.052-0.274,0.052l0,0
		C10.158,3.914,9.864,3.723,9.75,3.417z M12.682,2.501c-0.052-0.422,0.249-0.804,0.669-0.856l0,0
		c0.422-0.052,0.804,0.25,0.856,0.667l0,0c0.053,0.421-0.249,0.804-0.669,0.856l0,0c-0.03,0.006-0.064,0.007-0.094,0.007l0,0
		C13.062,3.176,12.731,2.89,12.682,2.501z"/>
</g>
<g>
	<path fill="#FFFFFF" d="M15.78,27.776c-0.051-0.42,0.25-0.808,0.67-0.858l0,0c0.422-0.044,0.801,0.254,0.854,0.674l0,0
		c0.051,0.422-0.247,0.801-0.669,0.854l0,0c0,0,0,0,0-0.002l0,0c-0.03,0.004-0.06,0.013-0.096,0.013l0,0
		C16.16,28.456,15.829,28.168,15.78,27.776z"/>
	<path fill="#FFFFFF" d="M18.803,27.225c-0.146-0.397,0.049-0.842,0.445-0.994l0,0c0.396-0.147,0.841,0.049,0.994,0.445l0,0
		c0.146,0.396-0.05,0.841-0.445,0.994l0,0c-0.094,0.031-0.183,0.052-0.278,0.052l0,0C19.215,27.722,18.923,27.533,18.803,27.225z"/>
	<path fill="#FFFFFF" d="M21.602,25.959c-0.239-0.347-0.147-0.825,0.199-1.071l0,0c0.347-0.241,0.824-0.149,1.064,0.198l0,0
		c0.248,0.348,0.156,0.824-0.192,1.065l0,0l0,0l0,0c-0.132,0.096-0.286,0.143-0.438,0.143l0,0
		C21.992,26.294,21.754,26.174,21.602,25.959z"/>
	<path fill="#FFFFFF" d="M24.021,24.061c-0.317-0.284-0.345-0.767-0.063-1.083l0,0c0.277-0.318,0.767-0.346,1.083-0.069l0,0
		c0.318,0.284,0.347,0.767,0.063,1.083l0,0l0,0l0,0c-0.146,0.175-0.356,0.261-0.576,0.261l0,0
		C24.354,24.252,24.17,24.19,24.021,24.061z"/>
	<path fill="#FFFFFF" d="M25.92,21.641c-0.375-0.194-0.523-0.663-0.322-1.036l0,0c0.194-0.373,0.661-0.521,1.036-0.32l0,0
		c0.373,0.192,0.521,0.661,0.32,1.034l0,0c-0.136,0.262-0.401,0.414-0.675,0.414l0,0C26.155,21.732,26.031,21.697,25.92,21.641z"/>
	<path fill="#FFFFFF" d="M27.184,18.838c-0.416-0.102-0.664-0.52-0.562-0.927l0,0c0.095-0.416,0.513-0.67,0.927-0.568l0,0
		c0.407,0.104,0.663,0.52,0.562,0.935l0,0c-0.085,0.348-0.399,0.585-0.744,0.585l0,0C27.308,18.862,27.242,18.85,27.184,18.838z"/>
	<path fill="#FFFFFF" d="M26.966,15.044L26.966,15.044c0.001-0.001,0.001-0.003,0.001-0.005l0,0
		c-0.001-0.008-0.001-0.013-0.001-0.021l0,0c0-0.424,0.344-0.768,0.766-0.769l0,0c0.424-0.001,0.769,0.343,0.769,0.767l0,0l0,0l0,0
		c0,0.002,0,0.004,0,0.01l0,0c0.001,0.004,0.001,0.013,0.001,0.018l0,0c0,0.424-0.344,0.768-0.768,0.768l0,0
		C27.31,15.812,26.966,15.468,26.966,15.044z"/>
	<path fill="#FFFFFF" d="M26.611,12.156L26.611,12.156c-0.097-0.412,0.15-0.829,0.564-0.932l0,0
		c0.407-0.099,0.825,0.151,0.929,0.562l0,0c0.104,0.412-0.152,0.83-0.56,0.933l0,0c-0.065,0.015-0.126,0.02-0.185,0.02l0,0
		C27.018,12.738,26.701,12.503,26.611,12.156z"/>
	<path fill="#FFFFFF" d="M25.583,9.463c-0.196-0.376-0.055-0.841,0.325-1.039l0,0c0.373-0.198,0.835-0.054,1.036,0.32l0,0
		c0.194,0.376,0.055,0.84-0.319,1.038l0,0c-0.119,0.062-0.238,0.09-0.36,0.09l0,0C25.991,9.873,25.726,9.722,25.583,9.463z"/>
	<path fill="#FFFFFF" d="M23.94,7.094L23.94,7.094c-0.284-0.316-0.256-0.803,0.061-1.083l0,0c0.316-0.284,0.806-0.253,1.09,0.064
		l0,0c0.277,0.316,0.251,0.799-0.067,1.083l0,0c-0.142,0.131-0.324,0.195-0.507,0.195l0,0C24.304,7.353,24.095,7.265,23.94,7.094z"
		/>
	<path fill="#FFFFFF" d="M21.778,5.185c-0.349-0.24-0.44-0.718-0.194-1.069l0,0c0.241-0.348,0.718-0.437,1.066-0.197l0,0
		c0.347,0.244,0.44,0.72,0.199,1.068l0,0c-0.15,0.218-0.39,0.336-0.633,0.336l0,0C22.064,5.323,21.91,5.276,21.778,5.185z"/>
	<path fill="#FFFFFF" d="M19.223,3.848c-0.396-0.151-0.592-0.593-0.448-0.99l0,0c0.154-0.396,0.597-0.599,0.994-0.447l0,0l0,0l0,0
		c0.396,0.148,0.593,0.593,0.448,0.989l0,0c-0.121,0.307-0.412,0.499-0.725,0.499l0,0C19.405,3.899,19.316,3.88,19.223,3.848z"/>
	<path fill="#FFFFFF" d="M16.424,3.166c-0.422-0.051-0.723-0.433-0.672-0.855l0,0c0.051-0.422,0.432-0.723,0.853-0.672l0,0
		c0.422,0.051,0.72,0.433,0.669,0.854l0,0c-0.04,0.392-0.375,0.676-0.763,0.676l0,0C16.482,3.168,16.453,3.167,16.424,3.166z"/>
</g>
</svg>
