<?xml version="1.0" encoding="utf-8"?>
<!-- Generator: Adobe Illustrator 16.0.0, SVG Export Plug-In . SVG Version: 6.00 Build 0)  -->
<!DOCTYPE svg PUBLIC "-//W3C//DTD SVG 1.1//EN" "http://www.w3.org/Graphics/SVG/1.1/DTD/svg11.dtd">
<svg version="1.1" id="Layer_1" xmlns="http://www.w3.org/2000/svg" xmlns:xlink="http://www.w3.org/1999/xlink" x="0px" y="0px"
	 width="64px" height="64px" viewBox="0 0 64 64" enable-background="new 0 0 64 64" xml:space="preserve">
<g id="Layer_1_1_">
	<g opacity="0.2">
		<g>
			<path fill="#231F20" d="M62.971,28.116c-0.163-9.51-7.879-17.983-17.408-17.983c-5.511,0-10.366,2.882-13.563,7.114
				c-3.197-4.232-8.053-7.114-13.563-7.114c-9.53,0-17.244,8.475-17.407,17.983H1c0,0.06,0.012,0.111,0.012,0.17
				C1.012,28.331,1,28.371,1,28.418c0,0.266,0.066,0.467,0.078,0.725C1.93,53.377,31.755,63.313,31.755,63.313
				s30.263-9.924,31.16-34.131C62.929,28.91,63,28.697,63,28.418c0-0.048-0.012-0.09-0.012-0.132c0-0.062,0.012-0.11,0.012-0.17
				H62.971z"/>
		</g>
	</g>
	<g>
		<g>
			<path fill="#444444" d="M62.971,24.671c-0.163-9.509-7.879-17.983-17.408-17.983c-5.511,0-10.366,2.882-13.563,7.114
				c-3.197-4.232-8.053-7.114-13.563-7.114c-9.53,0-17.244,8.476-17.407,17.983H1c0,0.06,0.012,0.112,0.012,0.171
				C1.012,24.886,1,24.926,1,24.974c0,0.267,0.066,0.468,0.078,0.726C1.93,49.932,31.755,59.868,31.755,59.868
				s30.263-9.925,31.16-34.132C62.929,25.465,63,25.252,63,24.974c0-0.048-0.012-0.09-0.012-0.131c0-0.063,0.012-0.111,0.012-0.171
				H62.971z"/>
		</g>
	</g>
</g>
<g id="Layer_2">
</g>
</svg>
