<?xml version="1.0" encoding="utf-8"?>
<!-- Generator: Adobe Illustrator 16.0.0, SVG Export Plug-In . SVG Version: 6.00 Build 0)  -->
<!DOCTYPE svg PUBLIC "-//W3C//DTD SVG 1.1//EN" "http://www.w3.org/Graphics/SVG/1.1/DTD/svg11.dtd">
<svg version="1.1" id="Layer_1" xmlns="http://www.w3.org/2000/svg" xmlns:xlink="http://www.w3.org/1999/xlink" x="0px" y="0px"
	 width="50px" height="50px" viewBox="0 0 50 50" enable-background="new 0 0 50 50" xml:space="preserve">
<rect x="2.354" y="13.292" transform="matrix(0.2905 0.9569 -0.9569 0.2905 38.7769 -2.4609)" fill="#FFFFFF" width="37.388" height="23.251"/>
<circle fill="#81C784" cx="21.022" cy="25.011" r="7.5"/>
<path fill="#81C784" d="M10.762,9.25c-0.201-0.662-0.536-1.243-0.958-1.735L3.313,9.485l1.77,5.832
	c0.792,0.184,1.638,0.188,2.472-0.064C10.099,14.48,11.534,11.792,10.762,9.25z"/>
<path fill="#81C784" d="M20.912,4.143C20.64,5.027,20.619,6,20.908,6.954c0.772,2.542,3.459,3.979,6.003,3.207
	c0.875-0.266,1.607-0.77,2.175-1.406L27.115,2.26L20.912,4.143z"/>
<path fill="#81C784" d="M20.64,46.027c0.477-1.033,0.609-2.23,0.252-3.406c-0.772-2.545-3.459-3.98-6.003-3.207
	c-0.834,0.254-1.535,0.727-2.091,1.32l2.133,7.027L20.64,46.027z"/>
<path fill="#81C784" d="M34.026,33.604c-2.543,0.773-3.979,3.461-3.206,6.004c0.356,1.176,1.133,2.098,2.104,2.693l5.81-1.766
	l-2.116-6.971C35.791,33.35,34.902,33.338,34.026,33.604z"/>
<path fill="#81C784" d="M27.185,2.239L3.381,9.464L15,47.74l23.802-7.225L27.185,2.239z M16.604,44.631L6.437,11.14l19.078-5.791
	L35.681,38.84L16.604,44.631z"/>
<rect x="7.962" y="13.209" transform="matrix(0.0017 1 -1 0.0017 51.4441 -1.8641)" fill="#FFFFFF" width="37.388" height="23.251"/>
<circle fill="#81C784" cx="26.604" cy="24.917" r="7.5"/>
<path fill="#81C784" d="M21.333,6.864c-0.001-0.692-0.154-1.344-0.417-1.938l-6.784,0.012l0.011,6.094
	c0.706,0.405,1.513,0.653,2.385,0.652C19.187,11.68,21.337,9.522,21.333,6.864z"/>
<path fill="#81C784" d="M32.525,4.907c-0.517,0.768-0.817,1.693-0.816,2.69c0.005,2.657,2.163,4.808,4.822,4.803
	c0.914-0.001,1.761-0.272,2.487-0.717l-0.011-6.788L32.525,4.907z"/>
<path fill="#81C784" d="M20.168,44.928c0.755-0.852,1.228-1.96,1.225-3.188c-0.004-2.659-2.162-4.811-4.821-4.805
	c-0.872,0.003-1.679,0.253-2.383,0.661l0.012,7.344L20.168,44.928z"/>
<path fill="#81C784" d="M36.572,36.899c-2.658,0.006-4.809,2.164-4.804,4.822c0.002,1.228,0.479,2.335,1.236,3.186l6.072-0.013
	l-0.013-7.284C38.335,37.166,37.487,36.897,36.572,36.899z"/>
<path fill="#81C784" d="M39.08,4.895L14.204,4.938l0.07,40.001l24.875-0.044L39.08,4.895z M16.707,42.425l-0.061-35L36.583,7.39
	l0.061,35L16.707,42.425z"/>
</svg>
