<?xml version="1.0" encoding="utf-8"?>
<!-- Generator: Adobe Illustrator 16.0.0, SVG Export Plug-In . SVG Version: 6.00 Build 0)  -->
<!DOCTYPE svg PUBLIC "-//W3C//DTD SVG 1.1//EN" "http://www.w3.org/Graphics/SVG/1.1/DTD/svg11.dtd">
<svg version="1.1" id="Capa_1" xmlns="http://www.w3.org/2000/svg" xmlns:xlink="http://www.w3.org/1999/xlink" x="0px" y="0px"
	 width="510px" height="510px" viewBox="0 0 510 510" enable-background="new 0 0 510 510" xml:space="preserve">
<path fill="#777777" d="M57.232,151.446c0-7.567,6.133-13.7,13.701-13.7h164.423c7.558,0,13.699,6.133,13.699,13.7l0,0
	c0,7.567-6.142,13.7-13.699,13.7H70.933C63.365,165.146,57.232,159.013,57.232,151.446L57.232,151.446z"/>
<path fill="#777777" d="M57.232,237.392c0-7.567,6.133-13.7,13.701-13.7h164.423c7.558,0,13.699,6.133,13.699,13.7l0,0
	c0,7.567-6.142,13.7-13.699,13.7H70.933C63.365,251.092,57.232,244.959,57.232,237.392L57.232,237.392z"/>
<path fill="#777777" d="M57.232,323.328c0-7.559,2.304-13.7,5.155-13.7h61.927c2.851,0,5.155,6.144,5.155,13.7l0,0
	c0,7.576-2.304,13.719-5.155,13.719H62.387C59.536,337.047,57.232,330.904,57.232,323.328L57.232,323.328z"/>
<path fill="#777777" d="M476.986,237.392h-31.294c-5.753-10.583-5.453-54.49-52.212-59.696c-17.979-2.005-64.082,0.533-64.082,0.533
	l0.379,199.3c-1.881,66.702-73.424,76.869-98.796,75.354c-41.72-2.496-85.846-12.465-85.668-72.873
	c0.245-84.781,133.639-58.912,145.462-50.826c-6.23-171.893-17.437-246.864,29.276-243.75
	C419.232,92.033,481.66,165.146,476.986,237.392z"/>
</svg>
