<?xml version="1.0" encoding="utf-8"?>
<!-- Generator: Adobe Illustrator 16.0.0, SVG Export Plug-In . SVG Version: 6.00 Build 0)  -->
<!DOCTYPE svg PUBLIC "-//W3C//DTD SVG 1.1//EN" "http://www.w3.org/Graphics/SVG/1.1/DTD/svg11.dtd">
<svg version="1.1" id="Capa_1" xmlns="http://www.w3.org/2000/svg" xmlns:xlink="http://www.w3.org/1999/xlink" x="0px" y="0px"
	 width="302.985px" height="510px" viewBox="110.598 0 302.985 510" enable-background="new 110.598 0 302.985 510"
	 xml:space="preserve">
<path fill="#777777" d="M391.491,237.233c0,10.434-8.459,18.893-18.893,18.893H150.892c-10.434,0-18.892-8.459-18.892-18.893v-7.779
	c0-10.434,8.458-18.892,18.892-18.892h221.707c10.434,0,18.893,8.458,18.893,18.892V237.233z"/>
<path fill="#777777" d="M278.138,448.938c0,10.127-8.21,18.337-18.337,18.337l0,0c-10.127,0-18.337-8.21-18.337-18.337v-64.456
	c0-10.126,8.21-18.336,18.337-18.336l0,0c10.127,0,18.337,8.21,18.337,18.336V448.938z"/>
<path fill="#777777" d="M362.597,451.16c0,10.127-8.21,18.337-18.337,18.337H179.786c-10.127,0-18.336-8.21-18.336-18.337l0,0
	c0-10.126,8.209-18.336,18.336-18.336H344.26C354.387,432.824,362.597,441.034,362.597,451.16L362.597,451.16z"/>
<path fill="#777777" d="M267.024,20.25c-57.789,0-105.575,39.853-105.575,50.287V336.14c0,10.434,69.581,43.341,80.014,43.341
	h36.674c10.434,0,84.32-32.352,84.32-42.785l0.139-263.936C362.597,62.326,318.145,20.25,267.024,20.25z M328.639,238.345H194.853
	V86.76c0-6.942,31.779-33.448,70.208-33.448c34.006,0,63.578,27.982,63.578,34.922V238.345z"/>
</svg>
