<?xml version="1.0" encoding="utf-8"?>
<!-- Generator: Adobe Illustrator 16.0.0, SVG Export Plug-In . SVG Version: 6.00 Build 0)  -->
<!DOCTYPE svg PUBLIC "-//W3C//DTD SVG 1.1//EN" "http://www.w3.org/Graphics/SVG/1.1/DTD/svg11.dtd">
<svg version="1.1" id="Layer_1" xmlns="http://www.w3.org/2000/svg" xmlns:xlink="http://www.w3.org/1999/xlink" x="0px" y="0px"
	 width="50px" height="50px" viewBox="0 0 50 50" enable-background="new 0 0 50 50" xml:space="preserve">
<rect x="14.521" y="6.167" fill="#EEEEEE" stroke="#454545" stroke-miterlimit="10" width="23.389" height="19.152"/>
<path fill="#EEEEEE" stroke="#454545" stroke-miterlimit="10" d="M47.401,35.827c0,1.125-0.907,2.035-2.032,2.035H6.216
	c-1.123,0-2.034-0.91-2.034-2.035V18.37c0-1.123,0.911-2.034,2.034-2.034h39.153c1.125,0,2.032,0.911,2.032,2.034V35.827z"/>
<path fill="#FFFFFF" stroke="#454545" stroke-miterlimit="10" d="M37.909,44.132c0,1.125-0.907,2.035-2.032,2.035H16.554
	c-1.123,0-2.033-0.91-2.033-2.035V28.37c0-1.124,0.91-2.034,2.033-2.034h19.323c1.125,0,2.032,0.91,2.032,2.034V44.132z"/>
<rect x="40.963" y="20.575" fill="#FFFFFF" stroke="#454545" stroke-miterlimit="10" width="2.372" height="2.372"/>
</svg>
