<?xml version="1.0" encoding="utf-8"?>
<!-- Generator: Adobe Illustrator 16.0.0, SVG Export Plug-In . SVG Version: 6.00 Build 0)  -->
<!DOCTYPE svg PUBLIC "-//W3C//DTD SVG 1.1//EN" "http://www.w3.org/Graphics/SVG/1.1/DTD/svg11.dtd">
<svg version="1.1" id="Layer_1" xmlns="http://www.w3.org/2000/svg" xmlns:xlink="http://www.w3.org/1999/xlink" x="0px" y="0px"
	 width="50px" height="50px" viewBox="0 0 50 50" enable-background="new 0 0 50 50" xml:space="preserve">
<g>
	<path fill="#FFFFFF" d="M25.425,7.75C25.286,7.75,25,7.769,25,7.771v5.841c0-0.004,0.286-0.021,0.425-0.021
		c7.821,0,14.166,6.339,14.166,14.16c0,7.82-6.335,14.16-14.157,14.16c-7.742,0-14.027-6.214-14.153-13.924
		c-0.001-0.06,0.04-0.137-0.001-0.178c-1.037-1.027-5.841,0-5.841,0c0.033,11.02,8.972,19.943,19.999,19.943
		c11.046,0,19.995-8.956,19.995-20.002C45.433,16.706,36.473,7.75,25.425,7.75z"/>
</g>
<polygon fill="#FFFFFF" points="25.195,1.497 15.54,11.633 25.161,20.795 "/>
</svg>
