<?xml version="1.0" encoding="utf-8"?>
<!-- Generator: Adobe Illustrator 16.0.0, SVG Export Plug-In . SVG Version: 6.00 Build 0)  -->
<!DOCTYPE svg PUBLIC "-//W3C//DTD SVG 1.1//EN" "http://www.w3.org/Graphics/SVG/1.1/DTD/svg11.dtd">
<svg version="1.1" id="Layer_1" xmlns="http://www.w3.org/2000/svg" xmlns:xlink="http://www.w3.org/1999/xlink" x="0px" y="0px"
	 width="50px" height="50px" viewBox="0 0 50 50" enable-background="new 0 0 50 50" xml:space="preserve">
<g>
	<path fill="#FFFFFF" d="M25.576,7.75C25.717,7.75,26,7.769,26,7.771v5.841c0-0.004-0.283-0.021-0.424-0.021
		c-7.842,0-14.199,6.339-14.199,14.16c0,7.82,6.353,14.16,14.193,14.16c7.762,0,14.066-6.214,14.192-13.924
		c0-0.06-0.042-0.137-0.001-0.178c1.04-1.027,5.857,0,5.857,0c-0.032,11.02-8.995,19.943-20.05,19.943
		c-11.075,0-20.05-8.956-20.05-20.002C5.52,16.706,14.502,7.75,25.576,7.75z"/>
</g>
<polygon fill="#FFFFFF" points="25.813,1.497 35.492,11.633 25.847,20.795 "/>
</svg>
