<?xml version="1.0" encoding="utf-8"?>
<!-- Generator: Adobe Illustrator 16.0.0, SVG Export Plug-In . SVG Version: 6.00 Build 0)  -->
<!DOCTYPE svg PUBLIC "-//W3C//DTD SVG 1.1//EN" "http://www.w3.org/Graphics/SVG/1.1/DTD/svg11.dtd">
<svg version="1.1" id="Capa_1" xmlns="http://www.w3.org/2000/svg" xmlns:xlink="http://www.w3.org/1999/xlink" x="0px" y="0px"
	 width="507.451px" height="507.45px" viewBox="0 0 507.451 507.45" enable-background="new 0 0 507.451 507.45"
	 xml:space="preserve">
<g>
	<g id="settings">
		<path fill="#444444" d="M440.813,280.5c0-7.65,2.551-15.301,2.551-25.5c0-10.201,0-17.851-2.551-25.5l53.551-43.35
			c5.1-5.1,5.1-10.2,2.55-15.3l-51-89.25c-2.55-2.55-7.649-5.1-15.3-2.55l-63.75,25.5c-12.75-10.2-28.051-17.85-43.351-25.5
			l-10.2-66.3C315.863,5.1,308.212,0,303.113,0h-102c-5.101,0-12.75,5.1-12.75,10.2l-10.2,68.85c-15.3,5.1-28.05,15.3-43.35,25.5
			l-61.2-25.5c-7.65-2.55-12.75,0-17.851,5.1l-51,89.25c-2.55,2.55,0,10.2,5.1,15.3l53.55,40.8c0,7.65-2.55,15.3-2.55,25.5
			c0,10.199,0,17.85,2.55,25.5l-53.55,43.35c-5.1,5.102-5.1,10.199-2.55,15.301l51,89.25c2.55,2.551,7.649,5.1,15.3,2.551
			l63.75-25.5c12.75,10.199,28.05,17.85,43.35,25.5l10.2,66.299c0,5.1,5.1,10.201,12.75,10.201h102
			c5.101,0,12.75-5.102,12.75-10.201l10.2-66.299c15.3-7.65,30.6-15.301,43.35-25.5l63.75,25.5c5.102,2.549,12.75,0,15.301-5.102
			l51-89.25c2.551-5.1,2.551-12.75-2.551-15.301L440.813,280.5z M252.113,344.25c-48.45,0-89.25-40.801-89.25-89.25
			c0-48.451,40.8-89.25,89.25-89.25s89.25,40.8,89.25,89.25C341.363,303.45,300.563,344.25,252.113,344.25z"/>
	</g>
</g>
</svg>
