<?xml version="1.0" encoding="utf-8"?>
<!-- Generator: Adobe Illustrator 16.0.0, SVG Export Plug-In . SVG Version: 6.00 Build 0)  -->
<!DOCTYPE svg PUBLIC "-//W3C//DTD SVG 1.1//EN" "http://www.w3.org/Graphics/SVG/1.1/DTD/svg11.dtd">
<svg version="1.1" id="Capa_1" xmlns="http://www.w3.org/2000/svg" xmlns:xlink="http://www.w3.org/1999/xlink" x="0px" y="0px"
	 width="510px" height="510px" viewBox="0 0 510 510" enable-background="new 0 0 510 510" xml:space="preserve">
<path opacity="0.2" fill="#464646" enable-background="new    " d="M216.002,59.335c102.174,0,185,82.826,185,185
	c0,102.173-82.826,184.999-185,184.999c-102.174,0-185-82.826-185-184.999C31.002,142.161,113.828,59.335,216.002,59.335z"/>
<path fill="#787878" d="M216.002,47.399c102.174,0,185,82.827,185,185c0,102.174-82.826,185.001-185,185.001
	c-102.174,0-185-82.827-185-185.001C31.002,130.226,113.828,47.399,216.002,47.399z"/>
<path opacity="0.1" fill="#FFFFFF" enable-background="new    " d="M216.002,47.399c-102.174,0-185,82.827-185,185
	c0,53.63,22.845,101.914,59.304,135.703L333.656,89.629C301.685,63.251,260.689,47.399,216.002,47.399z"/>
<circle fill="#EEEDED" cx="216.002" cy="232.399" r="89.517"/>
<path opacity="0.1" fill="#444445" enable-background="new    " d="M216.002,321.916c49.432,0,89.519-40.085,89.519-89.518
	c0-28.249-13.12-53.406-33.566-69.812L154.25,297.1C170.322,312.438,192.027,321.916,216.002,321.916z"/>
<circle fill="#444445" cx="216.002" cy="232.399" r="14.919"/>
<path fill="#666666" d="M504.079,338.915h-19.464c-3.58-6.584-3.393-33.893-32.479-37.132c-11.184-1.249-39.859,0.33-39.859,0.33
	l0.236,123.97c-1.171,41.487-45.672,47.813-61.454,46.87c-25.95-1.553-53.398-7.753-53.287-45.328
	c0.152-52.736,83.125-36.645,90.479-31.615c-3.874-106.922-10.844-153.554,18.212-151.618
	C468.154,248.5,506.986,293.976,504.079,338.915z"/>
</svg>
