<?xml version="1.0" encoding="utf-8"?>
<!-- Generator: Adobe Illustrator 16.0.0, SVG Export Plug-In . SVG Version: 6.00 Build 0)  -->
<!DOCTYPE svg PUBLIC "-//W3C//DTD SVG 1.1//EN" "http://www.w3.org/Graphics/SVG/1.1/DTD/svg11.dtd">
<svg version="1.1" id="Layer_1" xmlns="http://www.w3.org/2000/svg" xmlns:xlink="http://www.w3.org/1999/xlink" x="0px" y="0px"
	 width="40px" height="40px" viewBox="0 0 40 40" enable-background="new 0 0 40 40" xml:space="preserve">
<g>
	<g>
		<path fill="#FFFFFF" d="M38.557,17.115c0.399-0.39,0.545-0.972,0.37-1.504c-0.17-0.533-0.631-0.921-1.188-1.001l-10.579-1.538
			c-0.479-0.07-0.896-0.371-1.109-0.803l-4.729-9.59c-0.243-0.501-0.758-0.818-1.315-0.818c-0.561,0-1.071,0.317-1.319,0.818
			l-4.735,9.588c-0.213,0.434-0.627,0.734-1.105,0.805L2.259,14.61c-0.555,0.08-1.015,0.468-1.188,1.001
			c-0.173,0.532-0.028,1.114,0.373,1.504l7.653,7.466c0.348,0.337,0.507,0.821,0.425,1.303L7.716,36.42
			c-0.095,0.553,0.132,1.113,0.584,1.439c0.455,0.33,1.056,0.371,1.552,0.111l9.463-4.975c0.429-0.229,0.94-0.229,1.371,0
			l9.461,4.979c0.496,0.256,1.096,0.215,1.554-0.115c0.452-0.326,0.68-0.887,0.586-1.439l-1.81-10.536
			c-0.082-0.479,0.074-0.966,0.422-1.303L38.557,17.115z M27.566,23.182c-0.24,0.233-0.35,0.571-0.293,0.901l1.254,7.319
			c0.064,0.385-0.092,0.771-0.404,1.002c-0.314,0.227-0.734,0.256-1.08,0.078l-6.567-3.457c-0.298-0.159-0.652-0.159-0.951,0
			l-6.572,3.457c-0.344,0.178-0.761,0.146-1.076-0.078c-0.315-0.23-0.472-0.617-0.406-1.002l1.254-7.319
			c0.058-0.33-0.054-0.668-0.293-0.901l-5.319-5.183c-0.278-0.271-0.378-0.678-0.258-1.049c0.121-0.369,0.44-0.636,0.826-0.693
			l7.348-1.067c0.332-0.048,0.619-0.258,0.768-0.559l3.29-6.658c0.173-0.349,0.527-0.569,0.915-0.569
			c0.39,0,0.742,0.221,0.916,0.569l3.284,6.658c0.147,0.301,0.438,0.511,0.769,0.559l7.348,1.067
			c0.389,0.058,0.705,0.324,0.824,0.693c0.123,0.371,0.021,0.777-0.256,1.049L27.566,23.182z"/>
	</g>
</g>
</svg>
