<?xml version="1.0" encoding="utf-8"?>
<!-- Generator: Adobe Illustrator 16.0.0, SVG Export Plug-In . SVG Version: 6.00 Build 0)  -->
<!DOCTYPE svg PUBLIC "-//W3C//DTD SVG 1.1//EN" "http://www.w3.org/Graphics/SVG/1.1/DTD/svg11.dtd">
<svg version="1.1" id="Layer_1" xmlns="http://www.w3.org/2000/svg" xmlns:xlink="http://www.w3.org/1999/xlink" x="0px" y="0px"
	 width="40px" height="40px" viewBox="0 0 40 40" enable-background="new 0 0 40 40" xml:space="preserve">
<g>
	<g>
		<g>
			<path fill="#FFDA44" d="M18.73,2.29c0.239-0.484,0.733-0.789,1.272-0.789c0.54,0,1.035,0.305,1.27,0.789l4.568,9.249
				c0.205,0.419,0.605,0.71,1.064,0.777L37.115,13.8c0.531,0.076,0.978,0.452,1.145,0.964c0.166,0.513,0.028,1.079-0.357,1.455
				l-7.387,7.198c-0.334,0.33-0.488,0.799-0.41,1.259l1.744,10.165c0.09,0.534-0.127,1.072-0.564,1.39
				c-0.438,0.316-1.018,0.359-1.494,0.107l-9.128-4.797c-0.416-0.221-0.908-0.221-1.323,0l-9.13,4.797
				c-0.48,0.252-1.059,0.209-1.496-0.107c-0.438-0.313-0.656-0.854-0.564-1.391l1.743-10.165c0.078-0.46-0.076-0.929-0.41-1.259
				l-7.386-7.198c-0.386-0.377-0.525-0.942-0.359-1.455c0.168-0.513,0.611-0.889,1.148-0.964l10.208-1.484
				c0.461-0.067,0.861-0.357,1.067-0.777L18.73,2.29z"/>
		</g>
	</g>
</g>
</svg>
