<?xml version="1.0" encoding="utf-8"?>
<!-- Generator: Adobe Illustrator 16.0.0, SVG Export Plug-In . SVG Version: 6.00 Build 0)  -->
<!DOCTYPE svg PUBLIC "-//W3C//DTD SVG 1.1//EN" "http://www.w3.org/Graphics/SVG/1.1/DTD/svg11.dtd">
<svg version="1.1" id="Layer_1" xmlns="http://www.w3.org/2000/svg" xmlns:xlink="http://www.w3.org/1999/xlink" x="0px" y="0px"
	 width="200px" height="200px" viewBox="0 0 200 200" enable-background="new 0 0 200 200" xml:space="preserve">
<g>
	<g id="Upload">
		<g>
			<path fill="#444444" d="M174.687,160.042H24.478c-5.461,0-9.893,4.474-9.893,10.013c0,5.517,4.432,9.994,9.893,9.994h150.208
				c5.467,0,9.898-4.478,9.898-9.994C184.585,164.516,180.153,160.042,174.687,160.042z M57.171,87.176l12.016-0.367v41.363
				c0,5.532,4.427,10.012,9.901,10.012h38.206c2.627,0,5.14-1.045,7.007-2.938c1.857-1.872,2.891-4.417,2.891-7.073V86.803
				l11.9,0.371c3.846,0.052,7.494-2.1,9.205-5.645c1.688-3.545,1.164-7.778-1.333-10.798l-39.897-48.018
				c-1.842-2.22-4.547-3.535-7.423-3.581c-2.773-0.125-5.606,1.171-7.52,3.338L49.521,70.49c-2.639,2.97-3.276,7.267-1.608,10.902
				C49.573,85.026,53.274,87.297,57.171,87.176z"/>
		</g>
	</g>
</g>
</svg>
