<?xml version="1.0" encoding="utf-8"?>
<!-- Generator: Adobe Illustrator 16.0.0, SVG Export Plug-In . SVG Version: 6.00 Build 0)  -->
<!DOCTYPE svg PUBLIC "-//W3C//DTD SVG 1.1//EN" "http://www.w3.org/Graphics/SVG/1.1/DTD/svg11.dtd">
<svg version="1.1" id="Layer_1" xmlns="http://www.w3.org/2000/svg" xmlns:xlink="http://www.w3.org/1999/xlink" x="0px" y="0px"
	 width="200px" height="200px" viewBox="0 0 200 200" enable-background="new 0 0 200 200" xml:space="preserve">
<g>
	<g id="account-circle">
		<path fill="#555555" d="M100,20c-44,0-80,36-80,80s36,80,80,80s80-36,80-80S144,20,100,20z M100,44c13.602,0,24,10.402,24,24
			s-10.398,24-24,24c-13.598,0-24-10.402-24-24S86.402,44,100,44z M100,157.602c-20,0-37.598-10.406-48-25.602
			c0-16,32-24.805,48-24.805S148,116,148,132C137.602,147.195,120,157.602,100,157.602z"/>
	</g>
</g>
</svg>
