<?xml version="1.0" encoding="utf-8"?>
<!-- Generator: Adobe Illustrator 16.0.0, SVG Export Plug-In . SVG Version: 6.00 Build 0)  -->
<!DOCTYPE svg PUBLIC "-//W3C//DTD SVG 1.1//EN" "http://www.w3.org/Graphics/SVG/1.1/DTD/svg11.dtd">
<svg version="1.1" id="Layer_1" xmlns="http://www.w3.org/2000/svg" xmlns:xlink="http://www.w3.org/1999/xlink" x="0px" y="0px"
	 width="50px" height="50px" viewBox="0 0 50 50" enable-background="new 0 0 50 50" xml:space="preserve">
<path fill="#777777" d="M47,25.066l-5.647,5.659c-8.986,8.991-23.559,8.991-32.553,0L3,24.923l5.643-5.649
	c8.996-8.989,23.561-8.989,32.557,0L47,25.066z"/>
<path fill="#FFFFFF" d="M24.978,15.604c-5.169,0-9.366,4.196-9.366,9.375c0,5.161,4.197,9.365,9.366,9.365s9.365-4.204,9.365-9.365
	C34.343,19.8,30.147,15.604,24.978,15.604z M24.196,20.288c-2.148,0-3.901,1.758-3.901,3.906c0,0.439-0.353,0.786-0.782,0.786
	s-0.773-0.346-0.773-0.786c0-3.011,2.449-5.462,5.457-5.462c0.43,0,0.782,0.349,0.782,0.779S24.625,20.288,24.196,20.288z"/>
</svg>
