<?xml version="1.0" encoding="utf-8"?>
<!-- Generator: Adobe Illustrator 16.0.0, SVG Export Plug-In . SVG Version: 6.00 Build 0)  -->
<!DOCTYPE svg PUBLIC "-//W3C//DTD SVG 1.1//EN" "http://www.w3.org/Graphics/SVG/1.1/DTD/svg11.dtd">
<svg version="1.1" id="Layer_1" xmlns="http://www.w3.org/2000/svg" xmlns:xlink="http://www.w3.org/1999/xlink" x="0px" y="0px"
	 width="40px" height="40px" viewBox="0 0 40 40" enable-background="new 0 0 40 40" xml:space="preserve">
<path fill="#FFFFFF" d="M39,21.062l-4.881,4.882c-7.754,7.766-20.345,7.766-28.11,0L1,20.934l4.875-4.878
	c7.766-7.763,20.349-7.763,28.116,0L39,21.062z"/>
<path fill="#AAAAAA" d="M19.981,12.888c-4.466,0-8.089,3.623-8.089,8.093c0,4.462,3.623,8.09,8.089,8.09s8.091-3.628,8.091-8.09
	C28.072,16.511,24.447,12.888,19.981,12.888z M19.305,16.933c-1.857,0-3.369,1.515-3.369,3.372c0,0.375-0.303,0.677-0.676,0.677
	s-0.67-0.302-0.67-0.677c0-2.601,2.116-4.718,4.715-4.718c0.372,0,0.676,0.302,0.676,0.673S19.677,16.933,19.305,16.933z"/>
</svg>
